<?xml version="1.0" encoding="utf-8"?>
<!-- Generator: Adobe Illustrator 15.1.0, SVG Export Plug-In . SVG Version: 6.00 Build 0)  -->
<!DOCTYPE svg PUBLIC "-//W3C//DTD SVG 1.1//EN" "http://www.w3.org/Graphics/SVG/1.1/DTD/svg11.dtd">
<svg version="1.1" id="Layer_1" xmlns="http://www.w3.org/2000/svg" xmlns:xlink="http://www.w3.org/1999/xlink" x="0px" y="0px"
	 width="200px" height="150.311px" viewBox="0 0 200 150.311" enable-background="new 0 0 200 150.311" xml:space="preserve">
<g>
	<g>
		<defs>
			<rect id="SVGID_1_" y="28.593" width="200" height="93.125"/>
		</defs>
		<clipPath id="SVGID_2_">
			<use xlink:href="#SVGID_1_"  overflow="visible"/>
		</clipPath>
		<path clip-path="url(#SVGID_2_)" fill="#FFFFFF" d="M26.288,54.152c0,4.771-3.264,9.892-10.896,9.892H0.628V29.446h13.709
			c6.176,0,10.144,3.716,10.144,8.938c0,2.561-1.004,6.025-4.771,7.181C24.129,46.319,26.288,50.235,26.288,54.152 M7.608,35.622
			v7.583h6.327c2.209,0,3.565-1.457,3.565-3.816c0-2.109-1.104-3.767-3.565-3.767H7.608z M19.258,53.449
			c0-2.159-1.457-4.418-4.771-4.418H7.608v8.837h6.779C17.651,57.868,19.258,55.76,19.258,53.449"/>
	</g>
	<g>
		<defs>
			<rect id="SVGID_3_" y="28.593" width="200" height="93.125"/>
		</defs>
		<clipPath id="SVGID_4_">
			<use xlink:href="#SVGID_3_"  overflow="visible"/>
		</clipPath>
		<path clip-path="url(#SVGID_4_)" fill="#FFFFFF" d="M54.372,40.582v23.4h-6.578V61.07c-1.657,2.31-4.921,3.364-7.532,3.364
			c-6.026,0-11.499-4.67-11.499-12.203c0-7.532,5.473-12.202,11.499-12.202c2.712,0,5.875,1.004,7.532,3.364v-2.812H54.372z
			 M47.593,52.231c0-3.615-3.013-6.025-6.076-6.025c-3.314,0-6.076,2.561-6.076,6.025c0,3.415,2.762,6.077,6.076,6.077
			C44.73,58.308,47.593,55.797,47.593,52.231"/>
	</g>
	<g>
		<defs>
			<rect id="SVGID_5_" y="28.593" width="200" height="93.125"/>
		</defs>
		<clipPath id="SVGID_6_">
			<use xlink:href="#SVGID_5_"  overflow="visible"/>
		</clipPath>
		<path clip-path="url(#SVGID_6_)" fill="#FFFFFF" d="M83.974,52.231c0,7.533-5.474,12.203-11.5,12.203
			c-2.661,0-5.875-1.004-7.532-3.364v2.913h-6.578V29.426h6.578v13.968c1.657-2.36,4.871-3.364,7.532-3.364
			C78.5,40.03,83.974,44.699,83.974,52.231 M77.245,52.231c0-3.465-2.712-6.025-6.026-6.025c-3.063,0-6.076,2.41-6.076,6.025
			c0,3.565,2.862,6.077,6.076,6.077C74.533,58.308,77.245,55.646,77.245,52.231"/>
	</g>
	<polygon fill="#FFFFFF" points="109.432,40.582 94.971,75.481 87.939,75.481 93.463,61.772 84.224,40.582 91.455,40.582 
		96.979,54.089 102.352,40.582 	"/>
	<polygon fill="#FFFFFF" points="142.65,46.768 133.11,46.768 133.11,75.464 126.131,75.464 126.131,46.768 116.589,46.768 
		116.589,40.592 142.65,40.592 	"/>
	<g>
		<defs>
			<rect id="SVGID_7_" y="28.593" width="200" height="93.125"/>
		</defs>
		<clipPath id="SVGID_8_">
			<use xlink:href="#SVGID_7_"  overflow="visible"/>
		</clipPath>
		<path clip-path="url(#SVGID_8_)" fill="#FFFFFF" d="M162.937,52.078v23.4h-6.577v-2.913c-1.658,2.31-4.922,3.365-7.533,3.365
			c-6.025,0-11.499-4.67-11.499-12.203s5.474-12.202,11.499-12.202c2.712,0,5.875,1.004,7.533,3.364v-2.812H162.937z
			 M156.158,63.728c0-3.616-3.014-6.026-6.077-6.026c-3.314,0-6.075,2.562-6.075,6.026c0,3.415,2.761,6.076,6.075,6.076
			C153.296,69.804,156.158,67.294,156.158,63.728"/>
	</g>
	<rect x="166.806" y="40.594" fill="#FFFFFF" width="6.578" height="34.879"/>
	<rect x="116.486" y="29.426" fill="#FFFFFF" width="81.949" height="6.184"/>
	<rect x="0.63" y="115.041" fill="#FFFFFF" width="66.895" height="6.183"/>
	<polygon fill="#FFFFFF" points="177.752,40.594 177.752,75.473 184.331,75.473 184.331,65.047 191.815,75.191 200,75.191 
		189.553,62.084 197.94,51.79 189.505,51.79 184.331,58.921 184.331,40.594 	"/>
	<polygon fill="#FFFFFF" points="7.601,81.651 7.601,89.987 19.05,89.987 19.05,96.113 7.601,96.113 7.601,110.073 0.62,110.073 
		0.62,75.474 22.012,75.474 22.012,81.651 	"/>
	<g>
		<defs>
			<rect id="SVGID_9_" y="28.593" width="200" height="93.125"/>
		</defs>
		<clipPath id="SVGID_10_">
			<use xlink:href="#SVGID_9_"  overflow="visible"/>
		</clipPath>
		<path clip-path="url(#SVGID_10_)" fill="#FFFFFF" d="M21.735,98.323c0-7.432,5.925-12.253,12.604-12.253
			s12.604,4.821,12.604,12.253c0,7.382-5.926,12.202-12.604,12.202S21.735,105.704,21.735,98.323 M40.265,98.323
			c0-3.666-2.662-6.126-5.925-6.126s-5.925,2.46-5.925,6.126c0,3.615,2.662,6.075,5.925,6.075S40.265,101.938,40.265,98.323"/>
	</g>
	<g>
		<defs>
			<rect id="SVGID_11_" y="28.593" width="200" height="93.125"/>
		</defs>
		<clipPath id="SVGID_12_">
			<use xlink:href="#SVGID_11_"  overflow="visible"/>
		</clipPath>
		<path clip-path="url(#SVGID_12_)" fill="#FFFFFF" d="M67.605,86.823L66.099,93.1c-1.406-0.753-2.561-0.854-3.365-0.854
			c-3.364,0-5.674,3.113-5.674,9.792v8.034h-6.578V86.673h6.528v4.971c1.306-3.917,3.967-5.574,6.879-5.574
			C65.145,86.07,66.551,86.271,67.605,86.823"/>
	</g>
	<g>
		<defs>
			<rect id="SVGID_13_" y="28.593" width="200" height="93.125"/>
		</defs>
		<clipPath id="SVGID_14_">
			<use xlink:href="#SVGID_13_"  overflow="visible"/>
		</clipPath>
		<path clip-path="url(#SVGID_14_)" fill="#FFFFFF" d="M75.885,86.657h13.558c9.943,0,15.717,7.532,15.717,17.374
			c0,9.793-5.774,17.225-15.717,17.225H75.885V86.657z M89.443,115.079c5.775,0,8.738-5.122,8.738-11.048
			c0-5.925-2.963-11.197-8.738-11.197h-6.578v22.245H89.443z"/>
	</g>
	<g>
		<defs>
			<rect id="SVGID_15_" y="28.593" width="200" height="93.125"/>
		</defs>
		<clipPath id="SVGID_16_">
			<use xlink:href="#SVGID_15_"  overflow="visible"/>
		</clipPath>
		<path clip-path="url(#SVGID_16_)" fill="#FFFFFF" d="M133.405,97.856v23.4h-6.579v-2.912c-1.656,2.31-4.92,3.364-7.531,3.364
			c-6.025,0-11.499-4.671-11.499-12.203s5.474-12.202,11.499-12.202c2.712,0,5.875,1.004,7.531,3.364v-2.812H133.405z
			 M126.626,109.505c0-3.615-3.013-6.025-6.076-6.025c-3.314,0-6.075,2.562-6.075,6.025c0,3.415,2.761,6.077,6.075,6.077
			C123.765,115.582,126.626,113.071,126.626,109.505"/>
	</g>
	<g>
		<defs>
			<rect id="SVGID_17_" y="28.593" width="200" height="93.125"/>
		</defs>
		<clipPath id="SVGID_18_">
			<use xlink:href="#SVGID_17_"  overflow="visible"/>
		</clipPath>
		<path clip-path="url(#SVGID_18_)" fill="#FFFFFF" d="M162.229,86.666v34.59h-6.579v-2.912c-1.657,2.31-4.92,3.364-7.532,3.364
			c-6.024,0-11.498-4.671-11.498-12.203s5.474-12.202,11.498-12.202c2.712,0,5.875,1.004,7.532,3.364V86.666H162.229z
			 M155.449,109.505c0-3.615-3.014-6.025-6.076-6.025c-3.314,0-6.075,2.562-6.075,6.025c0,3.415,2.761,6.077,6.075,6.077
			C152.587,115.582,155.449,113.071,155.449,109.505"/>
	</g>
	<g>
		<defs>
			<rect id="SVGID_19_" y="28.593" width="200" height="93.125"/>
		</defs>
		<clipPath id="SVGID_20_">
			<use xlink:href="#SVGID_19_"  overflow="visible"/>
		</clipPath>
		<path clip-path="url(#SVGID_20_)" fill="#FFFFFF" d="M165.392,113.723h6.176c0,1.356,1.155,2.812,3.465,2.812
			c1.908,0,3.364-0.804,3.364-2.159c0-1.004-0.804-1.506-2.561-1.959l-3.113-0.752c-6.025-1.607-6.83-4.972-6.83-7.433
			c0-3.615,3.767-6.979,9.189-6.979c4.269,0,9.291,2.109,9.24,7.633h-6.277c0-1.557-1.306-2.411-2.862-2.411
			c-1.507,0-2.711,0.753-2.711,1.959c0,1.104,1.004,1.657,2.31,2.009l3.866,1.004c5.624,1.507,6.328,5.021,6.328,6.93
			c0,4.922-5.022,7.332-9.843,7.332C170.213,121.708,165.441,118.896,165.392,113.723"/>
	</g>
	<g>
		<defs>
			<rect id="SVGID_21_" y="28.593" width="200" height="93.125"/>
		</defs>
		<clipPath id="SVGID_22_">
			<use xlink:href="#SVGID_21_"  overflow="visible"/>
		</clipPath>
		<path clip-path="url(#SVGID_22_)" fill="#FFFFFF" d="M190.37,117.658c0-2.314,1.911-4.023,4.175-4.023
			c2.313,0,4.225,1.709,4.225,4.023c0,2.363-1.911,4.074-4.225,4.074C192.281,121.733,190.37,120.022,190.37,117.658
			 M191.125,86.625h6.94l-0.905,23.036h-5.13L191.125,86.625z"/>
	</g>
</g>
</svg>
