<?xml version="1.0" encoding="utf-8"?>
<!-- Generator: Adobe Illustrator 15.1.0, SVG Export Plug-In . SVG Version: 6.00 Build 0)  -->
<!DOCTYPE svg PUBLIC "-//W3C//DTD SVG 1.1//EN" "http://www.w3.org/Graphics/SVG/1.1/DTD/svg11.dtd">
<svg version="1.1" id="Layer_1" xmlns="http://www.w3.org/2000/svg" xmlns:xlink="http://www.w3.org/1999/xlink" x="0px" y="0px"
	 width="200px" height="150.31px" viewBox="0 0 200 150.31" enable-background="new 0 0 200 150.31" xml:space="preserve">
<g>
	<defs>
		<rect id="SVGID_1_" x="24.844" width="150.31" height="150.31"/>
	</defs>
	<clipPath id="SVGID_2_">
		<use xlink:href="#SVGID_1_"  overflow="visible"/>
	</clipPath>
	<path clip-path="url(#SVGID_2_)" fill="#F15922" d="M175.154,75.155c0,41.507-33.647,75.155-75.155,75.155
		s-75.155-33.648-75.155-75.155S58.492,0,100,0S175.154,33.648,175.154,75.155"/>
	
		<rect x="92.67" y="97.904" transform="matrix(0.7071 0.7071 -0.7071 0.7071 103.7045 -39.8878)" clip-path="url(#SVGID_2_)" fill="#FFFFFF" width="14.66" height="14.66"/>
	<path clip-path="url(#SVGID_2_)" fill="#FFFFFF" d="M67.683,105.216h64.633c8.268,0,15.031-6.763,15.031-15.03V60.124
		c0-8.267-6.764-15.031-15.031-15.031H67.683c-8.267,0-15.031,6.764-15.031,15.031v30.062
		C52.652,98.454,59.416,105.216,67.683,105.216"/>
	
		<path clip-path="url(#SVGID_2_)" fill="none" stroke="#000000" stroke-width="6" stroke-linecap="round" stroke-miterlimit="10" d="
		M93.987,82.671c3.324,4.007,8.702,4.007,12.025,0"/>
	<path clip-path="url(#SVGID_2_)" d="M87.975,75.155c0,3.321-2.692,6.013-6.013,6.013c-3.32,0-6.012-2.691-6.012-6.013
		c0-3.32,2.692-6.013,6.012-6.013C85.282,69.142,87.975,71.835,87.975,75.155"/>
	<path clip-path="url(#SVGID_2_)" d="M124.05,75.155c0,3.321-2.692,6.013-6.013,6.013s-6.013-2.691-6.013-6.013
		c0-3.32,2.692-6.013,6.013-6.013S124.05,71.835,124.05,75.155"/>
	
		<line clip-path="url(#SVGID_2_)" fill="none" stroke="#FFFFFF" stroke-width="6" stroke-miterlimit="10" x1="100" y1="45.56" x2="100" y2="35.193"/>
	<path clip-path="url(#SVGID_2_)" fill="#FFFFFF" d="M106.012,34.675c0,3.32-2.691,6.013-6.012,6.013
		c-3.32,0-6.013-2.692-6.013-6.013s2.692-6.013,6.013-6.013C103.32,28.662,106.012,31.354,106.012,34.675"/>
</g>
</svg>
