<?xml version="1.0" encoding="utf-8"?>
<!-- Generator: Adobe Illustrator 15.1.0, SVG Export Plug-In . SVG Version: 6.00 Build 0)  -->
<!DOCTYPE svg PUBLIC "-//W3C//DTD SVG 1.1//EN" "http://www.w3.org/Graphics/SVG/1.1/DTD/svg11.dtd">
<svg version="1.1" id="Layer_1" xmlns="http://www.w3.org/2000/svg" xmlns:xlink="http://www.w3.org/1999/xlink" x="0px" y="0px"
	 width="200px" height="150.311px" viewBox="0 0 200 150.311" enable-background="new 0 0 200 150.311" xml:space="preserve">
<g>
	<defs>
		<rect id="SVGID_1_" x="55.402" y="-0.997" width="89.196" height="149.377"/>
	</defs>
	<clipPath id="SVGID_2_">
		<use xlink:href="#SVGID_1_"  overflow="visible"/>
	</clipPath>
	<path clip-path="url(#SVGID_2_)" d="M74.578,3.193v17.784c0,0.511,0.142,0.898,0.425,1.164c0.283,0.264,0.67,0.396,1.162,0.396
		c0.383,0,0.766-0.073,1.149-0.219v1.423c-0.401,0.165-0.849,0.247-1.341,0.247c-0.913,0-1.637-0.251-2.175-0.753
		c-0.539-0.502-0.808-1.199-0.808-2.093V3.193H74.578z"/>
	<path clip-path="url(#SVGID_2_)" d="M99.555,11.265v13.489c0,1.312-0.31,2.458-0.929,3.434c-0.621,0.975-1.496,1.728-2.627,2.257
		c-1.131,0.529-2.445,0.793-3.939,0.793c-2.392,0-4.406-0.483-6.047-1.449l0.71-1.369c1.514,0.912,3.292,1.369,5.337,1.369
		c1.806,0,3.242-0.453,4.308-1.355c1.067-0.902,1.601-2.156,1.601-3.762v-2.216c-0.621,0.985-1.46,1.751-2.518,2.299
		c-1.058,0.547-2.215,0.821-3.474,0.821c-1.352,0-2.584-0.324-3.707-0.971c-1.123-0.648-2.002-1.534-2.641-2.655
		c-0.639-1.122-0.958-2.357-0.958-3.707c0-1.35,0.318-2.582,0.958-3.694c0.639-1.112,1.518-1.997,2.641-2.654
		c1.122-0.657,2.355-0.985,3.707-0.985c1.276,0,2.447,0.284,3.516,0.848c1.066,0.566,1.91,1.36,2.529,2.38v-2.873H99.555z
		 M95.082,23.399c0.922-0.483,1.657-1.167,2.205-2.051c0.545-0.884,0.819-1.919,0.819-3.105c0-1.168-0.273-2.198-0.819-3.091
		c-0.548-0.895-1.283-1.583-2.205-2.066c-0.919-0.483-1.928-0.725-3.021-0.725c-1.06,0-2.031,0.259-2.915,0.779
		c-0.886,0.52-1.583,1.231-2.093,2.134c-0.512,0.903-0.766,1.892-0.766,2.969c0,1.094,0.254,2.088,0.766,2.981
		c0.51,0.894,1.207,1.601,2.093,2.121c0.884,0.52,1.854,0.78,2.915,0.78C93.153,24.125,94.162,23.884,95.082,23.399"/>
	<path clip-path="url(#SVGID_2_)" d="M114.26,10.307c1.066,1.003,1.599,2.363,1.599,4.078v9.603h-1.584V14.63
		c0-1.349-0.397-2.412-1.191-3.187c-0.793-0.775-1.93-1.164-3.407-1.164c-1.075,0-2.024,0.21-2.846,0.63
		c-0.819,0.419-1.459,0.98-1.915,1.682c-0.456,0.702-0.683,1.473-0.683,2.312v9.083h-1.588V3.413h1.588v8.152
		c0.656-0.947,1.482-1.646,2.476-2.093c0.994-0.446,2.075-0.67,3.242-0.67C111.755,8.802,113.191,9.304,114.26,10.307"/>
	<path clip-path="url(#SVGID_2_)" d="M127.789,23.577v1.45c-0.291,0.165-0.66,0.296-1.108,0.397c-0.445,0.099-0.905,0.15-1.381,0.15
		c-1.495,0-2.666-0.42-3.515-1.259c-0.849-0.838-1.274-1.987-1.274-3.447V11.84h-2.516v-1.368h2.516V6.641l1.588-0.738v4.569h5.582
		v1.368h-5.582v8.864c0,1.077,0.296,1.911,0.889,2.503c0.594,0.594,1.4,0.89,2.422,0.89
		C126.249,24.097,127.042,23.924,127.789,23.577"/>
	<path clip-path="url(#SVGID_2_)" d="M75.439,47.39v1.45c-0.292,0.165-0.661,0.296-1.109,0.398c-0.445,0.099-0.906,0.15-1.38,0.15
		c-1.496,0-2.667-0.419-3.516-1.259c-0.848-0.838-1.273-1.987-1.273-3.447v-9.029h-2.516v-1.368h2.516v-3.831l1.587-0.738v4.569
		h5.582v1.368h-5.582v8.864c0,1.077,0.296,1.912,0.888,2.504c0.595,0.593,1.401,0.889,2.422,0.889
		C73.898,47.91,74.691,47.737,75.439,47.39"/>
	<path clip-path="url(#SVGID_2_)" d="M92.757,46.132v1.258c-0.218,0.11-0.527,0.164-0.931,0.164c-0.819,0-1.476-0.245-1.968-0.739
		c-0.492-0.492-0.739-1.167-0.739-2.024v-0.603c-0.583,1.24-1.445,2.152-2.585,2.735c-1.14,0.585-2.394,0.876-3.763,0.876
		c-1.605,0-2.95-0.387-4.034-1.163c-1.086-0.774-1.628-1.855-1.628-3.242c0-1.495,0.673-2.648,2.024-3.461
		c1.35-0.812,3.365-1.217,6.045-1.217h3.914v-0.63c0-1.312-0.452-2.356-1.356-3.133c-0.902-0.774-2.093-1.162-3.569-1.162
		c-0.931,0-1.844,0.155-2.737,0.465c-0.893,0.311-1.614,0.738-2.162,1.286l-0.984-1.149c0.71-0.657,1.592-1.163,2.641-1.519
		c1.049-0.356,2.138-0.535,3.269-0.535c1.952,0,3.511,0.507,4.678,1.519c1.169,1.013,1.752,2.386,1.752,4.118v6.786
		c0,0.456,0.122,0.816,0.37,1.081c0.245,0.264,0.588,0.396,1.024,0.396C92.31,46.241,92.557,46.204,92.757,46.132 M85.808,45.79
		c0.931-0.411,1.706-1.09,2.327-2.038c0.619-0.949,0.937-2.18,0.957-3.694h-3.914c-2.242,0-3.89,0.291-4.938,0.875
		c-1.049,0.584-1.572,1.387-1.572,2.409c0,0.948,0.4,1.696,1.204,2.243c0.802,0.548,1.815,0.822,3.037,0.822
		C83.912,46.406,84.877,46.199,85.808,45.79"/>
	<path clip-path="url(#SVGID_2_)" d="M97.922,47.379c1.066,0.393,2.185,0.589,3.352,0.589c1.313,0,2.38-0.265,3.201-0.794
		c0.822-0.528,1.23-1.231,1.23-2.106c0-0.657-0.256-1.186-0.766-1.588c-0.51-0.4-1.286-0.701-2.326-0.903l-3.582-0.684
		c-2.775-0.528-4.16-1.751-4.16-3.666c0-0.785,0.241-1.5,0.726-2.147c0.483-0.648,1.18-1.159,2.093-1.533
		c0.911-0.373,1.986-0.561,3.229-0.561c2.442,0,4.449,0.648,6.019,1.942l-0.904,1.205c-0.654-0.548-1.449-0.972-2.38-1.273
		c-0.929-0.301-1.877-0.452-2.846-0.452c-1.258,0-2.297,0.26-3.117,0.781c-0.822,0.52-1.231,1.181-1.231,1.984
		c0,0.583,0.259,1.053,0.78,1.408c0.519,0.356,1.354,0.644,2.502,0.862l3.448,0.684c1.477,0.292,2.529,0.78,3.16,1.465
		c0.628,0.683,0.944,1.481,0.944,2.393c0,0.857-0.256,1.619-0.767,2.285c-0.512,0.666-1.222,1.186-2.135,1.56
		c-0.913,0.374-1.971,0.561-3.173,0.561c-1.279,0-2.536-0.196-3.777-0.589c-1.24-0.392-2.262-0.934-3.063-1.628l0.93-1.231
		C95.985,46.509,96.855,46.988,97.922,47.379"/>
	<path clip-path="url(#SVGID_2_)" d="M118.107,45.803v1.45c-0.292,0.164-0.662,0.296-1.109,0.397c-0.445,0.099-0.906,0.15-1.38,0.15
		c-1.497,0-2.668-0.419-3.517-1.259c-0.848-0.838-1.273-1.987-1.273-3.447v-9.029h-2.517v-1.368h2.517v-3.831l1.587-0.738v4.569
		h5.583v1.368h-5.583v8.864c0,1.076,0.298,1.912,0.89,2.504c0.594,0.593,1.4,0.89,2.422,0.89
		C116.565,46.323,117.358,46.15,118.107,45.803"/>
	<path clip-path="url(#SVGID_2_)" d="M134.302,42.11h-13.408c0.056,1.149,0.36,2.162,0.917,3.038c0.557,0.876,1.31,1.56,2.258,2.052
		c0.949,0.493,2.033,0.739,3.255,0.739c1.096,0,2.075-0.183,2.942-0.548c0.865-0.364,1.574-0.847,2.119-1.449l1.039,1.094
		c-0.601,0.712-1.431,1.281-2.488,1.71s-2.28,0.643-3.667,0.643c-1.586,0-2.986-0.333-4.2-0.999
		c-1.213-0.665-2.15-1.586-2.816-2.763c-0.668-1.175-0.999-2.503-0.999-3.981c0-1.477,0.322-2.808,0.971-3.994
		c0.647-1.185,1.552-2.111,2.71-2.776c1.157-0.666,2.457-0.999,3.897-0.999c1.477,0,2.785,0.341,3.926,1.025
		c1.14,0.685,2.026,1.615,2.654,2.791c0.63,1.177,0.944,2.467,0.944,3.872C134.355,41.6,134.338,41.782,134.302,42.11
		 M123.999,35.996c-0.848,0.447-1.545,1.08-2.093,1.902c-0.548,0.82-0.875,1.778-0.984,2.873h11.792
		c-0.073-1.003-0.365-1.919-0.874-2.75c-0.513-0.83-1.2-1.486-2.067-1.97c-0.865-0.483-1.848-0.726-2.941-0.726
		C125.792,35.325,124.848,35.549,123.999,35.996"/>
	<path clip-path="url(#SVGID_2_)" d="M80.404,10.746h1.588v14.829h-1.588V10.746z M85.958,3.851c0-1.008-0.818-1.825-1.826-1.825
		c-1.008,0-1.826,0.817-1.826,1.825s0.817,1.826,1.826,1.826C85.14,5.677,85.958,4.859,85.958,3.851 M82.635-0.373
		c0-0.344-0.279-0.623-0.624-0.623c-0.345,0-0.623,0.279-0.623,0.623s0.278,0.623,0.623,0.623
		C82.355,0.25,82.635-0.029,82.635-0.373 M81.225,6.551c-0.275,0-0.5,0.087-0.674,0.261C80.377,6.985,80.29,7.21,80.29,7.486
		s0.087,0.5,0.261,0.674c0.174,0.174,0.399,0.261,0.674,0.261c0.275,0,0.5-0.087,0.674-0.261c0.174-0.174,0.261-0.398,0.261-0.674
		s-0.087-0.5-0.261-0.674C81.724,6.638,81.5,6.551,81.225,6.551"/>
	<path clip-path="url(#SVGID_2_)" fill="#DE0B1C" d="M144.598,103.785c0-24.633-19.968-44.6-44.601-44.6
		c-24.629,0-44.595,19.967-44.595,44.6c0,24.628,19.966,44.595,44.595,44.595C124.63,148.38,144.598,128.413,144.598,103.785"/>
	<path clip-path="url(#SVGID_2_)" fill="#FFFFFF" d="M95.003,115.683c-1.918-1.349-4.253-1.944-6.377-1.857
		c-2.146,0.084-3.11,1.686-3.11,1.686c-0.969-1.686-2.881-2.722-5.84-2.697c-4.776,0.056-9.517,2.262-13.273,2.262
		c-3.604,0-6.23-2.262-6.144-6.281c0.152-7.049,6.106-13.399,10.557-16.261c2.556-1.642,4.701-2.131,6.104-1.975
		c1.021,0.116,2.25,1.296,1.476,3.035c-1.138,2.551-2.71,2.336-2.655,1.117c0.033-0.791,0.559-1.29,0.957-1.562
		c0.254-0.174,0.697-0.224,0.925-0.229c0.225-0.189,0.398-1.585-1.436-1.124c-1.833,0.461-4.039,2.261-6.142,4.579
		c-2.105,2.322-5.378,6.723-6.186,11.338c-0.376,2.144-0.123,6.043,4.946,5.994c4.3-0.035,10.644-2.865,16.471-2.816
		c2.263,0.02,4.231,0.629,5.768,1.578C92.554,113.404,94.364,114.757,95.003,115.683 M96.382,102.905h0.88
		c0,0-4.412,6.382-6.912,6.095c-1.39-0.159-0.978-1.883-0.978-1.883s-1.962,2.294-3.752,1.834c-1.631-0.416-0.58-3.127-0.58-3.127
		c-0.184,0.074-3.713,4.053-6.19,3.1c-2.589-0.997-1.25-4.328-0.753-5.33c0.416-0.845,0.879-1.666,0.879-1.666
		s-0.4,0.114-0.645,0.17c-0.248,0.058-0.624,0.129-0.624,0.129s-1.227,1.994-1.978,2.992c-0.747,0.992-3.934,4.417-5.811,3.732
		c-1.876-0.681-1.415-3.306-0.356-5.394c1.709-3.387,5.765-7.543,8.208-6.921c2.469,0.628,0.428,4.635,0.428,4.635
		s0.489,0.066,1.665-0.74c1.698-1.154,3.934-4.268,6.357-3.901c1.133,0.168,2.196,1.338,0.747,3.553
		c-0.464,0.712-1.241,1.349-1.839,0.719c-0.371-0.387-0.05-1.102,0.342-1.589c0.549-0.693,1.306-0.601,1.306-0.601
		s0.4-0.918-0.614-0.9c-0.826,0.017-2.908,1.938-4.088,3.879c-1.08,1.781-2.715,4.818-1.071,5.479
		c1.506,0.609,4.369-2.796,5.697-4.577c1.328-1.782,4.35-5.827,6.883-5.991c0.87-0.06,1.393,0.737,1.393,0.737l0.294-0.465h2.531
		c0,0-4.773,7.979-5.147,8.582c-0.294,0.473-0.682,1.536,0.398,0.938C94.135,105.795,96.382,102.905,96.382,102.905 M76.719,102.095
		c-0.042-0.015-0.68-0.198-1.302-0.597c-0.622-0.399-0.91-0.99-0.934-1.032c-0.022-0.04-0.047-0.008-0.073,0.025
		c-0.025,0.037-0.158,0.209-1.062,1.533c-0.905,1.328-2.24,4.046-0.986,4.51c0.802,0.298,2.152-1.115,2.883-2.048
		c0.676-0.867,1.483-2.197,1.519-2.278C76.796,102.128,76.764,102.111,76.719,102.095 M77.725,97.854
		c-0.666-0.502-2.359,0.672-2.365,1.875c-0.011,1.232,1.526,1.582,1.723,1.592c0,0,0.175,0.047,0.244-0.1
		c0.045-0.089,0.252-0.477,0.486-1.086C78.045,99.521,78.343,98.323,77.725,97.854 M90.638,104.493
		c1.023-1.401,3.844-6.316,3.844-6.316s-0.046-0.346-0.375-0.361c-0.392-0.02-1.038,0.113-2.335,1.734
		c-1.298,1.621-2.298,2.914-3.03,4.254c-0.802,1.466-1.155,2.495-0.691,2.78c0.125,0.077,0.324,0.085,0.483,0.047
		c0.3-0.074,0.692-0.376,1.231-1C90.017,105.341,90.3,104.956,90.638,104.493 M102.023,96.883h-2.405l-1.357,2.199h2.404
		L102.023,96.883z M137.545,92.929c-1.774,1.146-4.243,2.182-6.611,1.953c-0.598,0.621-1.237,1.337-1.884,2.121
		c4.11,0.811,7.702-1.734,9.617-3.903c1.193-1.354,1.779-2.562,1.779-2.562S139.307,91.794,137.545,92.929 M130.507,111.591
		c-0.344,0.544-0.728,1.589,0.397,0.939c1.368-0.795,3.319-3.755,3.319-3.755h0.881c0,0-1.16,1.842-2.677,3.521
		c-1.391,1.536-3.083,2.938-4.276,2.8c-1.395-0.162-0.958-1.992-0.958-1.992s-1.999,2.123-3.376,1.972
		c-1.859-0.203-1.294-2.508-1.294-2.508s-2.107,2.592-3.54,2.508c-2.25-0.129-1.688-2.878-1.062-4.797
		c0.335-1.031,0.647-1.841,0.647-1.841s-0.225,0.058-0.703,0.128c-0.252,0.035-0.709,0.062-0.709,0.062s-0.938,1.656-1.685,2.649
		c-0.751,0.996-3.933,4.421-5.812,3.737c-1.732-0.634-1.162-3.29-0.151-5.398c1.471-3.074,5.611-7.497,8.003-6.919
		c2.474,0.604,0.056,5.122,0.056,5.122s0.001,0.018,0.026,0.026c0.053,0.02,0.178,0.032,0.477-0.024
		c0.478-0.091,0.907-0.271,0.907-0.271s2.488-5.214,5.237-8.63c2.75-3.411,8.234-9.289,10.391-7.868
		c0.527,0.349,0.287,1.553-0.421,3.016c-0.312,0.097-0.639,0.187-0.972,0.253c0.474-0.86,0.789-1.585,0.882-2.094
		c0.321-1.76-3.791,1.955-6.732,5.955c-2.937,3.999-4.702,7.622-4.702,7.622s0.596-0.336,1.519-1.082
		c0.964-0.776,2.29-1.995,3.733-3.488c0.971-1,2.111-2.262,3.179-3.67c0.317-0.018,0.63-0.047,0.934-0.096
		c-1.186,1.605-2.443,3.069-3.504,4.147c-1.168,1.185-2.44,2.462-3.546,3.393c-1.755,1.475-3.108,2.314-3.108,2.314
		s-2.578,5.18-1.18,5.518c0.826,0.195,2.446-2.307,2.446-2.307s2.118-3.237,3.396-4.691c1.743-1.985,3.241-3.128,4.74-3.153
		c0.874-0.015,1.389,0.916,1.389,0.916l0.411-0.637h2.536C135.606,102.968,130.884,110.986,130.507,111.591 M116.278,108.436
		c-0.049-0.017-0.595-0.271-1.165-0.742c-0.569-0.476-0.856-1.018-0.878-1.059c-0.021-0.042-0.047-0.011-0.072,0.026
		c-0.027,0.033-0.128,0.119-1.034,1.449c-0.9,1.326-2.285,4.064-1.028,4.528c0.801,0.298,2.141-1.108,2.871-2.041
		c0.676-0.87,1.309-1.971,1.344-2.049C116.353,108.471,116.319,108.449,116.278,108.436 M117.553,106.196
		c0.235-0.611,0.531-1.81-0.09-2.279c-0.663-0.501-2.354,0.674-2.364,1.872c-0.01,1.235,1.193,1.79,1.481,1.865
		c0.166,0.045,0.221,0.042,0.304-0.093C116.934,107.474,117.319,106.806,117.553,106.196 M132.088,104.501
		c0.053-0.088,0.072-0.17,0.072-0.17s-0.046-0.346-0.374-0.359c-0.393-0.019-0.925,0.057-2.321,1.604
		c-1.394,1.543-2.24,2.883-2.974,4.223c-0.802,1.467-1.121,2.555-0.662,2.835c0.13,0.077,0.327,0.087,0.485,0.049
		c0.311-0.075,0.663-0.366,1.204-0.988c0.251-0.289,0.531-0.701,0.862-1.161C129.302,109.272,131.625,105.304,132.088,104.501
		 M137.545,92.929c-1.774,1.146-4.243,2.182-6.611,1.953c-0.598,0.621-1.237,1.337-1.884,2.121c4.11,0.811,7.702-1.734,9.617-3.903
		c1.193-1.354,1.779-2.562,1.779-2.562S139.307,91.794,137.545,92.929 M126.003,95.91c-1.941-0.997-3.357-2.212-4.839-2.973
		c-1.412-0.725-2.32-1.022-3.46-0.87c-0.188,0.023-0.471,0.114-0.471,0.114s0.589,2.004-1.745,5.373
		c-2.366,3.414-4.51,3.397-5.12,2.451c-0.638-0.988,0.184-3.008,1.562-4.802c1.441-1.877,3.976-3.439,3.976-3.439
		s-0.81-0.493-2.796,0.634c-1.932,1.095-5.269,3.701-8.356,8.104c-3.086,4.396-3.698,6.819-4.145,8.722
		c-0.448,1.906-0.037,3.945,2.074,3.945c2.118,0,4.573-3.224,5.267-4.344c1.283-2.09,2.126-5.287,0.374-4.846
		c-0.867,0.215-1.567,1.175-2.009,2.097c-0.453,0.946-0.634,1.85-0.634,1.85s-0.729,0.262-1.713,0.996
		c-0.979,0.732-1.619,1.438-1.619,1.438s0.005-1.521,1.219-3.989c1.213-2.464,3.443-3.592,4.701-3.696
		c1.14-0.093,2.618,0.872,1.365,4.437c-1.254,3.565-4.948,7.889-8.836,7.946c-3.584,0.053-5.936-4.525-0.948-12.517
		c5.514-8.835,12.002-11.546,14.108-11.848c2.106-0.307,2.787,0.622,2.787,0.622s1.763-0.813,4-0.663
		c2.571,0.175,4.56,1.993,7.179,3.267C127.242,94.585,126.592,95.269,126.003,95.91 M116.435,92.445c0,0-1.505,0.603-3.253,2.527
		c-1.753,1.936-2.766,4.094-2.011,4.671c0.289,0.218,0.952,0.256,2.17-0.834c0.943-0.851,1.903-1.963,2.562-3.557
		C116.681,93.344,116.435,92.47,116.435,92.445 M135.238,113.035c-0.239-0.241-0.529-0.364-0.872-0.364
		c-0.341,0-0.631,0.123-0.868,0.364c-0.245,0.236-0.367,0.53-0.367,0.865c0,0.346,0.122,0.641,0.361,0.877
		c0.24,0.242,0.533,0.363,0.874,0.363c0.343,0,0.633-0.121,0.872-0.363c0.242-0.241,0.36-0.531,0.36-0.877
		C135.599,113.565,135.48,113.272,135.238,113.035 M135.117,114.668c-0.205,0.196-0.455,0.306-0.751,0.306
		c-0.294,0-0.549-0.109-0.752-0.306c-0.203-0.216-0.31-0.469-0.31-0.768c0-0.291,0.106-0.541,0.31-0.748
		c0.21-0.21,0.463-0.31,0.752-0.31c0.296,0,0.538,0.1,0.751,0.31c0.209,0.207,0.31,0.457,0.31,0.748
		C135.427,114.199,135.326,114.452,135.117,114.668 M134.903,114.493c0-0.036-0.005-0.066-0.005-0.096v-0.099
		c0-0.07-0.029-0.142-0.074-0.213c-0.045-0.07-0.126-0.114-0.23-0.128c0.082-0.014,0.151-0.042,0.194-0.073
		c0.091-0.054,0.136-0.145,0.136-0.266c0-0.168-0.07-0.283-0.213-0.343c-0.075-0.031-0.199-0.046-0.372-0.046h-0.47v1.351h0.239
		v-0.532h0.191c0.12,0,0.212,0.014,0.259,0.047c0.091,0.047,0.129,0.151,0.129,0.303v0.112l0.003,0.045c0,0.01,0,0.01,0.008,0.014
		v0.012h0.226l-0.01-0.016C134.904,114.556,134.904,114.534,134.903,114.493 M134.55,113.853c-0.051,0.018-0.123,0.027-0.229,0.027
		h-0.213v-0.49h0.203c0.125,0,0.233,0.019,0.284,0.054c0.062,0.031,0.092,0.101,0.092,0.199
		C134.688,113.744,134.636,113.812,134.55,113.853"/>
</g>
</svg>
