<?xml version="1.0" encoding="utf-8"?>
<!-- Generator: Adobe Illustrator 15.1.0, SVG Export Plug-In . SVG Version: 6.00 Build 0)  -->
<!DOCTYPE svg PUBLIC "-//W3C//DTD SVG 1.1//EN" "http://www.w3.org/Graphics/SVG/1.1/DTD/svg11.dtd">
<svg version="1.1" id="Layer_1" xmlns="http://www.w3.org/2000/svg" xmlns:xlink="http://www.w3.org/1999/xlink" x="0px" y="0px"
	 width="200px" height="150.311px" viewBox="0 0 200 150.311" enable-background="new 0 0 200 150.311" xml:space="preserve">
<g>
	<path fill="#FFFFFF" d="M104.579,60.33c-3.385,0-3.279,0-5.184-2.962L75.385,19.712v63.043h-4.867V16.328
		c0-0.53-0.105-0.74-0.635-0.953l-3.49-1.27l0.423-2.432h6.875c2.01,0,2.328,0.317,3.809,2.645l25.809,40.723l27.714-43.368h5.183
		v71.081h-4.972V19.606L105.214,60.33H104.579z"/>
	<path fill="#FFFFFF" d="M152.642,16.327c0-0.529-0.105-0.74-0.635-0.953l-3.49-1.27l0.424-2.432h49.185v4.337h-40.3v28.454h32.685
		v4.231h-32.685v29.724h41.147v4.336h-46.331V16.327z"/>
	<path fill="#FFFFFF" d="M19.025,95.26c-0.351,0-0.705-0.078-1.033-0.24c-0.796-0.389-1.306-1.193-1.317-2.08
		c0-0.074-0.086-6.709-0.103-11.494C5.956,76.471,0.997,65.407,0.997,46.813c0-26.503,9.788-37.812,32.728-37.812
		c9.344,0,17.638,2.17,20.771,3.102l-1.343,4.506c-6.112-1.819-13.375-2.907-19.428-2.907c-20.168,0-28.027,9.284-28.027,33.11
		c0,17.497,4.346,27.028,14.09,30.904c0.896,0.355,1.482,1.221,1.482,2.186c0,2.387,0.027,5.666,0.054,8.334
		c11.076-8.312,11.547-8.312,12.401-8.312c6.712,0,13.221-0.951,19.9-2.91l1.322,4.512c-6.921,2.029-13.677,3.041-20.636,3.098
		c-1.729,1.105-8.147,5.838-13.868,10.162C20.028,95.1,19.529,95.26,19.025,95.26"/>
</g>
<g>
	<path fill="#FFFFFF" d="M39.958,111.534c0-1.195,0.113-2.224,0.341-3.081c0.227-0.857,0.584-1.559,1.072-2.105
		c0.487-0.546,1.108-0.949,1.862-1.211c0.753-0.258,1.656-0.39,2.71-0.39c0.662,0,1.309,0.044,1.94,0.129
		c0.631,0.084,1.206,0.204,1.725,0.359l-0.156,0.819c-0.455-0.144-0.981-0.263-1.579-0.361c-0.598-0.098-1.203-0.145-1.813-0.145
		c-0.911,0-1.687,0.114-2.331,0.34c-0.644,0.229-1.173,0.582-1.589,1.064c-0.417,0.479-0.722,1.097-0.917,1.851
		c-0.195,0.755-0.292,1.664-0.292,2.73c0,1.065,0.097,1.976,0.292,2.729c0.195,0.754,0.5,1.372,0.917,1.853
		c0.416,0.481,0.945,0.836,1.589,1.064c0.644,0.226,1.42,0.34,2.331,0.34c0.61,0,1.199-0.042,1.765-0.127
		c0.565-0.085,1.133-0.211,1.706-0.38v0.837c-0.573,0.157-1.147,0.275-1.726,0.353c-0.578,0.078-1.2,0.117-1.862,0.117
		c-1.054,0-1.957-0.131-2.71-0.39c-0.754-0.262-1.375-0.663-1.862-1.209c-0.488-0.547-0.846-1.249-1.072-2.107
		C40.071,113.756,39.958,112.729,39.958,111.534z"/>
	<path fill="#FFFFFF" d="M51.169,113.387c0-1.742,0.351-3.004,1.053-3.785c0.702-0.777,1.833-1.168,3.392-1.168
		c1.547,0,2.672,0.391,3.375,1.168c0.702,0.781,1.052,2.043,1.052,3.785c0,0.87-0.084,1.617-0.253,2.241s-0.435,1.134-0.799,1.53
		s-0.822,0.689-1.375,0.877c-0.552,0.189-1.218,0.284-2,0.284c-0.779,0-1.449-0.095-2.008-0.284
		c-0.559-0.188-1.021-0.48-1.384-0.877s-0.63-0.906-0.799-1.53C51.254,115.005,51.169,114.258,51.169,113.387z M52.106,113.387
		c0,1.468,0.275,2.527,0.829,3.177c0.551,0.65,1.444,0.977,2.679,0.977c1.237,0,2.126-0.326,2.672-0.977
		c0.546-0.649,0.819-1.709,0.819-3.177c0-1.482-0.273-2.548-0.819-3.198c-0.546-0.65-1.436-0.977-2.672-0.977
		c-1.235,0-2.128,0.326-2.679,0.977C52.381,110.84,52.106,111.905,52.106,113.387z"/>
	<path fill="#FFFFFF" d="M69.635,112.081c0-1.015-0.209-1.742-0.624-2.186c-0.416-0.44-1.112-0.662-2.086-0.662
		c-0.741,0-1.377,0.102-1.911,0.301c-0.533,0.204-0.949,0.409-1.248,0.615v7.937H62.83v-8.52c0-0.092-0.039-0.15-0.117-0.178
		l-0.664-0.253l0.079-0.468h1.461c0.117,0,0.176,0.063,0.176,0.194v0.624c0.377-0.324,0.826-0.582,1.346-0.77
		c0.52-0.188,1.169-0.282,1.949-0.282c1.236,0,2.129,0.282,2.681,0.848c0.553,0.565,0.829,1.492,0.829,2.777v5.129
		c0,0.092,0.04,0.148,0.117,0.176l0.664,0.254l-0.079,0.468h-1.461c-0.118,0-0.176-0.063-0.176-0.194V112.081z"/>
	<path fill="#FFFFFF" d="M76.732,117.188c0.169-0.323,0.351-0.707,0.546-1.15c0.195-0.441,0.4-0.917,0.614-1.424
		c0.215-0.508,0.426-1.032,0.634-1.58c0.207-0.544,0.402-1.078,0.584-1.599c0.183-0.519,0.352-1.016,0.507-1.491
		c0.156-0.474,0.28-0.899,0.37-1.276h0.956c-0.183,0.65-0.41,1.372-0.683,2.166c-0.273,0.791-0.572,1.604-0.897,2.436
		c-0.325,0.831-0.672,1.665-1.042,2.496c-0.371,0.832-0.738,1.606-1.102,2.32h-0.974c-0.377-0.714-0.748-1.488-1.112-2.32
		c-0.363-0.831-0.709-1.665-1.033-2.496c-0.325-0.832-0.625-1.645-0.896-2.436c-0.273-0.794-0.501-1.516-0.683-2.166h0.955
		c0.091,0.364,0.215,0.787,0.371,1.267c0.156,0.481,0.325,0.982,0.507,1.501c0.181,0.521,0.376,1.055,0.583,1.599
		c0.209,0.548,0.42,1.072,0.634,1.58c0.215,0.507,0.42,0.982,0.615,1.424C76.381,116.481,76.563,116.865,76.732,117.188z"/>
	<path fill="#FFFFFF" d="M82.386,113.387c0-1.742,0.342-3.004,1.024-3.785c0.683-0.777,1.785-1.168,3.305-1.168
		c1.365,0,2.349,0.375,2.954,1.132c0.605,0.752,0.907,1.974,0.907,3.665v0.409h-7.273c0.027,1.389,0.352,2.392,0.976,3.002
		c0.623,0.612,1.637,0.916,3.041,0.916c0.988,0,1.963-0.154,2.925-0.469v0.802c-0.897,0.285-1.892,0.429-2.984,0.429
		c-0.858,0-1.592-0.095-2.203-0.284c-0.612-0.188-1.115-0.48-1.512-0.877c-0.396-0.396-0.688-0.906-0.876-1.53
		C82.48,115.005,82.386,114.258,82.386,113.387z M86.715,109.154c-1.183,0-2.041,0.301-2.574,0.898
		c-0.533,0.598-0.812,1.565-0.839,2.904h6.376c-0.014-0.676-0.075-1.258-0.186-1.745s-0.287-0.879-0.525-1.18
		c-0.241-0.299-0.547-0.519-0.918-0.662C87.681,109.227,87.235,109.154,86.715,109.154z"/>
	<path fill="#FFFFFF" d="M98.161,109.293c-0.195-0.041-0.409-0.06-0.643-0.06c-0.39,0-0.744,0.046-1.063,0.137
		c-0.318,0.092-0.61,0.204-0.877,0.341c-0.268,0.137-0.5,0.289-0.702,0.458c-0.202,0.17-0.374,0.338-0.517,0.508v7.409h-0.935v-8.52
		c0-0.092-0.04-0.15-0.117-0.178l-0.664-0.253l0.078-0.468h1.463c0.117,0,0.175,0.063,0.175,0.194v1.054
		c0.403-0.494,0.854-0.864,1.355-1.112c0.5-0.246,1.147-0.369,1.94-0.369c0.117,0,0.237,0.007,0.361,0.019
		c0.123,0.012,0.23,0.032,0.322,0.06L98.161,109.293z"/>
	<path fill="#FFFFFF" d="M99.856,111.009c0-0.846,0.309-1.486,0.927-1.922c0.617-0.436,1.492-0.652,2.623-0.652
		c0.56,0,1.084,0.035,1.58,0.106c0.492,0.072,0.929,0.173,1.306,0.302l-0.176,0.78c-0.391-0.143-0.813-0.251-1.268-0.322
		c-0.456-0.068-0.917-0.106-1.385-0.106c-0.91,0-1.587,0.154-2.028,0.459c-0.44,0.304-0.662,0.749-0.662,1.335
		c0,0.496,0.146,0.865,0.438,1.111c0.292,0.246,0.659,0.436,1.104,0.566c0.439,0.128,0.918,0.24,1.431,0.331
		c0.514,0.09,0.993,0.227,1.434,0.409c0.442,0.183,0.809,0.446,1.103,0.79c0.291,0.345,0.439,0.833,0.439,1.472
		c0,0.871-0.312,1.531-0.927,1.979c-0.618,0.45-1.519,0.674-2.7,0.674c-1.144,0-2.186-0.156-3.122-0.47v-0.799
		c0.976,0.338,1.997,0.507,3.062,0.507c0.938,0,1.637-0.158,2.096-0.476c0.464-0.32,0.693-0.785,0.693-1.396
		c0-0.506-0.146-0.887-0.438-1.14c-0.293-0.255-0.66-0.448-1.102-0.585c-0.44-0.137-0.922-0.251-1.443-0.343
		c-0.521-0.089-1-0.224-1.443-0.398c-0.443-0.176-0.808-0.433-1.1-0.771C100.003,112.113,99.856,111.632,99.856,111.009z"/>
	<path fill="#FFFFFF" d="M115.728,117.013c-0.545,0.872-1.65,1.307-3.313,1.307c-1.208,0-2.098-0.222-2.671-0.663
		c-0.571-0.442-0.858-1.125-0.858-2.048c0-0.936,0.295-1.614,0.878-2.038c0.585-0.423,1.527-0.633,2.828-0.633
		c0.572,0,1.11,0.042,1.618,0.126c0.507,0.084,0.974,0.205,1.403,0.362v-1.658c0-0.923-0.234-1.583-0.7-1.979
		c-0.469-0.396-1.249-0.596-2.343-0.596c-0.974,0-1.929,0.155-2.865,0.468v-0.8c0.456-0.143,0.928-0.249,1.414-0.321
		c0.487-0.071,0.996-0.106,1.53-0.106c1.364,0,2.351,0.266,2.953,0.799c0.606,0.532,0.907,1.396,0.907,2.593v5.362
		c0,0.092,0.04,0.148,0.117,0.176l0.663,0.254l-0.079,0.468h-1.265c-0.065,0-0.111-0.007-0.139-0.021
		c-0.024-0.012-0.039-0.063-0.039-0.154L115.728,117.013z M112.552,117.596c1.078,0,1.859-0.19,2.341-0.574
		c0.479-0.385,0.72-0.99,0.72-1.823v-1.072c-0.858-0.338-1.825-0.508-2.905-0.508c-1.027,0-1.767,0.151-2.223,0.449
		c-0.454,0.3-0.682,0.813-0.682,1.541c0,0.688,0.22,1.192,0.661,1.512C110.907,117.439,111.601,117.596,112.552,117.596z"/>
	<path fill="#FFFFFF" d="M120.077,109.584c0-0.116-0.051-0.182-0.155-0.195l-1.21-0.213l0.078-0.508h1.287v-2.888h0.937v2.888h3.412
		v0.76h-3.412v6.045c0,0.741,0.153,1.271,0.459,1.59c0.305,0.316,0.82,0.479,1.548,0.479c0.262,0,0.504-0.017,0.732-0.051
		c0.229-0.031,0.452-0.079,0.673-0.146v0.819c-0.221,0.051-0.455,0.09-0.701,0.117c-0.247,0.025-0.521,0.039-0.819,0.039
		c-1.002,0-1.723-0.222-2.164-0.663c-0.442-0.442-0.664-1.163-0.664-2.165V109.584z"/>
	<path fill="#FFFFFF" d="M127.976,108.668c0.115,0,0.175,0.052,0.175,0.157v9.261h-0.937v-8.52c0-0.092-0.04-0.15-0.118-0.178
		l-0.661-0.253l0.077-0.468H127.976z M126.961,105.665c0-0.455,0.231-0.683,0.7-0.683s0.704,0.228,0.704,0.683
		c0,0.454-0.235,0.683-0.704,0.683S126.961,106.119,126.961,105.665z"/>
	<path fill="#FFFFFF" d="M130.957,113.387c0-1.742,0.351-3.004,1.054-3.785c0.7-0.777,1.83-1.168,3.392-1.168
		c1.547,0,2.672,0.391,3.375,1.168c0.701,0.781,1.051,2.043,1.051,3.785c0,0.87-0.083,1.617-0.253,2.241
		c-0.168,0.624-0.436,1.134-0.798,1.53c-0.365,0.396-0.824,0.689-1.376,0.877c-0.553,0.189-1.219,0.284-1.999,0.284
		c-0.781,0-1.45-0.095-2.007-0.284c-0.56-0.188-1.022-0.48-1.385-0.877c-0.365-0.396-0.632-0.906-0.801-1.53
		S130.957,114.258,130.957,113.387z M131.892,113.387c0,1.468,0.275,2.527,0.83,3.177c0.552,0.65,1.444,0.977,2.681,0.977
		c1.233,0,2.126-0.326,2.672-0.977c0.547-0.649,0.819-1.709,0.819-3.177c0-1.482-0.272-2.548-0.819-3.198
		c-0.546-0.65-1.438-0.977-2.672-0.977c-1.236,0-2.129,0.326-2.681,0.977C132.167,110.84,131.892,111.905,131.892,113.387z"/>
	<path fill="#FFFFFF" d="M149.401,112.081c0-1.015-0.205-1.742-0.623-2.185c-0.416-0.441-1.112-0.663-2.086-0.663
		c-0.741,0-1.377,0.102-1.911,0.301c-0.535,0.204-0.948,0.409-1.247,0.615v7.937h-0.938v-8.52c0-0.092-0.038-0.15-0.115-0.178
		l-0.662-0.253l0.077-0.468h1.462c0.118,0,0.177,0.063,0.177,0.194v0.624c0.377-0.324,0.824-0.582,1.345-0.77
		c0.521-0.188,1.17-0.282,1.948-0.282c1.237,0,2.131,0.282,2.684,0.848c0.551,0.565,0.827,1.492,0.827,2.777v5.129
		c0,0.092,0.039,0.148,0.118,0.176l0.664,0.254l-0.079,0.468h-1.462c-0.117,0-0.178-0.063-0.178-0.194V112.081z"/>
	<path fill="#FFFFFF" d="M153.147,111.009c0-0.846,0.307-1.486,0.926-1.922c0.617-0.436,1.49-0.652,2.623-0.652
		c0.559,0,1.084,0.035,1.579,0.106c0.493,0.072,0.93,0.173,1.307,0.302l-0.178,0.78c-0.389-0.143-0.812-0.251-1.269-0.322
		c-0.454-0.068-0.914-0.106-1.382-0.106c-0.91,0-1.588,0.154-2.028,0.459c-0.442,0.304-0.662,0.749-0.662,1.335
		c0,0.496,0.146,0.865,0.438,1.111c0.293,0.246,0.66,0.436,1.103,0.566c0.441,0.128,0.92,0.24,1.434,0.331
		c0.513,0.09,0.989,0.227,1.433,0.409c0.442,0.183,0.809,0.446,1.103,0.79c0.291,0.345,0.439,0.833,0.439,1.472
		c0,0.871-0.31,1.531-0.927,1.979c-0.62,0.45-1.519,0.674-2.7,0.674c-1.146,0-2.187-0.156-3.122-0.47v-0.799
		c0.976,0.338,1.998,0.507,3.062,0.507c0.937,0,1.636-0.158,2.096-0.476c0.464-0.32,0.693-0.785,0.693-1.396
		c0-0.506-0.147-0.887-0.439-1.14c-0.292-0.255-0.66-0.448-1.101-0.585c-0.442-0.137-0.922-0.251-1.443-0.343
		c-0.52-0.089-1.002-0.224-1.442-0.398c-0.444-0.176-0.81-0.433-1.103-0.771C153.292,112.113,153.147,111.632,153.147,111.009z"/>
</g>
<g>
	<path fill="#FFFFFF" d="M61.69,137.35c-0.157,0-0.276-0.003-0.36-0.01c-0.085-0.007-0.156-0.025-0.215-0.059
		c-0.058-0.032-0.114-0.084-0.166-0.155c-0.052-0.073-0.124-0.179-0.214-0.321l-4.427-6.942v11.621h-0.896v-12.245
		c0-0.092-0.039-0.148-0.117-0.175l-0.645-0.234l0.079-0.449h1.267c0.183,0,0.31,0.03,0.381,0.088c0.071,0.06,0.178,0.191,0.321,0.4
		l4.757,7.507l5.109-7.995h0.956v13.104h-0.917v-11.641l-4.796,7.507H61.69z"/>
	<path fill="#FFFFFF" d="M77.366,140.412c-0.546,0.871-1.65,1.307-3.313,1.307c-1.21,0-2.1-0.223-2.672-0.664
		c-0.572-0.442-0.859-1.124-0.859-2.047c0-0.935,0.293-1.615,0.878-2.036c0.585-0.424,1.527-0.635,2.827-0.635
		c0.572,0,1.112,0.042,1.619,0.128c0.506,0.083,0.974,0.204,1.403,0.359v-1.657c0-0.923-0.233-1.583-0.702-1.979
		c-0.467-0.396-1.247-0.596-2.339-0.596c-0.975,0-1.931,0.157-2.866,0.469v-0.799c0.454-0.143,0.926-0.25,1.413-0.321
		c0.487-0.072,0.998-0.107,1.531-0.107c1.364,0,2.349,0.266,2.954,0.798c0.604,0.534,0.907,1.397,0.907,2.595v5.362
		c0,0.092,0.038,0.148,0.117,0.175l0.662,0.254l-0.078,0.468h-1.268c-0.065,0-0.11-0.007-0.137-0.021
		c-0.026-0.012-0.039-0.062-0.039-0.154L77.366,140.412z M74.188,140.997c1.079,0,1.859-0.191,2.34-0.576
		c0.48-0.383,0.721-0.99,0.721-1.822v-1.073c-0.857-0.338-1.826-0.506-2.905-0.506c-1.026,0-1.768,0.15-2.222,0.447
		c-0.456,0.3-0.683,0.813-0.683,1.541c0,0.688,0.222,1.192,0.664,1.512C72.543,140.838,73.24,140.997,74.188,140.997z"/>
	<path fill="#FFFFFF" d="M88.402,140.606c-0.351,0.313-0.793,0.574-1.326,0.79c-0.533,0.216-1.241,0.322-2.125,0.322
		c-0.714,0-1.326-0.094-1.833-0.283c-0.507-0.188-0.926-0.48-1.257-0.876c-0.332-0.398-0.575-0.909-0.732-1.533
		c-0.156-0.624-0.234-1.371-0.234-2.241c0-0.871,0.078-1.621,0.234-2.252c0.157-0.63,0.4-1.145,0.732-1.541
		c0.331-0.396,0.75-0.689,1.257-0.877c0.507-0.189,1.118-0.282,1.833-0.282c0.846,0,1.524,0.104,2.038,0.312
		c0.514,0.208,0.939,0.553,1.277,1.033v-5.42h0.936v12.83c0,0.092,0.04,0.148,0.117,0.175l0.663,0.254l-0.078,0.468h-1.287
		c-0.065,0-0.111-0.011-0.135-0.03c-0.027-0.019-0.041-0.067-0.041-0.145L88.402,140.606z M88.266,135.575
		c0-1.053-0.244-1.809-0.73-2.27c-0.488-0.463-1.291-0.693-2.408-0.693c-1.17,0-2.009,0.321-2.516,0.964
		c-0.506,0.646-0.76,1.714-0.76,3.209c0,1.481,0.253,2.545,0.76,3.187c0.507,0.645,1.346,0.967,2.516,0.967
		c1.182,0,2.229-0.326,3.139-0.975V135.575z"/>
	<path fill="#FFFFFF" d="M91.912,136.785c0-1.741,0.341-3.003,1.023-3.783c0.684-0.778,1.785-1.169,3.306-1.169
		c1.366,0,2.351,0.377,2.954,1.131c0.604,0.754,0.907,1.975,0.907,3.666v0.409h-7.273c0.026,1.391,0.351,2.392,0.975,3.002
		c0.623,0.612,1.638,0.915,3.042,0.915c0.988,0,1.962-0.154,2.924-0.466v0.799c-0.896,0.285-1.89,0.43-2.983,0.43
		c-0.858,0-1.593-0.094-2.203-0.283c-0.612-0.188-1.115-0.48-1.511-0.876c-0.397-0.398-0.688-0.909-0.877-1.533
		C92.007,138.402,91.912,137.655,91.912,136.785z M96.241,132.553c-1.183,0-2.041,0.3-2.574,0.896
		c-0.533,0.6-0.812,1.567-0.838,2.905h6.376c-0.014-0.676-0.075-1.257-0.185-1.745c-0.11-0.488-0.287-0.88-0.527-1.179
		c-0.24-0.299-0.546-0.52-0.917-0.664C97.207,132.625,96.762,132.553,96.241,132.553z"/>
	<path fill="#FFFFFF" d="M107.725,129.239c0-0.092-0.038-0.148-0.118-0.175l-0.642-0.234l0.078-0.449h9.067v0.8h-7.429v5.245h6.024
		v0.78h-6.024v5.479h7.584v0.799h-8.541V129.239z"/>
	<path fill="#FFFFFF" d="M125.255,140.412c-0.546,0.871-1.651,1.307-3.316,1.307c-1.207,0-2.099-0.223-2.672-0.664
		c-0.571-0.442-0.855-1.124-0.855-2.047c0-0.935,0.292-1.615,0.877-2.036c0.585-0.424,1.525-0.635,2.826-0.635
		c0.573,0,1.112,0.042,1.618,0.128c0.508,0.083,0.977,0.204,1.406,0.359v-1.657c0-0.923-0.234-1.583-0.703-1.979
		c-0.469-0.396-1.247-0.596-2.34-0.596c-0.974,0-1.93,0.157-2.867,0.469v-0.799c0.456-0.143,0.928-0.25,1.414-0.321
		c0.487-0.072,0.998-0.107,1.53-0.107c1.365,0,2.351,0.266,2.955,0.798c0.604,0.534,0.907,1.397,0.907,2.595v5.362
		c0,0.092,0.037,0.148,0.117,0.175l0.661,0.254l-0.078,0.468h-1.267c-0.064,0-0.11-0.007-0.138-0.021
		c-0.025-0.012-0.037-0.062-0.037-0.154L125.255,140.412z M122.075,140.997c1.079,0,1.859-0.191,2.339-0.576
		c0.484-0.383,0.725-0.99,0.725-1.822v-1.073c-0.859-0.338-1.827-0.506-2.907-0.506c-1.027,0-1.768,0.15-2.222,0.447
		c-0.456,0.3-0.682,0.813-0.682,1.541c0,0.688,0.219,1.192,0.662,1.512C120.431,140.838,121.128,140.997,122.075,140.997z"/>
	<path fill="#FFFFFF" d="M128.881,134.406c0-0.844,0.311-1.485,0.928-1.92c0.616-0.436,1.491-0.653,2.622-0.653
		c0.559,0,1.085,0.035,1.58,0.107c0.493,0.071,0.929,0.172,1.307,0.301l-0.177,0.78c-0.39-0.143-0.814-0.25-1.267-0.322
		c-0.456-0.069-0.917-0.107-1.387-0.107c-0.908,0-1.584,0.154-2.026,0.46c-0.44,0.305-0.663,0.749-0.663,1.336
		c0,0.494,0.146,0.865,0.439,1.111c0.291,0.247,0.66,0.436,1.102,0.564c0.442,0.13,0.919,0.24,1.433,0.332
		c0.513,0.09,0.991,0.227,1.433,0.41c0.442,0.181,0.809,0.444,1.103,0.788c0.292,0.346,0.438,0.836,0.438,1.472
		c0,0.872-0.31,1.533-0.926,1.98c-0.619,0.449-1.519,0.673-2.7,0.673c-1.146,0-2.185-0.156-3.121-0.47v-0.798
		c0.975,0.338,1.995,0.505,3.062,0.505c0.936,0,1.634-0.156,2.095-0.476c0.462-0.319,0.692-0.784,0.692-1.394
		c0-0.507-0.146-0.888-0.438-1.141c-0.293-0.256-0.661-0.45-1.103-0.585c-0.442-0.137-0.924-0.251-1.444-0.342
		c-0.519-0.092-1-0.225-1.441-0.4c-0.441-0.175-0.809-0.432-1.101-0.771C129.027,135.511,128.881,135.03,128.881,134.406z"/>
	<path fill="#FFFFFF" d="M141.301,142.731c-0.208,0.558-0.419,1.031-0.633,1.415c-0.213,0.383-0.447,0.694-0.703,0.936
		c-0.252,0.24-0.539,0.416-0.858,0.526c-0.316,0.111-0.69,0.167-1.119,0.167c-0.093,0-0.205-0.005-0.342-0.012
		c-0.136-0.006-0.238-0.017-0.303-0.028v-0.723c0.117,0.014,0.228,0.021,0.331,0.021s0.188,0,0.254,0
		c0.599,0,1.081-0.183,1.452-0.547c0.371-0.363,0.726-1.008,1.064-1.931l0.389-1.052l-4.094-9.438h1.032l3.511,8.247l3.041-8.247
		h0.994L141.301,142.731z"/>
</g>
</svg>
