<?xml version="1.0" encoding="utf-8"?>
<!-- Generator: Adobe Illustrator 27.3.1, SVG Export Plug-In . SVG Version: 6.00 Build 0)  -->
<svg version="1.1" id="Layer_1" xmlns="http://www.w3.org/2000/svg" xmlns:xlink="http://www.w3.org/1999/xlink" x="0px" y="0px"
	 viewBox="0 0 1920 877.4" style="enable-background:new 0 0 1920 877.4;" xml:space="preserve">
<style type="text/css">
	.st0{fill:#FFFFFF;}
	.st1{fill:none;stroke:#FFFFFF;stroke-width:5.1653;stroke-miterlimit:10;}
</style>
<g>
	<g>
		<path class="st0" d="M912.3,99.2c-2.9,0-5.5-0.2-5.5-4.2V83.9h4.8v-5.3h-4.8v-9.2h-5.3v25.7c0,7.1,5,9.6,10.8,8.8V99.2z"/>
		<path class="st0" d="M997.2,196.7h5.2v-19.2c2.9-1.9,8-1.2,8,2.3v16.8h5.2v-16.8c0-3.9,8.5-4.3,8.2,0.2v16.6h5.3v-16.8
			c0-9-12.3-10.6-16.1-4.9c-3-5.1-11.5-3.9-15.8-0.8L997.2,196.7L997.2,196.7z"/>
		<path class="st0" d="M914,267.1c-1.7,2.6-3.5,5.7-5.3,8.4l-5.4-8.4h-6.2c2.5,3.7,5.9,8.7,8.5,12.5l-8.5,12.5h6.2
			c3.9-5.8,4.7-7.2,5.4-8.4l5.3,8.4h6.2c-2.6-3.7-5.6-8.7-8.2-12.5l8.1-12.5H914z"/>
	</g>
	
		<rect x="953.4" y="93.3" transform="matrix(0.7071 -0.7071 0.7071 0.7071 188.968 713.9369)" class="st0" width="5.8" height="71.1"/>
	
		<rect x="922.3" y="237.8" transform="matrix(0.7071 -0.7071 0.7071 0.7071 110.1144 747.1515)" class="st0" width="69.2" height="5.8"/>
	<g>
		<path class="st0" d="M1047.1,218.1h-68v-68h68V218.1z M984.9,212.4h56.5v-56.5h-56.5V212.4z"/>
		<path class="st0" d="M906.9,120.7c-18.7,0-34-15.3-34-34s15.3-34,34-34c18.7,0,34,15.3,34,34S925.7,120.7,906.9,120.7z
			 M906.9,58.4c-15.6,0-28.3,12.6-28.3,28.3c0,15.6,12.6,28.2,28.2,28.2c15.6,0,28.2-12.6,28.2-28.2
			C935.1,71.1,922.5,58.4,906.9,58.4z"/>
		<path class="st0" d="M926.6,310.5h-35.8l-17.9-30.8l17.9-30.8h35.8l17.9,30.8L926.6,310.5z M894.1,304.7h29.2l14.5-25.1
			l-14.5-25.1h-29.2l-14.5,25.1L894.1,304.7z"/>
	</g>
</g>
<g>
	<circle class="st1" cx="209.7" cy="682.6" r="141.9"/>
	<circle class="st1" cx="584.8" cy="682.7" r="141.9"/>
	<circle class="st1" cx="960" cy="682.7" r="141.9"/>
	<circle class="st1" cx="1335.2" cy="682.8" r="141.9"/>
	<path class="st0" d="M268.9,737l-6.7-55.7c0,0-2.8-23.9-3.1-25.7c-0.3-1.8,0.1-7.1,0.1-7.1l4.9-36.4l1.8-13.6c0,0,0.4-2.2-1.4-2.3
		c-1.8-0.2-2.2,1.6-2.2,1.6l-0.3,2.4l-0.5-0.5l-66-5.1l0.3-1.3c0,0,0.6-1.8-1.2-2.2c-1.8-0.3-2.2,1.5-2.2,1.5l-2.4,10.8l-1.8,0.5
		l-4.9,21.7l1.4,0.6c0,0-2.2,9.6-3.2,13.8c-0.9,4.1-0.6,5.1-0.6,5.7c0,0.6,1,11.4,1,11.4s-30.7,12.1-32.2,12.8s-1.2,1.6-1.2,1.6v5.1
		c0,0,0.5,77.1,0.5,80.2s1.8,3.2,1.8,3.2c1.6-0.1,1.8-2,1.8-2l-0.6-80.8l32.1,4.1l4.8,43.8c0,0,0.2,1.5,1.8,1.3
		c1.5-0.2,1.3-1.5,1.3-1.5l-4.6-43l36,4.8l1.9,85.6c0,0,0.4,2.2,2,2.1c1.6-0.1,1.8-1.8,1.8-1.8l-1.9-88.1l1.2-2.6l15.1-8.9l12.1-3.8
		l1,0.1c0,0,7.8,66.6,8.1,68c0.2,1.4,1.2,2.1,2.4,1.8C268.9,738.7,268.9,737,268.9,737z M255.7,649.4c0,0-0.2,4.6,0,6.6
		c0.2,2,0.9,7.5,0.9,7.5s-22.3,1.3-40.6-1.2c-15.1-2.1-24.5-5.1-28.4-7.2c-1.5,0.8-1.9,0.8-1.9,0.8l-1.1-10.4c0,0-0.1-2.2,0.2-3.5
		c0.3-1.3,3.8-15.4,3.8-15.4l69.3,6.8L255.7,649.4z"/>
	<polygon class="st0" points="496.2,670.6 497.6,737.1 500.3,737.9 503.4,737.1 502.2,672.2 562.1,683.5 561.7,684.4 566,685.2 
		566,755.8 569.3,757 572.6,756 572.6,685.2 576.3,684.2 576.3,683.8 600.2,679 600.2,712.4 602.9,712.9 605.4,712.4 605.4,678 
		636.4,671.4 637.4,672.5 669,666.3 668.3,726.9 671.3,727.7 673.8,727.1 675.1,664.9 681.4,663.7 681.4,663.1 649.1,616.2 
		572.3,608.3 572.2,608.6 600.9,646.2 488.3,664.1 493.3,669.8 	"/>
	<g>
		<path class="st0" d="M926.5,701.7h-7.9l-11.3-39.1h8.4l5.6,20.4l1.2,9.1h0.5l1.3-9.1c2.2-7.1,2.8-7.9,5-15h6.5l4.7,15.1l1.6,9.5
			h0.5l1-9.5l5.7-20.5h8.4l-11.3,39.1h-7.9l-5-15.1l-0.9-4.7h-0.4c0,0-1,4.8-1,4.7L926.5,701.7z"/>
		<path class="st0" d="M964.9,662.6h8.1v39.1h-8.1V662.6z"/>
		<path class="st0" d="M991.4,701.7h-8.1v-39.1h15.4c18.7,0.1,18.5,27,0.1,27h-7.4V701.7z M998.7,670.8h-7.3V682h7.3
			C1006.7,682,1006.7,670.8,998.7,670.8z"/>
	</g>
	<g>
		<path class="st0" d="M1301.7,701.8h-7.9l-11.3-39.1h8.4l5.6,20.4l1.2,9.1h0.5l1.3-9.1c2.2-7.1,2.8-7.9,5-15h6.5l4.7,15.1l1.6,9.5
			h0.5l1-9.5l5.7-20.5h8.4l-11.3,39.1h-7.9l-5-15.1l-0.9-4.7h-0.4c0,0-1,4.8-1,4.7L1301.7,701.8z"/>
		<path class="st0" d="M1340.1,662.7h8.1v39.1h-8.1V662.7z"/>
		<path class="st0" d="M1366.5,701.8h-8.1v-39.1h15.4c18.7,0.1,18.5,27,0.1,27h-7.4V701.8z M1373.9,670.9h-7.3v11.2h7.3
			C1381.8,682.1,1382,670.9,1373.9,670.9z"/>
	</g>
	<circle class="st1" cx="1710.3" cy="682.8" r="141.9"/>
	<g>
		<path class="st0" d="M1675,701.8h-7.9l-11.3-39.1h8.4l5.6,20.4l1.2,9.1h0.5l1.3-9.1c2.2-7.1,2.8-7.9,5-15h6.5l4.7,15.1l1.6,9.5
			h0.5l1-9.5l5.7-20.5h8.4l-11.3,39.1h-7.9l-5-15.1l-0.9-4.7h-0.4c0,0-1,4.8-1,4.7L1675,701.8z"/>
		<path class="st0" d="M1713.4,662.7h8.1v39.1h-8.1V662.7z"/>
		<path class="st0" d="M1739.8,701.8h-8.1v-39.1h15.4c18.7,0.1,18.5,27,0.1,27h-7.4V701.8z M1747.2,670.9h-7.3v11.2h7.3
			C1755,682.1,1755.2,670.9,1747.2,670.9z"/>
	</g>
</g>
</svg>
