<?xml version="1.0" encoding="utf-8"?>
<!-- Generator: Adobe Illustrator 15.1.0, SVG Export Plug-In . SVG Version: 6.00 Build 0)  -->
<!DOCTYPE svg PUBLIC "-//W3C//DTD SVG 1.1//EN" "http://www.w3.org/Graphics/SVG/1.1/DTD/svg11.dtd">
<svg version="1.1" id="Layer_1" xmlns="http://www.w3.org/2000/svg" xmlns:xlink="http://www.w3.org/1999/xlink" x="0px" y="0px"
	 width="200px" height="150.311px" viewBox="0 0 200 150.311" enable-background="new 0 0 200 150.311" xml:space="preserve">
<g>
	<path fill="#FFFFFF" d="M45.212-127.257l-2.217,1.087v0.042c-3.011-6.064-16.52-5.188-16.52,2.551v12.213
		c0,7.737,13.509,8.616,16.521,2.551l2.217,1.087c-3.973,8.197-21.205,6.984-21.205-3.639v-12.212
		C24.007-133.991,41.197-135.58,45.212-127.257z"/>
	<path fill="#FFFFFF" d="M51.987-132.277v9.243c1.798-0.836,3.806-1.296,5.855-1.296c4.099-0.083,8.198,2.426,8.198,6.985v14.68
		h-2.342v-14.681v-0.042c0-3.096-2.928-4.56-5.813-4.602c-1.966,0-4.057,0.418-5.897,1.171v18.152h-2.342v-29.611H51.987z"/>
	<path fill="#FFFFFF" d="M73.442-120.19l-1.589-1.506c4.433-4.852,15.391-3.722,15.391,3.848c0,4.936,0,9.41,0,14.347
		c-2.844,0.962-5.855,1.422-8.867,1.38c-4.224-0.042-7.57-2.802-7.57-7.319c0.042-7.318,8.699-8.449,14.095-5.98v-2.427
		C84.902-123.159,76.119-123.619,73.442-120.19z M84.902-113.246c-3.848-1.506-11.711-2.384-11.753,3.806
		c0,3.305,2.3,5.187,5.354,5.229c2.133,0.042,4.35-0.084,6.399-0.585V-113.246z"/>
	<path fill="#FFFFFF" d="M94.061-131.524c1.045,0,1.882,0.836,1.882,1.882c0,1.045-0.836,1.883-1.882,1.883
		s-1.882-0.836-1.882-1.883C92.178-130.688,93.015-131.524,94.061-131.524z M92.973-102.665h2.342c0-9.62,0-12.045,0-21.665h-2.342
		V-102.665z"/>
	<path fill="#FFFFFF" d="M110.288-124.413v2.342c-1.046-0.209-1.966-0.167-3.013,0.042c-2.174,0.502-4.014,1.966-4.014,4.518v14.847
		h-2.343v-14.847c0-3.765,2.718-6.148,6.065-6.817C108.113-124.581,109.117-124.539,110.288-124.413z"/>
	<path fill="#FFFFFF" d="M32.54-84.728c4.099,0.042,8.198,2.343,8.198,7.068c0,2.635,0,5.939,0,8.574
		c0,4.727-4.099,7.026-8.198,7.067c-4.099-0.041-8.239-2.342-8.239-7.067c0-2.635,0-5.939,0-8.574
		C24.3-82.384,28.441-84.686,32.54-84.728z M26.643-77.658c0,2.635,0,5.939,0,8.574c0,3.305,3.053,4.727,5.897,4.727
		c2.802,0,5.855-1.422,5.855-4.727c0-2.635,0-5.939,0-8.574c0-3.304-3.053-4.685-5.855-4.685
		C29.696-82.343,26.643-80.962,26.643-77.658z"/>
	<path fill="#FFFFFF" d="M48.39-85.23v4.853h4.685v2.342H48.39v15.559h-2.342c0-7.276,0-15.475,0-22.752
		c0-4.684,3.221-6.984,7.319-7.025v2.342C50.481-89.913,48.39-88.24,48.39-85.23z"/>
	<path fill="#FFFFFF" d="M33.042-51.9h3.597l10.707,29.611h-2.593l-3.555-9.87H28.483l-3.472,9.87h-2.593L33.042-51.9z
		 M40.319-34.626L34.84-50.06l-5.479,15.435L40.319-34.626L40.319-34.626z"/>
	<path fill="#FFFFFF" d="M58.428-22.204c-4.225,0.627-7.696-2.175-7.696-6.901c0-7.151,0-15.643,0-22.794h2.342v7.946h4.684v2.342
		h-4.684v12.506c0,3.013,2.384,5.354,5.354,4.811V-22.204z"/>
	<path fill="#FFFFFF" d="M70.138-22.204c-4.225,0.627-7.696-2.175-7.696-6.901c0-7.151,0-15.643,0-22.794h2.342v7.946h4.684v2.342
		h-4.684v12.506c0,3.013,2.384,5.354,5.354,4.811V-22.204z"/>
	<path fill="#FFFFFF" d="M75.909-28.771c-0.042,3.221,2.886,4.685,5.855,4.685c2.301,0,4.643-0.92,5.521-2.887l2.091,1.047
		c-1.297,2.802-4.475,4.183-7.612,4.183c-4.099,0-8.239-2.301-8.239-7.026c0-2.636,0-5.98,0-8.615c0-4.728,4.141-7.026,8.239-7.026
		c4.057,0,8.198,2.3,8.198,7.026v3.555v2.05H75.909V-28.771z M81.764-42.072c-2.969,0-5.897,1.464-5.855,4.602v0.084v3.555h11.71
		v-3.555v-0.084C87.62-40.608,84.692-42.072,81.764-42.072z"/>
	<path fill="#FFFFFF" d="M94.938-42.239c2.677-0.92,5.521-1.715,8.324-1.715c4.016,0.084,8.029,2.342,8.029,6.984v14.681h-2.343
		v-14.681c0-3.18-2.929-4.644-5.688-4.644c-2.342,0-4.685,0.711-5.981,1.255v18.068h-2.342L94.938-42.239L94.938-42.239z"/>
	<path fill="#FFFFFF" d="M124.508-22.204c-4.225,0.627-7.695-2.175-7.695-6.901c0-7.151,0-15.643,0-22.794h2.342v7.946h4.685v2.342
		h-4.685v12.506c0,3.013,2.385,5.354,5.354,4.811L124.508-22.204L124.508-22.204z"/>
	<path fill="#FFFFFF" d="M130.238-51.147c1.045,0,1.881,0.836,1.881,1.882c0,1.047-0.836,1.883-1.881,1.883
		c-1.047,0-1.883-0.836-1.883-1.883C128.355-50.311,129.191-51.147,130.238-51.147z M129.15-22.288h2.342c0-9.619,0-12.045,0-21.665
		h-2.342V-22.288z"/>
	<path fill="#FFFFFF" d="M145.002-44.539c4.098,0.042,8.197,2.343,8.197,7.067c0,2.637,0,5.939,0,8.574
		c0,4.728-4.1,7.026-8.197,7.068c-4.1-0.042-8.24-2.342-8.24-7.068c0-2.635,0-5.938,0-8.574
		C136.762-42.197,140.902-44.497,145.002-44.539z M139.104-37.47c0,2.636,0,5.938,0,8.573c0,3.306,3.054,4.728,5.898,4.728
		c2.801,0,5.855-1.422,5.855-4.728c0-2.635,0-5.938,0-8.573c0-3.305-3.056-4.685-5.855-4.685
		C142.156-42.155,139.104-40.775,139.104-37.47z"/>
	<path fill="#FFFFFF" d="M158.676-42.239c2.678-0.92,5.521-1.715,8.324-1.715c4.014,0.084,8.029,2.342,8.029,6.984v14.681h-2.342
		v-14.681c0-3.18-2.929-4.644-5.688-4.644c-2.345,0-4.687,0.711-5.981,1.255v18.068h-2.343L158.676-42.239L158.676-42.239z"/>
</g>
<text transform="matrix(1 0 0 1 22 207.6501)" fill="#FFFFFF" font-family="'Uni-Sans-Book'" font-size="41.8236">C</text>
<text transform="matrix(1 0 0 1 46.7588 207.6501)" fill="#FFFFFF" font-family="'Uni-Sans-Book'" font-size="41.8236">h</text>
<text transform="matrix(1 0 0 1 68.9248 207.6501)" fill="#FFFFFF" font-family="'Uni-Sans-Book'" font-size="41.8236">a</text>
<text transform="matrix(1 0 0 1 89.627 207.6501)" fill="#FFFFFF" font-family="'Uni-Sans-Book'" font-size="41.8236">i</text>
<text transform="matrix(1 0 0 1 98.3271 207.6501)" fill="#FFFFFF" font-family="'Uni-Sans-Book'" font-size="41.8236">r </text>
<text transform="matrix(1 0 0 1 22 247.8386)" fill="#FFFFFF" font-family="'Uni-Sans-Book'" font-size="41.8236">o</text>
<text transform="matrix(1 0 0 1 43.4131 247.8386)" fill="#FFFFFF" font-family="'Uni-Sans-Book'" font-size="41.8236">f </text>
<text transform="matrix(1 0 0 1 22 288.0271)" fill="#FFFFFF" font-family="'Uni-Sans-Book'" font-size="41.8236">A</text>
<text transform="matrix(1 0 0 1 47.9302 288.0271)" fill="#FFFFFF" font-family="'Uni-Sans-Book'" font-size="41.8236">tt</text>
<text transform="matrix(1 0 0 1 71.3511 288.0271)" fill="#FFFFFF" font-family="'Uni-Sans-Book'" font-size="41.8236">e</text>
<text transform="matrix(1 0 0 1 92.0122 288.0271)" fill="#FFFFFF" font-family="'Uni-Sans-Book'" font-size="41.8236">n</text>
<text transform="matrix(1 0 0 1 114.0117 288.0271)" fill="#FFFFFF" font-family="'Uni-Sans-Book'" font-size="41.8236">t</text>
<text transform="matrix(1 0 0 1 125.8047 288.0271)" fill="#FFFFFF" font-family="'Uni-Sans-Book'" font-size="41.8236">i</text>
<text transform="matrix(1 0 0 1 134.4609 288.0271)" fill="#FFFFFF" font-family="'Uni-Sans-Book'" font-size="41.8236">o</text>
<text transform="matrix(1 0 0 1 155.75 288.0271)" fill="#FFFFFF" font-family="'Uni-Sans-Book'" font-size="41.8236">n</text>
<g>
	<path fill="#FFFFFF" d="M38.287,45.927l-2.546,1.249v0.048c-3.459-6.966-18.978-5.958-18.978,2.931v14.029
		c0,8.888,15.519,9.897,18.978,2.931l2.546,1.25c-4.563,9.416-24.359,8.023-24.359-4.18V50.155
		C13.928,38.192,33.674,36.365,38.287,45.927z"/>
	<path fill="#FFFFFF" d="M46.069,40.161v10.618c2.066-0.961,4.372-1.49,6.726-1.49c4.708-0.095,9.417,2.787,9.417,8.024v16.864
		h-2.691V57.313v-0.048c0-3.556-3.363-5.238-6.679-5.285c-2.258,0-4.66,0.481-6.774,1.345v20.852h-2.69V40.161H46.069z"/>
	<path fill="#FFFFFF" d="M70.714,54.047l-1.825-1.73c5.092-5.574,17.68-4.276,17.68,4.42c0,5.669,0,10.81,0,16.479
		c-3.267,1.105-6.726,1.633-10.185,1.586c-4.853-0.048-8.696-3.219-8.696-8.408c0.047-8.408,9.993-9.706,16.191-6.871v-2.787
		C83.879,50.635,73.79,50.106,70.714,54.047z M83.879,62.022c-4.42-1.73-13.453-2.739-13.5,4.372c0,3.795,2.642,5.957,6.149,6.005
		c2.45,0.048,4.997-0.097,7.351-0.672V62.022z"/>
	<path fill="#FFFFFF" d="M94.4,41.026c1.202,0,2.162,0.961,2.162,2.163c0,1.2-0.96,2.161-2.162,2.161
		c-1.201,0-2.162-0.961-2.162-2.161C92.238,41.987,93.199,41.026,94.4,41.026z M93.15,74.177h2.691c0-11.051,0-13.837,0-24.888
		H93.15V74.177z"/>
	<path fill="#FFFFFF" d="M113.041,49.194v2.69c-1.201-0.24-2.258-0.192-3.459,0.048c-2.498,0.577-4.612,2.258-4.612,5.189v17.056
		h-2.69V57.121c0-4.324,3.122-7.063,6.966-7.832C110.544,49.002,111.695,49.05,113.041,49.194z"/>
	<path fill="#FFFFFF" d="M139.562,48.617c4.707,0.048,9.416,2.691,9.416,8.12c0,3.027,0,6.823,0,9.849
		c0,5.429-4.709,8.072-9.416,8.12c-4.71-0.048-9.466-2.691-9.466-8.12c0-3.026,0-6.822,0-9.849
		C130.096,51.308,134.852,48.665,139.562,48.617z M132.786,56.737c0,3.027,0,6.823,0,9.849c0,3.796,3.506,5.429,6.775,5.429
		c3.217,0,6.727-1.633,6.727-5.429c0-3.026,0-6.822,0-9.849c0-3.795-3.51-5.381-6.727-5.381
		C136.292,51.355,132.786,52.941,132.786,56.737z"/>
	<path fill="#FFFFFF" d="M157.769,48.041v5.573h5.38v2.691h-5.38v17.873h-2.69c0-8.36,0-17.776,0-26.136
		c0-5.38,3.699-8.024,8.407-8.072v2.691C160.172,42.66,157.769,44.582,157.769,48.041z"/>
	<path fill="#FFFFFF" d="M24.305,86.326h4.132l12.3,34.017h-2.979l-4.084-11.338H19.069l-3.988,11.338h-2.978L24.305,86.326z
		 M32.665,106.169L26.371,88.44l-6.294,17.729H32.665z"/>
	<path fill="#FFFFFF" d="M53.468,120.437c-4.853,0.722-8.84-2.496-8.84-7.926c0-8.216,0-17.969,0-26.186h2.69v9.129h5.381v2.69
		h-5.381v14.366c0,3.459,2.738,6.148,6.149,5.524V120.437z"/>
	<path fill="#FFFFFF" d="M66.92,120.437c-4.852,0.722-8.84-2.496-8.84-7.926c0-8.216,0-17.969,0-26.186h2.691v9.129h5.38v2.69h-5.38
		v14.366c0,3.459,2.738,6.148,6.149,5.524V120.437z"/>
	<path fill="#FFFFFF" d="M73.549,112.894c-0.048,3.7,3.315,5.383,6.726,5.383c2.643,0,5.333-1.058,6.342-3.315l2.402,1.201
		c-1.489,3.218-5.141,4.805-8.744,4.805c-4.708,0-9.465-2.643-9.465-8.073c0-3.026,0-6.869,0-9.896c0-5.429,4.757-8.07,9.465-8.07
		c4.66,0,9.417,2.642,9.417,8.07v4.084v2.354H73.549V112.894z M80.275,97.619c-3.411,0-6.774,1.68-6.726,5.283v0.096v4.084h13.452
		v-4.084v-0.096C87.001,99.299,83.638,97.619,80.275,97.619z"/>
	<path fill="#FFFFFF" d="M95.41,97.426c3.075-1.058,6.342-1.971,9.561-1.971c4.612,0.097,9.225,2.69,9.225,8.023v16.864h-2.691
		v-16.864c0-3.65-3.362-5.333-6.533-5.333c-2.69,0-5.382,0.816-6.871,1.441v20.756h-2.69V97.426z"/>
	<path fill="#FFFFFF" d="M129.375,120.437c-4.851,0.722-8.839-2.496-8.839-7.926c0-8.216,0-17.969,0-26.186h2.691v9.129h5.38v2.69
		h-5.38v14.366c0,3.459,2.737,6.148,6.147,5.524V120.437z"/>
	<path fill="#FFFFFF" d="M135.958,87.192c1.2,0,2.161,0.961,2.161,2.162s-0.961,2.162-2.161,2.162c-1.202,0-2.163-0.961-2.163-2.162
		S134.756,87.192,135.958,87.192z M134.709,120.343h2.689c0-11.051,0-13.837,0-24.888h-2.689V120.343z"/>
	<path fill="#FFFFFF" d="M152.918,94.782c4.707,0.049,9.416,2.691,9.416,8.12c0,3.027,0,6.822,0,9.85c0,5.43-4.709,8.071-9.416,8.12
		c-4.708-0.049-9.466-2.69-9.466-8.12c0-3.027,0-6.822,0-9.85C143.452,97.473,148.21,94.831,152.918,94.782z M146.143,102.902
		c0,3.027,0,6.822,0,9.85c0,3.796,3.506,5.43,6.775,5.43c3.218,0,6.727-1.634,6.727-5.43c0-3.027,0-6.822,0-9.85
		c0-3.794-3.509-5.38-6.727-5.38C149.648,97.522,146.143,99.108,146.143,102.902z"/>
	<path fill="#FFFFFF" d="M168.628,97.426c3.074-1.058,6.34-1.971,9.56-1.971c4.612,0.097,9.227,2.69,9.227,8.023v16.864h-2.693
		v-16.864c0-3.65-3.363-5.333-6.533-5.333c-2.69,0-5.381,0.816-6.87,1.441v20.756h-2.689V97.426z"/>
</g>
</svg>
