<?xml version="1.0" encoding="utf-8"?>
<!-- Generator: Adobe Illustrator 15.1.0, SVG Export Plug-In . SVG Version: 6.00 Build 0)  -->
<!DOCTYPE svg PUBLIC "-//W3C//DTD SVG 1.1//EN" "http://www.w3.org/Graphics/SVG/1.1/DTD/svg11.dtd">
<svg version="1.1" id="Layer_1" xmlns="http://www.w3.org/2000/svg" xmlns:xlink="http://www.w3.org/1999/xlink" x="0px" y="0px"
	 width="200px" height="150.31px" viewBox="0 0 200 150.31" enable-background="new 0 0 200 150.31" xml:space="preserve">
<g>
	<path fill="#FFFFFF" d="M45.212,22.058l-2.217,1.087v0.042C39.984,17.123,26.475,18,26.475,25.738v12.213
		c0,7.737,13.509,8.616,16.521,2.551l2.217,1.087c-3.973,8.197-21.205,6.984-21.205-3.639V25.738
		C24.007,15.324,41.197,13.735,45.212,22.058z"/>
	<path fill="#FFFFFF" d="M51.987,17.039v9.243c1.798-0.836,3.806-1.296,5.855-1.296c4.099-0.083,8.198,2.426,8.198,6.985v14.68
		h-2.342V31.97v-0.042c0-3.095-2.928-4.559-5.813-4.601c-1.966,0-4.057,0.418-5.897,1.171V46.65h-2.342V17.039H51.987z"/>
	<path fill="#FFFFFF" d="M73.442,29.126l-1.589-1.506c4.433-4.852,15.391-3.722,15.391,3.848c0,4.935,0,9.41,0,14.346
		c-2.844,0.962-5.855,1.422-8.867,1.38c-4.224-0.042-7.57-2.802-7.57-7.319c0.042-7.319,8.699-8.449,14.095-5.981v-2.426
		C84.902,26.156,76.119,25.696,73.442,29.126z M84.902,36.069c-3.848-1.506-11.711-2.384-11.753,3.806
		c0,3.304,2.3,5.186,5.354,5.228c2.133,0.042,4.35-0.084,6.399-0.585V36.069z"/>
	<path fill="#FFFFFF" d="M94.061,17.792c1.045,0,1.882,0.836,1.882,1.882c0,1.045-0.836,1.882-1.882,1.882
		c-1.046,0-1.882-0.836-1.882-1.882C92.178,18.628,93.015,17.792,94.061,17.792z M92.973,46.65h2.342c0-9.62,0-12.045,0-21.665
		h-2.342V46.65z"/>
	<path fill="#FFFFFF" d="M110.288,24.902v2.342c-1.046-0.209-1.966-0.167-3.012,0.042c-2.175,0.502-4.015,1.966-4.015,4.517V46.65
		h-2.342V31.803c0-3.764,2.718-6.148,6.065-6.817C108.113,24.734,109.117,24.776,110.288,24.902z"/>
	<path fill="#FFFFFF" d="M32.54,64.588c4.099,0.042,8.198,2.342,8.198,7.068c0,2.635,0,5.939,0,8.574
		c0,4.727-4.099,7.027-8.198,7.068c-4.099-0.041-8.239-2.342-8.239-7.068c0-2.635,0-5.939,0-8.574
		C24.3,66.931,28.441,64.63,32.54,64.588z M26.643,71.657c0,2.635,0,5.939,0,8.574c0,3.305,3.053,4.727,5.897,4.727
		c2.802,0,5.855-1.422,5.855-4.727c0-2.635,0-5.939,0-8.574c0-3.304-3.053-4.685-5.855-4.685
		C29.696,66.972,26.643,68.353,26.643,71.657z"/>
	<path fill="#FFFFFF" d="M48.39,64.086v4.852h4.685v2.342H48.39v15.559h-2.342c0-7.277,0-15.475,0-22.752
		c0-4.684,3.221-6.985,7.319-7.026v2.342C50.481,59.402,48.39,61.075,48.39,64.086z"/>
	<path fill="#FFFFFF" d="M33.042,97.416h3.597l10.707,29.611h-2.593l-3.555-9.87H28.483l-3.472,9.87h-2.593L33.042,97.416z
		 M40.319,114.689L34.84,99.256l-5.479,15.434H40.319z"/>
	<path fill="#FFFFFF" d="M58.428,127.111c-4.225,0.627-7.696-2.175-7.696-6.901c0-7.152,0-15.643,0-22.794h2.342v7.946h4.684v2.342
		h-4.684v12.506c0,3.012,2.384,5.354,5.354,4.81V127.111z"/>
	<path fill="#FFFFFF" d="M70.138,127.111c-4.225,0.627-7.696-2.175-7.696-6.901c0-7.152,0-15.643,0-22.794h2.342v7.946h4.684v2.342
		h-4.684v12.506c0,3.012,2.384,5.354,5.354,4.81V127.111z"/>
	<path fill="#FFFFFF" d="M75.909,120.545c-0.042,3.22,2.886,4.684,5.855,4.684c2.301,0,4.643-0.92,5.521-2.886l2.091,1.046
		c-1.297,2.802-4.475,4.183-7.612,4.183c-4.099,0-8.239-2.301-8.239-7.026c0-2.636,0-5.981,0-8.616c0-4.727,4.141-7.026,8.239-7.026
		c4.057,0,8.198,2.3,8.198,7.026v3.555v2.05H75.909V120.545z M81.764,107.244c-2.969,0-5.897,1.464-5.855,4.601v0.084v3.555h11.71
		v-3.555v-0.084C87.62,108.708,84.692,107.244,81.764,107.244z"/>
	<path fill="#FFFFFF" d="M94.938,107.077c2.677-0.92,5.521-1.715,8.323-1.715c4.016,0.084,8.03,2.342,8.03,6.984v14.681h-2.343
		v-14.681c0-3.179-2.928-4.643-5.688-4.643c-2.342,0-4.685,0.711-5.981,1.255v18.068h-2.342V107.077z"/>
	<path fill="#FFFFFF" d="M124.508,127.111c-4.225,0.627-7.695-2.175-7.695-6.901c0-7.152,0-15.643,0-22.794h2.342v7.946h4.684v2.342
		h-4.684v12.506c0,3.012,2.384,5.354,5.354,4.81V127.111z"/>
	<path fill="#FFFFFF" d="M130.238,98.169c1.045,0,1.881,0.836,1.881,1.882s-0.836,1.882-1.881,1.882
		c-1.047,0-1.883-0.836-1.883-1.882S129.191,98.169,130.238,98.169z M129.15,127.027h2.342c0-9.619,0-12.045,0-21.665h-2.342
		V127.027z"/>
	<path fill="#FFFFFF" d="M145.002,104.776c4.098,0.042,8.197,2.343,8.197,7.068c0,2.636,0,5.939,0,8.574
		c0,4.727-4.1,7.026-8.197,7.068c-4.1-0.042-8.24-2.342-8.24-7.068c0-2.635,0-5.938,0-8.574
		C136.762,107.119,140.902,104.818,145.002,104.776z M139.104,111.845c0,2.636,0,5.939,0,8.574c0,3.305,3.053,4.727,5.898,4.727
		c2.801,0,5.855-1.422,5.855-4.727c0-2.635,0-5.938,0-8.574c0-3.304-3.055-4.684-5.855-4.684
		C142.156,107.161,139.104,108.541,139.104,111.845z"/>
	<path fill="#FFFFFF" d="M158.676,107.077c2.678-0.92,5.521-1.715,8.324-1.715c4.014,0.084,8.029,2.342,8.029,6.984v14.681h-2.342
		v-14.681c0-3.179-2.928-4.643-5.688-4.643c-2.344,0-4.686,0.711-5.982,1.255v18.068h-2.342V107.077z"/>
</g>
<text transform="matrix(1 0 0 1 22 207.6504)"><tspan x="0" y="0" fill="#FFFFFF" font-family="'Uni-Sans-Book'" font-size="41.8236">C</tspan><tspan x="24.759" y="0" fill="#FFFFFF" font-family="'Uni-Sans-Book'" font-size="41.8236">h</tspan><tspan x="46.925" y="0" fill="#FFFFFF" font-family="'Uni-Sans-Book'" font-size="41.8236">a</tspan><tspan x="67.627" y="0" fill="#FFFFFF" font-family="'Uni-Sans-Book'" font-size="41.8236">i</tspan><tspan x="76.327" y="0" fill="#FFFFFF" font-family="'Uni-Sans-Book'" font-size="41.8236">r </tspan><tspan x="0" y="40.188" fill="#FFFFFF" font-family="'Uni-Sans-Book'" font-size="41.8236">o</tspan><tspan x="21.413" y="40.188" fill="#FFFFFF" font-family="'Uni-Sans-Book'" font-size="41.8236">f </tspan><tspan x="0" y="80.377" fill="#FFFFFF" font-family="'Uni-Sans-Book'" font-size="41.8236">A</tspan><tspan x="25.93" y="80.377" fill="#FFFFFF" font-family="'Uni-Sans-Book'" font-size="41.8236">tt</tspan><tspan x="49.351" y="80.377" fill="#FFFFFF" font-family="'Uni-Sans-Book'" font-size="41.8236">e</tspan><tspan x="70.012" y="80.377" fill="#FFFFFF" font-family="'Uni-Sans-Book'" font-size="41.8236">n</tspan><tspan x="92.011" y="80.377" fill="#FFFFFF" font-family="'Uni-Sans-Book'" font-size="41.8236">t</tspan><tspan x="103.805" y="80.377" fill="#FFFFFF" font-family="'Uni-Sans-Book'" font-size="41.8236">i</tspan><tspan x="112.461" y="80.377" fill="#FFFFFF" font-family="'Uni-Sans-Book'" font-size="41.8236">o</tspan><tspan x="133.75" y="80.377" fill="#FFFFFF" font-family="'Uni-Sans-Book'" font-size="41.8236">n</tspan></text>
</svg>
