<?xml version="1.0" encoding="utf-8"?>
<!-- Generator: Adobe Illustrator 15.1.0, SVG Export Plug-In . SVG Version: 6.00 Build 0)  -->
<!DOCTYPE svg PUBLIC "-//W3C//DTD SVG 1.1//EN" "http://www.w3.org/Graphics/SVG/1.1/DTD/svg11.dtd">
<svg version="1.1" id="Layer_1" xmlns="http://www.w3.org/2000/svg" xmlns:xlink="http://www.w3.org/1999/xlink" x="0px" y="0px"
	 width="200px" height="150.311px" viewBox="0 0 200 150.311" enable-background="new 0 0 200 150.311" xml:space="preserve">
<g>
	<defs>
		<rect id="SVGID_1_" x="0.065" y="62.174" width="199.871" height="23.712"/>
	</defs>
	<clipPath id="SVGID_2_">
		<use xlink:href="#SVGID_1_"  overflow="visible"/>
	</clipPath>
	<path clip-path="url(#SVGID_2_)" fill="#FFFFFF" d="M33.708,66.631v-4.153h-2.432v4.153c0,0.022-0.011,2.261-0.74,4.318
		l-4.125,11.896l-4.124-11.896c-0.729-2.057-0.74-4.296-0.74-4.318v-4.153h-2.432v4.153c0,0.112,0.011,2.666,0.882,5.128
		l4.894,13.821h3.041l4.894-13.821C33.696,69.297,33.708,66.743,33.708,66.631 M2.497,83.149v-7.903h9.93v-2.432h-9.93v-7.906H13.44
		v-2.431H0.065v23.103H13.44v-2.432H2.497z"/>
	<path clip-path="url(#SVGID_2_)" fill="#FFFFFF" d="M188.992,83.149v-7.903h9.932v-2.432h-9.932v-7.906h10.943v-2.431h-13.377
		v23.103h13.377v-2.432H188.992z M168.32,68.457v-0.203c0-2.016,1.631-3.649,3.646-3.649h1.318c1.732,0,3.182,1.217,3.555,2.838
		l2.332-0.7c-0.668-2.625-3.049-4.57-5.887-4.57h-1.318c-3.352,0-6.08,2.727-6.08,6.081v0.203c0,1.661,0.631,3.151,1.805,4.296
		c1.096,1.064,2.645,1.833,4.602,2.3c4.205,0.992,4.74,2.787,4.74,4.246v0.506c0,2.016-1.631,3.646-3.646,3.646h-2.027
		c-1.732,0-3.182-1.216-3.555-2.834l-2.332,0.697c0.668,2.625,3.049,4.57,5.887,4.57h2.027c3.354,0,6.078-2.725,6.078-6.08V79.3
		c0-3.346-2.227-5.574-6.615-6.618C170.781,72.195,168.32,71.061,168.32,68.457 M159.707,85.581V62.478h-2.434v18.746l-8.51-18.746
		h-3.041v23.103h2.432V66.835l8.512,18.746H159.707z M128.801,83.149v-7.903h9.93v-2.432h-9.93v-7.906h10.943v-2.431h-13.377v23.103
		h13.377v-2.432H128.801z M119.387,66.743c-0.67-2.625-3.053-4.57-5.887-4.57h-1.623c-3.354,0-6.08,2.727-6.08,6.081v11.552
		c0,3.355,2.727,6.08,6.08,6.08h1.623c2.834,0,5.217-1.945,5.887-4.57l-2.332-0.697c-0.373,1.618-1.822,2.834-3.555,2.834h-1.623
		c-2.016,0-3.646-1.631-3.646-3.646V68.254c0-2.016,1.631-3.649,3.646-3.649h1.623c1.732,0,3.182,1.217,3.555,2.838L119.387,66.743z
		 M99.008,83.149h-5.472V64.908h5.167v-2.431H85.937v2.431h5.168v18.241h-5.472v2.432h13.375V83.149z M79.553,83.149h-10.64V62.478
		h-2.432v23.103h13.071V83.149z"/>
</g>
<polygon fill="none" stroke="#00B9FF" stroke-width="0.524" stroke-miterlimit="10" points="46.75,79.733 39.149,70.969 
	40.978,69.382 46.75,76.035 53.437,68.325 61.04,77.09 59.207,78.678 53.437,72.024 "/>
</svg>
