<?xml version="1.0" encoding="utf-8"?>
<!-- Generator: Adobe Illustrator 27.3.1, SVG Export Plug-In . SVG Version: 6.00 Build 0)  -->
<svg version="1.1" id="Layer_2" xmlns="http://www.w3.org/2000/svg" xmlns:xlink="http://www.w3.org/1999/xlink" x="0px" y="0px"
	 viewBox="0 0 16 16" style="enable-background:new 0 0 16 16;" xml:space="preserve">
<style type="text/css">
	.st0{fill:#161616;}
</style>
<rect x="6" y="0" class="st0" width="4" height="1.2"/>
<rect x="3" y="1.9" class="st0" width="1" height="1"/>
<rect x="1.9" y="2.9" class="st0" width="1" height="1"/>
<rect x="1" y="3.9" class="st0" width="1" height="2"/>
<rect y="5.9" class="st0" width="1" height="4.1"/>
<rect x="12" y="1.9" transform="matrix(-1 -4.444235e-11 4.444235e-11 -1 24.9762 4.8944)" class="st0" width="1" height="1"/>
<rect x="13" y="2.9" transform="matrix(-1 -4.531410e-11 4.531410e-11 -1 27.0636 6.8944)" class="st0" width="1" height="1"/>
<rect x="13.9" y="3.9" transform="matrix(-1 -4.444235e-11 4.444235e-11 -1 28.8945 9.8763)" class="st0" width="1" height="2"/>
<rect x="15" y="5.9" transform="matrix(-1 -4.531410e-11 4.531410e-11 -1 30.9563 16)" class="st0" width="1" height="4.1"/>
<rect x="4" y="1" class="st0" width="2" height="1"/>
<rect x="10" y="1" class="st0" width="2" height="1"/>
<rect x="6" y="14.8" class="st0" width="4" height="1.2"/>
<rect x="3" y="13.1" class="st0" width="1" height="1"/>
<rect x="1.9" y="12.1" class="st0" width="1" height="1"/>
<rect x="3.9" y="8.9" class="st0" width="1" height="1"/>
<polygon class="st0" points="5,4.9 4,4.9 4,5.9 4,5.9 4,6.9 5,6.9 6.1,6.9 6.1,5.9 6.1,5.9 6.1,4.9 "/>
<polygon class="st0" points="11,4.9 9.9,4.9 9.9,5.9 9.9,5.9 9.9,6.9 11,6.9 12,6.9 12,5.9 12,5.9 12,4.9 "/>
<rect x="5" y="9.9" class="st0" width="1" height="1"/>
<rect x="10" y="9.9" class="st0" width="1" height="1"/>
<rect x="11" y="8.9" class="st0" width="1" height="1"/>
<rect x="6" y="10.9" class="st0" width="3.9" height="1"/>
<rect x="1" y="10.1" class="st0" width="1" height="2"/>
<rect x="12" y="13.1" transform="matrix(-1 4.357080e-11 -4.357080e-11 -1 24.9762 27.1056)" class="st0" width="1" height="1"/>
<rect x="13" y="12.1" transform="matrix(-1 4.531385e-11 -4.531385e-11 -1 27.0636 25.1056)" class="st0" width="1" height="1"/>
<rect x="13.9" y="10.1" transform="matrix(-1 4.357080e-11 -4.357080e-11 -1 28.8945 22.1237)" class="st0" width="1" height="2"/>
<rect x="4" y="14" class="st0" width="2" height="1"/>
<rect x="10" y="14" class="st0" width="2" height="1"/>
</svg>
