<?xml version="1.0" encoding="utf-8"?>
<!-- Generator: Adobe Illustrator 25.2.3, SVG Export Plug-In . SVG Version: 6.00 Build 0)  -->
<svg version="1.1" id="Layer_1" xmlns="http://www.w3.org/2000/svg" xmlns:xlink="http://www.w3.org/1999/xlink" x="0px" y="0px"
	 viewBox="0 0 200 150.3" style="enable-background:new 0 0 200 150.3;" xml:space="preserve">
<style type="text/css">
	.st0{fill:#FFFFFF;}
</style>
<g>
	<g>
		<polygon class="st0" points="6,59.5 6,62.6 11.9,62.6 11.9,65.5 6,65.5 6,71.6 2.7,71.6 2.7,56.5 14.7,56.5 14.7,59.5 		"/>
		<polygon class="st0" points="29.7,71.6 17.1,71.6 17.1,56.5 29.5,56.5 29.1,59.4 20.4,59.4 20.4,62.4 26.4,62.4 26.4,65.3 
			20.4,65.3 20.4,68.8 29.3,68.8 		"/>
		<polygon class="st0" points="44.7,71.6 32.1,71.6 32.1,56.5 44.5,56.5 44.1,59.4 35.4,59.4 35.4,62.4 41.4,62.4 41.4,65.3 
			35.4,65.3 35.4,68.8 44.3,68.8 		"/>
		<polygon class="st0" points="58.9,68.7 58.9,71.6 47.1,71.6 47.1,56.5 50.4,56.5 50.4,68.7 		"/>
		<polygon class="st0" points="79.2,59.5 74.2,59.5 74.2,71.6 70.9,71.6 70.9,59.5 65.9,59.5 65.9,56.5 79.2,56.5 		"/>
		<polygon class="st0" points="95.9,56.5 95.9,71.6 92.6,71.6 92.6,64.9 84.9,64.9 84.9,71.6 81.6,71.6 81.6,56.5 84.9,56.5 
			84.9,62 92.6,62 92.6,56.5 		"/>
		<polygon class="st0" points="112.1,71.6 99.5,71.6 99.5,56.5 111.9,56.5 111.5,59.4 102.8,59.4 102.8,62.4 108.8,62.4 108.8,65.3 
			102.8,65.3 102.8,68.8 111.7,68.8 		"/>
		<polygon class="st0" points="124.1,59.5 124.1,62.6 130.1,62.6 130.1,65.5 124.1,65.5 124.1,71.6 120.8,71.6 120.8,56.5 
			132.8,56.5 132.8,59.5 		"/>
		<path class="st0" d="M148.6,60c-0.7-1.2-1.6-2.1-2.9-2.8c-1.2-0.7-2.6-1-4.2-1c-1.6,0-2.9,0.3-4.2,1c-1.2,0.7-2.2,1.6-2.9,2.8
			c-0.7,1.2-1,2.5-1,4c0,1.5,0.3,2.9,1,4c0.7,1.2,1.6,2.1,2.9,2.8c1.2,0.7,2.6,1,4.2,1c1.6,0,2.9-0.3,4.2-1c1.2-0.7,2.2-1.6,2.9-2.8
			c0.7-1.2,1-2.5,1-4C149.7,62.6,149.3,61.2,148.6,60z M145.7,66.6c-0.4,0.7-0.9,1.3-1.7,1.7c-0.7,0.4-1.5,0.6-2.4,0.6
			c-0.9,0-1.7-0.2-2.4-0.6c-0.7-0.4-1.3-1-1.7-1.7c-0.4-0.7-0.6-1.6-0.6-2.5c0-0.9,0.2-1.8,0.6-2.5c0.4-0.7,0.9-1.3,1.7-1.7
			c0.7-0.4,1.5-0.6,2.4-0.6c0.9,0,1.7,0.2,2.4,0.6c0.7,0.4,1.3,1,1.7,1.7c0.4,0.7,0.6,1.6,0.6,2.5C146.3,65,146.1,65.9,145.7,66.6z"
			/>
		<path class="st0" d="M162.6,65.6c0.9-0.3,1.7-0.9,2.2-1.7c0.5-0.8,0.8-1.7,0.8-2.7c0-0.9-0.2-1.6-0.6-2.3
			c-0.4-0.7-0.9-1.3-1.7-1.7c-0.7-0.4-1.6-0.6-2.5-0.6h-8.4v15.1h3.2v-5.8h3.4l3.8,5.8h3.8L162.6,65.6z M161.7,62.5
			c-0.4,0.3-0.8,0.5-1.5,0.5h-4.6v-3.5h4.6c0.6,0,1.1,0.2,1.5,0.5c0.4,0.3,0.5,0.7,0.5,1.3C162.3,61.7,162.1,62.2,161.7,62.5z"/>
		<path class="st0" d="M171.9,70.9c-1.3-0.7-2.3-1.6-3-2.8c-0.7-1.2-1.1-2.5-1.1-4c0-1.5,0.4-2.8,1.1-4c0.7-1.2,1.7-2.1,3-2.8
			c1.3-0.7,2.7-1,4.3-1c1.2,0,2.4,0.2,3.4,0.6c1.1,0.4,1.9,1,2.6,1.8l-2.1,2.3c-0.6-0.6-1.2-1-1.8-1.3c-0.6-0.3-1.3-0.4-2.1-0.4
			c-1,0-1.8,0.2-2.6,0.6c-0.8,0.4-1.4,1-1.8,1.7c-0.4,0.7-0.7,1.6-0.7,2.5c0,0.9,0.2,1.7,0.7,2.5c0.4,0.7,1.1,1.3,1.8,1.7
			c0.8,0.4,1.7,0.6,2.6,0.6c1.5,0,2.9-0.6,4-1.7l2.1,2.2c-0.7,0.8-1.6,1.4-2.6,1.8c-1.1,0.4-2.2,0.6-3.4,0.6
			C174.6,71.9,173.2,71.6,171.9,70.9z"/>
		<polygon class="st0" points="197.3,71.6 184.7,71.6 184.7,56.5 197.1,56.5 196.7,59.4 188,59.4 188,62.4 194,62.4 194,65.3 
			188,65.3 188,68.8 196.9,68.8 		"/>
	</g>
	<g>
		<polygon class="st0" points="64.5,93.8 62.5,93.8 62.5,81.2 56.8,93.5 55.3,93.5 49.7,81.5 49.7,93.8 47.6,93.8 47.6,78.7 
			50.5,78.7 56.1,90.7 61.7,78.7 64.5,78.7 		"/>
		<path class="st0" d="M75.9,78.7h-2.6L67,93.8h2.2l1.6-4h7.5l1.6,4h2.2L75.9,78.7z M71.5,87.9l3-7.5l3,7.5H71.5z"/>
		<path class="st0" d="M87,93c-1.3-0.7-2.3-1.6-3-2.8c-0.7-1.2-1.1-2.5-1.1-4c0-1.5,0.4-2.8,1.1-4c0.7-1.2,1.7-2.1,3-2.8
			c1.3-0.7,2.7-1,4.2-1c1.1,0,2.2,0.2,3.2,0.6s1.8,0.9,2.5,1.6L95.6,82c-0.6-0.6-1.2-1-2-1.3c-0.7-0.3-1.5-0.4-2.4-0.4
			c-1.1,0-2.1,0.3-3,0.8c-0.9,0.5-1.7,1.2-2.2,2.1c-0.5,0.9-0.8,1.9-0.8,3c0,1.1,0.3,2.1,0.8,3c0.5,0.9,1.3,1.6,2.2,2.1
			c0.9,0.5,2,0.8,3.1,0.8c0.8,0,1.6-0.1,2.4-0.4c0.8-0.3,1.4-0.7,2-1.3l1.4,1.4c-0.7,0.7-1.5,1.3-2.5,1.6S92.5,94,91.3,94
			C89.7,94,88.3,93.7,87,93z"/>
		<polygon class="st0" points="113.2,78.7 113.2,93.8 111.1,93.8 111.1,86.6 101.7,86.6 101.7,93.8 99.6,93.8 99.6,78.7 101.7,78.7 
			101.7,84.8 111.1,84.8 111.1,78.7 		"/>
		<rect x="117.2" y="78.7" class="st0" width="2.1" height="15.1"/>
		<polygon class="st0" points="136.5,78.7 136.5,93.8 134.4,93.8 125.3,81.6 125.3,93.8 123.3,93.8 123.3,78.7 125.5,78.7 
			134.5,90.7 134.5,78.7 		"/>
		<polygon class="st0" points="152.4,93.8 140.4,93.8 140.4,78.7 152.2,78.7 151.8,80.5 142.5,80.5 142.5,85 148.9,85 148.9,86.8 
			142.5,86.8 142.5,91.9 152,91.9 		"/>
	</g>
	<g>
		<g>
			<rect x="2.2" y="84.7" class="st0" width="39.8" height="3.1"/>
		</g>
		<g>
			<rect x="158" y="84.7" class="st0" width="39.8" height="3.1"/>
		</g>
	</g>
</g>
</svg>
