<?xml version="1.0" encoding="utf-8"?>
<!-- Generator: Adobe Illustrator 25.4.2, SVG Export Plug-In . SVG Version: 6.00 Build 0)  -->
<svg version="1.1" id="Layer_1" xmlns="http://www.w3.org/2000/svg" xmlns:xlink="http://www.w3.org/1999/xlink" x="0px" y="0px"
	 viewBox="0 0 200 150.3" style="enable-background:new 0 0 200 150.3;" xml:space="preserve">
<style type="text/css">
	.st0{fill:#FFFFFF;}
</style>
<path id="path16514" class="st0" d="M119.9,44.1c-14.4,0-26.1,11.7-26.1,26.1h0c0,14.4,11.7,26.1,26.1,26.1c7.1,0,14.2-3.3,19.2-8.7
	l0,0c0.5-0.6,0.8-1.4,0.8-2.2c0-1.8-1.5-3.3-3.3-3.3c-0.9,0-1.8,0.4-2.4,1l0,0c-3.8,4.1-9.1,6.6-14.3,6.6
	c-10.8,0-19.4-8.7-19.4-19.5c0-10.8,8.7-19.5,19.4-19.5c5.2,0,10.5,2.5,14.3,6.6h0c0.6,0.7,1.5,1,2.4,1c1.8,0,3.3-1.5,3.3-3.3
	c0-0.9-0.3-1.6-0.8-2.2l0,0C134.2,47.4,127.1,44.1,119.9,44.1z M93.8,44.2l-37,0v6.4l15.3,0l0,45.5h6.4l0-45.5l15.3,0L93.8,44.2z
	 M37.3,44.3c-14.2,0-21.3,16.6-21.8,18c0,0.1-12.3,27-15.5,33.8h7.1l10.3-22.6h25.5v22.6h6.4V44.3H37.3z M150.6,44.3v51.8h6.4V73.5
	h25.5l10.3,22.6h7.1c-3.1-6.8-15.4-33.7-15.5-33.8c-0.6-1.3-7.6-18-21.8-18H150.6z M156.8,50.4l5.6,0c10.1,0,15.9,14,15.9,14l0.9,2
	l-1.7,0v0l-20.8,0V50.4z M42.9,50.7v16.1H22.2v0h-1.7l0.9-2c0,0,5.8-14,15.9-14L42.9,50.7z M110.9,66.6c-2,0-3.5,1.6-3.5,3.5
	c0,1.9,1.6,3.5,3.6,3.5h0.1h25.8c2,0,3.6-1.6,3.6-3.5c0-1.9-1.6-3.5-3.6-3.5H110.9z"/>
</svg>
