<?xml version="1.0" encoding="utf-8"?>
<!-- Generator: Adobe Illustrator 26.5.2, SVG Export Plug-In . SVG Version: 6.00 Build 0)  -->
<svg version="1.1" id="Layer_1" xmlns="http://www.w3.org/2000/svg" xmlns:xlink="http://www.w3.org/1999/xlink" x="0px" y="0px"
	 viewBox="0 0 200 150.3" style="enable-background:new 0 0 200 150.3;" xml:space="preserve">
<style type="text/css">
	.st0{fill:#FFFFFF;}
</style>
<g>
	<path class="st0" d="M33.2,82.9l-5.7-12.3l18-20.5H34.2L13.9,73.7V50.2H4.5v50.5h9.4V86.1l7-7.9l4.3,9.3c3.8,8,8.9,13.5,17,13.5
		c1.3,0,2.9-0.1,4-0.4v-8.1c0,0-1,0.2-2.4,0.2C38.7,92.7,36.2,89.5,33.2,82.9z"/>
	<path class="st0" d="M87.6,91.7C81.4,78.5,77,64.6,74.5,50.2h-9.4c2.8,17.5,8.8,35.1,17.2,50.5h10.6c7.9-13.8,14.6-33.5,17.2-50.5
		h-9.3C98.3,64.6,93.8,78.5,87.6,91.7z"/>
	<rect x="50.8" y="50.2" class="st0" width="9.4" height="50.5"/>
	<path class="st0" d="M200,100.7c-3-17-9.1-35.2-17.6-50.5h-10.5c-8.5,15.3-14.7,33.5-17.7,50.5h9.4c0.6-3.8,1.4-7.6,2.3-11.5
		c2.8,0.6,6.4,1,11.2,1c4.7,0,8.4-0.4,11.2-1c0.9,3.9,1.7,7.7,2.3,11.5H200z M177.1,81.8c-3.8,0-7-0.4-9-0.8
		c2.3-7.7,5.3-15.3,9-22.5c3.7,7.1,6.7,14.8,9,22.5C184.2,81.4,180.9,81.8,177.1,81.8z"/>
	<path class="st0" d="M140,81.9c6.7-2.1,11.2-7.7,11.2-15.2c0-10.1-8.1-17.4-18.8-17.4c-10.6,0-19.5,7.1-19.5,19.2v32.2h9.4V69.2
		c0-7,4.3-11.2,10.1-11.2c5.5,0,9.3,3.8,9.3,9.2c0,6-4.6,10.5-14.9,10.5v5.6c8.3,1.9,14.1,9.2,15.1,17.4h9.7
		C150.7,92.7,145.7,85,140,81.9z"/>
</g>
</svg>
