<?xml version="1.0" encoding="utf-8"?>
<!-- Generator: Adobe Illustrator 15.1.0, SVG Export Plug-In . SVG Version: 6.00 Build 0)  -->
<!DOCTYPE svg PUBLIC "-//W3C//DTD SVG 1.1//EN" "http://www.w3.org/Graphics/SVG/1.1/DTD/svg11.dtd">
<svg version="1.1" id="Layer_1" xmlns="http://www.w3.org/2000/svg" xmlns:xlink="http://www.w3.org/1999/xlink" x="0px" y="0px"
	 width="200px" height="150.311px" viewBox="0 0 200 150.311" enable-background="new 0 0 200 150.311" xml:space="preserve">
<path fill="#FFFFFF" d="M51.151,39.196v52.547c0,1.176-0.393,1.568-1.569,1.568h-2.353c-1.176,0-1.568-0.393-1.568-1.568l0.076-32
	c0-4.235,0.236-8.862,0.944-13.881h-0.316c-1.96,4.627-3.841,8.314-6.039,12.235L28.405,79.115c-0.47,0.941-0.862,1.177-1.803,1.177
	h-1.57c-0.941,0-1.333-0.156-1.882-1.177L11.072,57.861c-2.273-3.843-3.842-7.294-5.726-12.078H5.034
	c0.627,5.177,0.862,9.569,0.862,14.039v31.921c0,1.176-0.392,1.568-1.569,1.568H2.132c-1.176,0-1.568-0.393-1.568-1.568V39.196
	c0-1.176,0.392-1.568,1.568-1.568H4.17c1.256,0,1.648,0.312,2.196,1.254l19.45,34.43L45.11,38.959
	c0.628-1.096,0.944-1.332,2.196-1.332h2.276C50.758,37.627,51.151,38.019,51.151,39.196z"/>
<path fill="#FFFFFF" d="M94.116,54.843c-0.928-0.623-1.967-1.15-3.097-1.587c-2.595-1.107-5.425-1.759-8.424-1.759
	c-3.106,0-6.053,0.669-8.725,1.849c-1.072,0.438-2.048,0.971-2.934,1.584c-5.983,3.847-9.959,10.546-9.959,18.188
	c0,7.533,3.863,14.162,9.708,18.03c0.989,0.714,2.099,1.322,3.333,1.809c2.631,1.139,5.529,1.779,8.577,1.779
	c3.106,0,6.053-0.669,8.722-1.85c0.56-0.225,1.088-0.479,1.592-0.75c0.019-0.009,0.031-0.02,0.05-0.027
	c0.493-0.268,0.962-0.562,1.405-0.873c5.925-3.855,9.853-10.524,9.853-18.118C104.217,65.416,100.178,58.674,94.116,54.843z
	 M82.594,89.506c-9.049,0-16.388-7.339-16.388-16.388c0-9.052,7.338-16.392,16.388-16.392c9.052,0,16.39,7.34,16.39,16.392
	C98.984,82.167,91.646,89.506,82.594,89.506z"/>
<path fill="#FFFFFF" d="M189.01,54.845c0,0,0,0,0-0.002c-0.239-0.159-0.495-0.299-0.748-0.449c-0.184-0.111-0.363-0.227-0.554-0.329
	c0,0,0,0-0.004-0.001c-0.14-0.075-0.293-0.14-0.441-0.213c0,0-0.002,0-0.002-0.002c0-0.001-0.003-0.001-0.003-0.001
	c-0.436-0.214-0.886-0.414-1.354-0.594c-2.593-1.104-5.42-1.757-8.417-1.757c-3.111,0-6.062,0.669-8.732,1.852h-0.003
	c-1.07,0.438-2.042,0.968-2.924,1.581c-0.002,0-0.002,0-0.002,0c-5.984,3.845-9.957,10.546-9.957,18.188
	c0,7.528,3.854,14.153,9.693,18.021c0.991,0.717,2.101,1.327,3.339,1.813c2.634,1.143,5.533,1.783,8.586,1.783
	c3.106,0,6.059-0.671,8.729-1.85c0.558-0.226,1.082-0.479,1.591-0.752c0.012-0.006,0.021-0.015,0.036-0.021
	c0.494-0.269,0.962-0.561,1.407-0.874c0.002,0,0.002-0.001,0.004-0.003c5.926-3.854,9.854-10.524,9.854-18.119
	C199.107,65.416,195.069,58.676,189.01,54.845z M177.487,89.506c-9.049,0-16.389-7.339-16.389-16.388
	c0-9.052,7.34-16.392,16.389-16.392c9.054,0,16.391,7.34,16.391,16.392C193.878,82.167,186.541,89.506,177.487,89.506z"/>
<path fill="#FFFFFF" d="M145.021,53h-2.51c-1.02,0-1.412,0.312-1.412,1.41v32.079c-2.432,0.784-6.273,2.117-11.606,2.117
	c-7.607,0-10.979-3.686-10.979-10.745V54.41c0-1.098-0.315-1.41-1.412-1.41h-2.433c-1.097,0-1.412,0.312-1.412,1.41v23.686
	c0,9.647,4.784,15.295,15.53,15.295c5.88,0,9.645-1.256,12.312-2.039v4.627c0,7.449-3.452,11.921-11.45,11.921
	c-5.962,0-8.939-2.509-10.979-6.273c-0.064-0.096-0.123-0.149-0.184-0.231l0.015-0.008c-0.738-1.24-2.439-1.803-3.677-1.065
	c-1.239,0.738-1.647,2.343-0.912,3.584l0.028-0.016c0.057,0.131,0.091,0.26,0.181,0.401c2.658,4.931,7.223,8.376,15.58,8.391
	c-0.009,0-0.018,0.002-0.027,0.002h0.056c11.92,0,16.705-6.744,16.705-16.939V54.41C146.435,53.312,146.042,53,145.021,53z"/>
</svg>
