<?xml version="1.0" encoding="utf-8"?>
<!-- Generator: Adobe Illustrator 15.1.0, SVG Export Plug-In . SVG Version: 6.00 Build 0)  -->
<!DOCTYPE svg PUBLIC "-//W3C//DTD SVG 1.1//EN" "http://www.w3.org/Graphics/SVG/1.1/DTD/svg11.dtd">
<svg version="1.1" id="Layer_1" xmlns="http://www.w3.org/2000/svg" xmlns:xlink="http://www.w3.org/1999/xlink" x="0px" y="0px"
	 width="200px" height="150.311px" viewBox="0 0 200 150.311" enable-background="new 0 0 200 150.311" xml:space="preserve">
<path fill="#FFFFFF" d="M183.934,147.449H17.104V2.863h166.83V147.449L183.934,147.449z M17.739,146.813h165.558V3.498H17.739
	V146.813L17.739,146.813z"/>
<g>
	<g>
		<g>
			<defs>
				<rect id="SVGID_1_" x="-16.478" y="-28.615" width="232.955" height="207.541"/>
			</defs>
			<clipPath id="SVGID_2_">
				<use xlink:href="#SVGID_1_"  overflow="visible"/>
			</clipPath>
			<path clip-path="url(#SVGID_2_)" fill="#FFFFFF" d="M94.425,134.49c0.227,0.274,0.342,0.634,0.342,1.075
				c0,0.445-0.12,0.806-0.356,1.081c-0.235,0.279-0.578,0.419-1.024,0.419c-0.415,0-0.749-0.133-1.005-0.396
				c-0.255-0.264-0.388-0.594-0.397-0.993h0.33c0.012,0.322,0.114,0.583,0.306,0.779c0.191,0.195,0.447,0.298,0.766,0.298
				c0.343,0,0.604-0.108,0.783-0.321c0.179-0.215,0.269-0.502,0.269-0.868c0-0.348-0.085-0.634-0.252-0.854
				c-0.167-0.22-0.417-0.331-0.749-0.331c-0.439,0-0.759,0.162-0.962,0.49h-0.399l0.104-2.384h2.439v0.303h-2.13l-0.09,1.782
				c0.206-0.331,0.553-0.495,1.039-0.495C93.868,134.077,94.198,134.213,94.425,134.49"/>
		</g>
	</g>
	<g>
		<g>
			<defs>
				<rect id="SVGID_3_" x="-16.478" y="-28.615" width="232.955" height="207.541"/>
			</defs>
			<clipPath id="SVGID_4_">
				<use xlink:href="#SVGID_3_"  overflow="visible"/>
			</clipPath>
			<path clip-path="url(#SVGID_4_)" fill="#FFFFFF" d="M98.748,134.727c0,0.974-0.177,1.631-0.527,1.968
				c-0.25,0.242-0.553,0.362-0.91,0.362c-0.359,0-0.662-0.12-0.912-0.362c-0.351-0.338-0.528-0.994-0.528-1.968
				c0-0.971,0.177-1.627,0.528-1.968c0.25-0.24,0.553-0.36,0.912-0.36c0.357,0,0.661,0.12,0.91,0.36
				C98.571,133.1,98.748,133.754,98.748,134.727 M98.404,135.376c0.01-0.171,0.016-0.387,0.016-0.651
				c0-0.26-0.006-0.478-0.016-0.646c-0.012-0.17-0.049-0.368-0.117-0.595c-0.067-0.226-0.163-0.399-0.288-0.52
				c-0.181-0.173-0.409-0.259-0.689-0.259c-0.281,0-0.51,0.086-0.691,0.259c-0.125,0.119-0.221,0.293-0.288,0.52
				c-0.067,0.229-0.104,0.425-0.117,0.595c-0.01,0.169-0.016,0.388-0.016,0.646c0,0.266,0.006,0.479,0.016,0.651
				c0.013,0.167,0.05,0.367,0.117,0.592c0.067,0.227,0.163,0.4,0.288,0.521c0.181,0.17,0.41,0.258,0.691,0.258
				c0.28,0,0.508-0.088,0.689-0.258c0.125-0.121,0.221-0.295,0.288-0.521C98.355,135.743,98.392,135.545,98.404,135.376"/>
		</g>
	</g>
	<g>
		<g>
			<defs>
				<rect id="SVGID_5_" x="-16.478" y="-28.615" width="232.955" height="207.541"/>
			</defs>
			<clipPath id="SVGID_6_">
				<use xlink:href="#SVGID_5_"  overflow="visible"/>
			</clipPath>
			<polygon clip-path="url(#SVGID_6_)" fill="#FFFFFF" points="104.623,136.974 104.293,136.974 104.293,132.88 102.621,136.907 
				102.326,136.907 100.654,132.912 100.654,136.974 100.325,136.974 100.325,132.398 100.794,132.398 102.484,136.463 
				104.145,132.398 104.623,132.398 			"/>
		</g>
	</g>
	<g>
		<g>
			<defs>
				<rect id="SVGID_7_" x="-16.478" y="-28.615" width="232.955" height="207.541"/>
			</defs>
			<clipPath id="SVGID_8_">
				<use xlink:href="#SVGID_7_"  overflow="visible"/>
			</clipPath>
			<polygon clip-path="url(#SVGID_8_)" fill="#FFFFFF" points="109.05,136.974 106.34,136.974 106.34,132.398 106.674,132.398 
				106.674,136.656 109.05,136.656 			"/>
		</g>
	</g>
	<g>
		<g>
			<defs>
				<rect id="SVGID_9_" x="-16.478" y="-28.615" width="232.955" height="207.541"/>
			</defs>
			<clipPath id="SVGID_10_">
				<use xlink:href="#SVGID_9_"  overflow="visible"/>
			</clipPath>
			<path clip-path="url(#SVGID_10_)" fill="#FFFFFF" d="M43.594,68.61c0,1.332-0.125,2.458-0.376,3.385
				c-0.251,0.922-0.737,1.741-1.456,2.46c-1.086,1.089-2.471,1.63-4.155,1.63c-1.683,0-3.066-0.541-4.153-1.63
				c-0.72-0.719-1.206-1.538-1.457-2.46c-0.253-0.926-0.377-2.053-0.377-3.385c0-1.341,0.124-2.474,0.377-3.397
				c0.251-0.925,0.736-1.743,1.457-2.465c1.086-1.084,2.47-1.628,4.153-1.628c1.684,0,3.068,0.544,4.155,1.628
				c0.719,0.722,1.205,1.54,1.456,2.465C43.468,66.136,43.594,67.267,43.594,68.61 M40.926,68.61c0-2.049-0.345-3.434-1.038-4.15
				C39.29,63.818,38.53,63.5,37.607,63.5c-0.922,0-1.683,0.317-2.281,0.959c-0.692,0.718-1.037,2.103-1.037,4.15
				c0,0.589,0.012,1.075,0.04,1.466c0.027,0.396,0.121,0.857,0.285,1.386c0.164,0.531,0.399,0.958,0.712,1.284
				c0.598,0.638,1.358,0.956,2.281,0.956s1.684-0.318,2.281-0.956c0.312-0.327,0.55-0.753,0.713-1.284
				c0.163-0.528,0.257-0.991,0.285-1.386C40.915,69.683,40.926,69.196,40.926,68.61"/>
		</g>
	</g>
	<g>
		<g>
			<defs>
				<rect id="SVGID_11_" x="-16.478" y="-28.615" width="232.955" height="207.541"/>
			</defs>
			<clipPath id="SVGID_12_">
				<use xlink:href="#SVGID_11_"  overflow="visible"/>
			</clipPath>
			<polygon clip-path="url(#SVGID_12_)" fill="#FFFFFF" points="62.592,75.818 53.268,75.818 53.268,61.384 55.894,61.384 
				55.894,73.334 62.592,73.334 			"/>
		</g>
	</g>
	<g>
		<g>
			<defs>
				<rect id="SVGID_13_" x="-16.478" y="-28.615" width="232.955" height="207.541"/>
			</defs>
			<clipPath id="SVGID_14_">
				<use xlink:href="#SVGID_13_"  overflow="visible"/>
			</clipPath>
			<path clip-path="url(#SVGID_14_)" fill="#FFFFFF" d="M82.954,68.589c0,1.223-0.11,2.3-0.334,3.238
				c-0.225,0.937-0.675,1.751-1.354,2.443c-0.991,1.033-2.343,1.546-4.052,1.546h-5.619V61.382h5.619
				c1.709,0,3.062,0.517,4.052,1.547c0.679,0.693,1.129,1.507,1.354,2.444C82.844,66.31,82.954,67.384,82.954,68.589 M80.246,70.045
				c0.029-0.374,0.041-0.856,0.041-1.456c0-0.597-0.012-1.08-0.041-1.454c-0.026-0.374-0.12-0.82-0.284-1.336
				c-0.164-0.518-0.4-0.93-0.713-1.243c-0.543-0.54-1.222-0.813-2.036-0.813H74.22v9.714h2.993c0.814,0,1.493-0.271,2.036-0.814
				c0.312-0.312,0.549-0.729,0.713-1.255C80.126,70.868,80.22,70.419,80.246,70.045"/>
		</g>
	</g>
	<g>
		<g>
			<defs>
				<rect id="SVGID_15_" x="-16.478" y="-28.615" width="232.955" height="207.541"/>
			</defs>
			<clipPath id="SVGID_16_">
				<use xlink:href="#SVGID_15_"  overflow="visible"/>
			</clipPath>
			<polygon clip-path="url(#SVGID_16_)" fill="#FFFFFF" points="115.289,75.818 112.744,75.818 112.744,65.513 108.997,75.615 
				107.064,75.615 103.339,65.393 103.339,75.818 100.794,75.818 100.794,61.384 104.337,61.384 108.125,71.665 111.932,61.384 
				115.289,61.384 			"/>
		</g>
	</g>
	<g>
		<g>
			<defs>
				<rect id="SVGID_17_" x="-16.478" y="-28.615" width="232.955" height="207.541"/>
			</defs>
			<clipPath id="SVGID_18_">
				<use xlink:href="#SVGID_17_"  overflow="visible"/>
			</clipPath>
			<rect x="125.798" y="61.382" clip-path="url(#SVGID_18_)" fill="#FFFFFF" width="2.668" height="14.436"/>
		</g>
	</g>
	<g>
		<g>
			<defs>
				<rect id="SVGID_19_" x="-16.478" y="-28.615" width="232.955" height="207.541"/>
			</defs>
			<clipPath id="SVGID_20_">
				<use xlink:href="#SVGID_19_"  overflow="visible"/>
			</clipPath>
			<polygon clip-path="url(#SVGID_20_)" fill="#FFFFFF" points="148.299,75.818 138.975,75.818 138.975,61.384 141.6,61.384 
				141.6,73.334 148.299,73.334 			"/>
		</g>
	</g>
	<g>
		<g>
			<defs>
				<rect id="SVGID_21_" x="-16.478" y="-28.615" width="232.955" height="207.541"/>
			</defs>
			<clipPath id="SVGID_22_">
				<use xlink:href="#SVGID_21_"  overflow="visible"/>
			</clipPath>
			<polygon clip-path="url(#SVGID_22_)" fill="#FFFFFF" points="169.415,75.818 166.318,75.818 162.409,68.998 159.923,71.91 
				159.923,75.818 157.299,75.818 157.299,61.384 159.923,61.384 159.923,68.04 165.688,61.384 168.885,61.384 164.242,66.838 			
				"/>
		</g>
	</g>
	<g>
		<g>
			<defs>
				<rect id="SVGID_23_" x="-16.478" y="-28.615" width="232.955" height="207.541"/>
			</defs>
			<clipPath id="SVGID_24_">
				<use xlink:href="#SVGID_23_"  overflow="visible"/>
			</clipPath>
			<path clip-path="url(#SVGID_24_)" fill="#00AA46" d="M117.712,17.382c-3.05,0-5.524,1.275-6.427,3.555
				c-0.901-2.277-3.376-3.555-6.428-3.555c-2.707,0-4.962,1.007-6.066,2.829c-1.101-1.822-3.357-2.829-6.066-2.829
				c-3.857,0-6.794,2.037-6.794,5.563c0,0.891,0.189,1.682,0.533,2.373c-0.043,0.021-0.088,0.039-0.133,0.059
				c-0.175,0.069-0.368,0.134-0.579,0.199C85.221,25.72,84.62,25.8,84.019,25.8c-1.749,0-3.319-1.1-3.319-2.793
				c0-1.835,1.346-2.936,3.094-2.936c0.667,0,1.179,0.038,1.707,0.228c0,0,0.603-1.315,1.614-2.074
				c-0.194-0.09-0.397-0.181-0.617-0.27v0.003c-0.911-0.4-1.976-0.578-3.173-0.578c-3.857,0-6.794,2.037-6.794,5.563
				c0,3.506,2.937,5.544,6.794,5.544c1.018,0,2.153-0.146,3.127-0.423c0.364-0.087,1.221-0.379,1.847-0.74
				c1.175,0.759,2.709,1.163,4.427,1.163c2.709,0,4.965-1.008,6.066-2.822c1.103,1.814,3.356,2.822,6.065,2.822
				c2.707,0,4.957-1.005,6.063-2.813v5.646h4.147v-3.193c0.808,0.235,1.699,0.361,2.644,0.361c3.856,0,6.794-2.039,6.794-5.544
				C124.506,19.421,121.568,17.382,117.712,17.382 M92.725,25.923c-1.862,0-2.622-1.407-2.622-2.978c0-1.589,0.76-2.997,2.622-2.997
				c1.862,0,2.624,1.406,2.624,2.997C95.349,24.516,94.586,25.923,92.725,25.923 M104.857,25.923c-1.858,0-2.623-1.407-2.623-2.978
				c0-1.589,0.765-2.997,2.623-2.997c1.861,0,2.625,1.406,2.625,2.997C107.482,24.516,106.721,25.923,104.857,25.923
				 M117.712,25.923c-1.858,0-2.624-1.407-2.624-2.978c0-1.589,0.766-2.997,2.624-2.997c1.861,0,2.623,1.406,2.623,2.997
				C120.335,24.516,119.573,25.923,117.712,25.923"/>
		</g>
	</g>
	<g>
		<g>
			<defs>
				<rect id="SVGID_25_" x="-16.478" y="-28.615" width="232.955" height="207.541"/>
			</defs>
			<clipPath id="SVGID_26_">
				<use xlink:href="#SVGID_25_"  overflow="visible"/>
			</clipPath>
			<polygon clip-path="url(#SVGID_26_)" fill="#FFFFFF" points="72.811,98.257 68.754,98.257 68.754,91.924 72.811,91.924 
				72.811,92.372 69.229,92.372 69.229,94.694 72.383,94.694 72.383,95.142 69.229,95.142 69.229,97.811 72.811,97.811 			"/>
		</g>
	</g>
	<g>
		<g>
			<defs>
				<rect id="SVGID_27_" x="-16.478" y="-28.615" width="232.955" height="207.541"/>
			</defs>
			<clipPath id="SVGID_28_">
				<use xlink:href="#SVGID_27_"  overflow="visible"/>
			</clipPath>
			<path clip-path="url(#SVGID_28_)" fill="#FFFFFF" d="M79.546,98.257h-0.474l-0.644-1.669h-3.063l-0.625,1.669h-0.483l2.402-6.333
				h0.456L79.546,98.257z M78.26,96.15l-1.377-3.58l-1.348,3.58H78.26z"/>
		</g>
	</g>
	<g>
		<g>
			<defs>
				<rect id="SVGID_29_" x="-16.478" y="-28.615" width="232.955" height="207.541"/>
			</defs>
			<clipPath id="SVGID_30_">
				<use xlink:href="#SVGID_29_"  overflow="visible"/>
			</clipPath>
			<path clip-path="url(#SVGID_30_)" fill="#FFFFFF" d="M85.717,95.936c0,0.728-0.191,1.314-0.576,1.768
				c-0.385,0.447-0.942,0.672-1.674,0.672c-0.732,0-1.29-0.225-1.671-0.672c-0.381-0.452-0.572-1.039-0.572-1.768v-4.012h0.466
				v4.019c0,0.585,0.148,1.061,0.446,1.43c0.298,0.369,0.741,0.555,1.33,0.555c0.59,0,1.035-0.186,1.336-0.555
				c0.3-0.369,0.449-0.845,0.449-1.43v-4.019h0.465L85.717,95.936L85.717,95.936z"/>
		</g>
	</g>
	<g>
		<g>
			<defs>
				<rect id="SVGID_31_" x="-16.478" y="-28.615" width="232.955" height="207.541"/>
			</defs>
			<clipPath id="SVGID_32_">
				<use xlink:href="#SVGID_31_"  overflow="visible"/>
			</clipPath>
			<path clip-path="url(#SVGID_32_)" fill="#FFFFFF" d="M95.703,95.086c0,0.561-0.049,1.048-0.146,1.464
				c-0.099,0.419-0.305,0.779-0.622,1.082c-0.427,0.416-0.962,0.625-1.599,0.625h-2.1v-6.333h2.1c0.636,0,1.172,0.209,1.599,0.628
				c0.316,0.302,0.523,0.662,0.622,1.079C95.653,94.049,95.703,94.533,95.703,95.086 M95.109,96.388
				c0.081-0.372,0.12-0.806,0.12-1.3c0-0.493-0.039-0.927-0.12-1.299s-0.252-0.686-0.514-0.936
				c-0.333-0.313-0.753-0.473-1.259-0.473h-1.634v5.421h1.634c0.506,0,0.927-0.156,1.259-0.471
				C94.857,97.073,95.028,96.76,95.109,96.388"/>
		</g>
	</g>
	<g>
		<g>
			<defs>
				<rect id="SVGID_33_" x="-16.478" y="-28.615" width="232.955" height="207.541"/>
			</defs>
			<clipPath id="SVGID_34_">
				<use xlink:href="#SVGID_33_"  overflow="visible"/>
			</clipPath>
			<path clip-path="url(#SVGID_34_)" fill="#FFFFFF" d="M98.391,92.737c0,0.514-0.226,0.876-0.679,1.09l-0.152-0.249
				c0.191-0.102,0.321-0.215,0.393-0.336c0.072-0.121,0.108-0.292,0.108-0.515h-0.492v-0.804h0.822V92.737z"/>
		</g>
	</g>
	<g>
		<g>
			<defs>
				<rect id="SVGID_35_" x="-16.478" y="-28.615" width="232.955" height="207.541"/>
			</defs>
			<clipPath id="SVGID_36_">
				<use xlink:href="#SVGID_35_"  overflow="visible"/>
			</clipPath>
			<path clip-path="url(#SVGID_36_)" fill="#FFFFFF" d="M104.98,93.573c0.104,0.438,0.156,0.941,0.156,1.515
				c0,0.571-0.054,1.078-0.156,1.521c-0.106,0.44-0.317,0.813-0.642,1.125c-0.446,0.43-0.985,0.643-1.626,0.643
				c-0.639,0-1.179-0.213-1.625-0.643c-0.32-0.312-0.533-0.685-0.641-1.125c-0.103-0.441-0.155-0.948-0.155-1.521
				s0.051-1.077,0.155-1.515c0.108-0.438,0.321-0.812,0.641-1.121c0.446-0.43,0.986-0.643,1.625-0.643
				c0.641,0,1.18,0.213,1.626,0.643C104.663,92.762,104.874,93.135,104.98,93.573 M104.652,95.086c0-0.328-0.01-0.604-0.026-0.827
				c-0.019-0.222-0.079-0.481-0.185-0.781c-0.103-0.296-0.252-0.538-0.441-0.722c-0.339-0.328-0.768-0.492-1.286-0.492
				c-0.521,0-0.948,0.164-1.284,0.492c-0.189,0.184-0.341,0.426-0.441,0.722c-0.104,0.3-0.166,0.561-0.184,0.781
				c-0.02,0.223-0.027,0.499-0.027,0.827c0,0.336,0.009,0.609,0.027,0.833c0.018,0.219,0.078,0.479,0.184,0.779
				c0.102,0.299,0.252,0.543,0.441,0.727c0.34,0.328,0.769,0.493,1.284,0.493c0.521,0,0.948-0.165,1.286-0.493
				c0.189-0.184,0.34-0.428,0.441-0.727c0.104-0.302,0.166-0.562,0.185-0.779C104.645,95.698,104.652,95.422,104.652,95.086"/>
		</g>
	</g>
	<g>
		<g>
			<defs>
				<rect id="SVGID_37_" x="-16.478" y="-28.615" width="232.955" height="207.541"/>
			</defs>
			<clipPath id="SVGID_38_">
				<use xlink:href="#SVGID_37_"  overflow="visible"/>
			</clipPath>
			<path clip-path="url(#SVGID_38_)" fill="#FFFFFF" d="M111.977,95.086c0,0.561-0.049,1.048-0.146,1.464
				c-0.101,0.419-0.306,0.779-0.622,1.082c-0.427,0.416-0.963,0.625-1.6,0.625h-2.098v-6.333h2.098c0.637,0,1.173,0.209,1.6,0.628
				c0.316,0.302,0.521,0.662,0.622,1.079C111.928,94.049,111.977,94.533,111.977,95.086 M111.385,96.388
				c0.08-0.372,0.119-0.806,0.119-1.3c0-0.493-0.039-0.927-0.119-1.299c-0.082-0.372-0.253-0.686-0.517-0.936
				c-0.333-0.313-0.753-0.473-1.259-0.473h-1.635v5.421h1.635c0.506,0,0.926-0.156,1.259-0.471
				C111.132,97.073,111.303,96.76,111.385,96.388"/>
		</g>
	</g>
	<g>
		<g>
			<defs>
				<rect id="SVGID_39_" x="-16.478" y="-28.615" width="232.955" height="207.541"/>
			</defs>
			<clipPath id="SVGID_40_">
				<use xlink:href="#SVGID_39_"  overflow="visible"/>
			</clipPath>
			<polygon clip-path="url(#SVGID_40_)" fill="#FFFFFF" points="118.409,98.257 114.354,98.257 114.354,91.924 118.409,91.924 
				118.409,92.372 114.827,92.372 114.827,94.694 117.98,94.694 117.98,95.142 114.827,95.142 114.827,97.811 118.409,97.811 			"/>
		</g>
	</g>
	<g>
		<g>
			<defs>
				<rect id="SVGID_41_" x="-16.478" y="-28.615" width="232.955" height="207.541"/>
			</defs>
			<clipPath id="SVGID_42_">
				<use xlink:href="#SVGID_41_"  overflow="visible"/>
			</clipPath>
			<path clip-path="url(#SVGID_42_)" fill="#FFFFFF" d="M125.124,95.936c0,0.728-0.188,1.314-0.575,1.768
				c-0.387,0.447-0.943,0.672-1.675,0.672s-1.29-0.225-1.669-0.672c-0.383-0.452-0.575-1.039-0.575-1.768v-4.012h0.468v4.019
				c0,0.585,0.146,1.061,0.445,1.43c0.298,0.369,0.741,0.555,1.331,0.555c0.591,0,1.034-0.186,1.337-0.555
				c0.301-0.369,0.449-0.845,0.449-1.43v-4.019h0.467v4.012H125.124z"/>
		</g>
	</g>
	<g>
		<g>
			<defs>
				<rect id="SVGID_43_" x="-16.478" y="-28.615" width="232.955" height="207.541"/>
			</defs>
			<clipPath id="SVGID_44_">
				<use xlink:href="#SVGID_43_"  overflow="visible"/>
			</clipPath>
			<path clip-path="url(#SVGID_44_)" fill="#FFFFFF" d="M132.279,93.748c0,0.41-0.119,0.771-0.354,1.075
				c-0.238,0.307-0.558,0.516-0.959,0.619l1.287,2.815h-0.51l-1.241-2.698h-2.209v2.698h-0.463v-6.333h2.313
				c0.68,0,1.203,0.165,1.574,0.491C132.093,92.745,132.279,93.188,132.279,93.748 M131.365,94.774
				c0.287-0.236,0.434-0.582,0.434-1.026c0-0.447-0.146-0.79-0.434-1.026c-0.289-0.238-0.696-0.358-1.219-0.358h-1.851v2.771h1.851
				C130.669,95.131,131.076,95.012,131.365,94.774"/>
		</g>
	</g>
</g>
</svg>
