<?xml version="1.0" encoding="utf-8"?>
<!-- Generator: Adobe Illustrator 15.1.0, SVG Export Plug-In . SVG Version: 6.00 Build 0)  -->
<!DOCTYPE svg PUBLIC "-//W3C//DTD SVG 1.1//EN" "http://www.w3.org/Graphics/SVG/1.1/DTD/svg11.dtd">
<svg version="1.1" id="Layer_1" xmlns="http://www.w3.org/2000/svg" xmlns:xlink="http://www.w3.org/1999/xlink" x="0px" y="0px"
	 width="200px" height="150.311px" viewBox="0 0 200 150.311" enable-background="new 0 0 200 150.311" xml:space="preserve">
<line fill="none" stroke="#C9C9C9" stroke-width="5" stroke-miterlimit="10" x1="46.833" y1="75.155" x2="153.167" y2="75.155"/>
<g>
	<g id="XMLID_1_">
		<g>
			<path fill="#FFFFFF" d="M152.68,22.475c13.48,13.48,21.82,32.11,21.82,52.68c0,20.57-8.34,39.2-21.82,52.68l-26.399-26.399
				c6.729-6.73,10.89-16.021,10.89-26.28s-4.16-19.55-10.89-26.28L152.68,22.475z"/>
			<path fill="#FFFFFF" d="M73.72,101.435l-26.4,26.399C33.84,114.355,25.5,95.725,25.5,75.155c0-20.57,8.34-39.2,21.82-52.68
				l26.4,26.4c-6.73,6.73-10.89,16.02-10.89,26.28S66.99,94.705,73.72,101.435z"/>
			<path fill="#E20000" d="M152.68,22.475l-26.399,26.4c-6.73-6.73-16.021-10.89-26.28-10.89s-19.55,4.16-26.28,10.89l-26.4-26.4
				C60.8,8.995,79.43,0.655,100,0.655C120.57,0.655,139.2,8.995,152.68,22.475z"/>
			<path fill="#E20000" d="M126.28,101.435l26.399,26.399c-13.479,13.48-32.109,21.82-52.68,21.82c-20.57,0-39.2-8.34-52.68-21.82
				l26.4-26.399c6.73,6.729,16.02,10.89,26.28,10.89S119.55,108.165,126.28,101.435z"/>
		</g>
		<g>
		</g>
	</g>
</g>
</svg>
