<?xml version="1.0" encoding="utf-8"?>
<!-- Generator: Adobe Illustrator 15.1.0, SVG Export Plug-In . SVG Version: 6.00 Build 0)  -->
<!DOCTYPE svg PUBLIC "-//W3C//DTD SVG 1.1//EN" "http://www.w3.org/Graphics/SVG/1.1/DTD/svg11.dtd">
<svg version="1.1" id="Layer_1" xmlns="http://www.w3.org/2000/svg" xmlns:xlink="http://www.w3.org/1999/xlink" x="0px" y="0px"
	 width="200px" height="150.311px" viewBox="0 0 200 150.311" enable-background="new 0 0 200 150.311" xml:space="preserve">
<g>
	
		<line fill="none" stroke="#C9C9C9" stroke-width="3.7712" stroke-miterlimit="10" x1="59.818" y1="56.192" x2="140.021" y2="56.192"/>
	<g>
		<g id="XMLID_1_">
			<g>
				<path fill="#FFFFFF" d="M139.652,16.458c10.166,10.168,16.457,24.22,16.457,39.733c0,15.516-6.291,29.566-16.457,39.734
					l-19.911-19.912c5.075-5.076,8.214-12.083,8.214-19.821s-3.139-14.747-8.214-19.821L139.652,16.458z"/>
				<path fill="#FFFFFF" d="M80.098,76.014L60.185,95.925C50.018,85.758,43.728,71.707,43.728,56.192
					c0-15.514,6.29-29.565,16.458-39.733L80.098,36.37c-5.076,5.075-8.214,12.083-8.214,19.82
					C71.884,63.931,75.021,70.938,80.098,76.014z"/>
				<path fill="#E20000" d="M139.652,16.458L119.741,36.37c-5.076-5.077-12.084-8.216-19.821-8.216
					c-7.737,0-14.746,3.139-19.822,8.216L60.186,16.458C70.353,6.291,84.404,0,99.919,0C115.434,0,129.484,6.291,139.652,16.458z"/>
				<path fill="#E20000" d="M119.74,76.014l19.912,19.911c-10.168,10.167-24.219,16.457-39.734,16.457
					c-15.515,0-29.566-6.29-39.733-16.457l19.912-19.911c5.077,5.074,12.083,8.214,19.822,8.214
					C107.657,84.228,114.664,81.089,119.74,76.014z"/>
			</g>
		</g>
	</g>
</g>
<g>
	<path d="M3.93,122.641h16.762v3.132h-6.583v17.574h-3.625v-17.574H3.93V122.641z"/>
	<path d="M22.635,122.641h3.306v7.686h0.058c0.406-0.677,1.01-1.241,1.812-1.696c0.802-0.454,1.696-0.682,2.683-0.682
		c1.643,0,2.938,0.426,3.886,1.275c0.948,0.851,1.421,2.127,1.421,3.828v10.295h-3.306v-9.425c-0.039-1.18-0.29-2.035-0.754-2.566
		c-0.464-0.531-1.189-0.798-2.175-0.798c-0.561,0-1.063,0.103-1.508,0.305c-0.445,0.203-0.822,0.483-1.131,0.842
		c-0.31,0.357-0.551,0.777-0.725,1.262c-0.174,0.483-0.261,0.996-0.261,1.537v8.845h-3.306V122.641L22.635,122.641z"/>
	<path d="M41.861,136.706c0,0.58,0.082,1.141,0.247,1.682c0.164,0.541,0.411,1.015,0.74,1.421c0.329,0.406,0.744,0.73,1.247,0.973
		c0.502,0.241,1.102,0.361,1.798,0.361c0.966,0,1.745-0.207,2.334-0.623s1.029-1.039,1.319-1.871h3.132
		c-0.174,0.812-0.474,1.537-0.899,2.176c-0.425,0.639-0.938,1.175-1.537,1.609c-0.6,0.436-1.271,0.765-2.016,0.985
		c-0.745,0.223-1.522,0.334-2.334,0.334c-1.18,0-2.224-0.193-3.132-0.58c-0.909-0.387-1.678-0.928-2.306-1.624
		s-1.102-1.527-1.421-2.494c-0.319-0.967-0.479-2.03-0.479-3.189c0-1.062,0.169-2.073,0.507-3.03s0.822-1.798,1.45-2.522
		c0.628-0.726,1.387-1.301,2.276-1.726c0.889-0.425,1.895-0.639,3.016-0.639c1.179,0,2.237,0.246,3.175,0.739
		s1.716,1.146,2.334,1.957c0.619,0.812,1.068,1.745,1.349,2.799c0.28,1.055,0.353,2.143,0.217,3.264L41.861,136.706L41.861,136.706z
		 M49.575,134.531c-0.039-0.521-0.15-1.024-0.333-1.509c-0.184-0.481-0.435-0.902-0.754-1.262c-0.319-0.357-0.706-0.646-1.16-0.869
		c-0.455-0.223-0.962-0.334-1.522-0.334c-0.58,0-1.107,0.103-1.581,0.305c-0.474,0.203-0.88,0.483-1.218,0.842
		c-0.338,0.357-0.609,0.777-0.812,1.262c-0.203,0.483-0.314,1.005-0.333,1.565H49.575z"/>
	<path d="M66.308,136.445c0,0.793,0.135,1.471,0.406,2.03c0.271,0.562,0.648,1.021,1.131,1.378c0.483,0.357,1.039,0.618,1.667,0.782
		c0.628,0.165,1.31,0.247,2.044,0.247c0.792,0,1.469-0.092,2.03-0.275s1.015-0.421,1.363-0.711c0.348-0.29,0.599-0.623,0.754-1
		c0.154-0.377,0.232-0.759,0.232-1.146c0-0.793-0.179-1.378-0.537-1.755s-0.75-0.644-1.174-0.798
		c-0.735-0.271-1.59-0.526-2.566-0.77c-0.977-0.241-2.18-0.555-3.611-0.942c-0.889-0.23-1.629-0.535-2.218-0.912
		c-0.59-0.378-1.059-0.799-1.407-1.263c-0.348-0.464-0.594-0.957-0.739-1.479c-0.145-0.522-0.217-1.055-0.217-1.597
		c0-1.044,0.217-1.946,0.652-2.711c0.435-0.764,1.01-1.396,1.726-1.898c0.715-0.503,1.527-0.875,2.436-1.117
		c0.908-0.241,1.827-0.362,2.755-0.362c1.083,0,2.103,0.142,3.06,0.421c0.957,0.28,1.798,0.701,2.523,1.263
		c0.725,0.561,1.3,1.252,1.726,2.072c0.425,0.822,0.638,1.773,0.638,2.856h-3.625c-0.097-1.334-0.551-2.276-1.363-2.827
		c-0.812-0.552-1.847-0.827-3.103-0.827c-0.426,0-0.86,0.044-1.305,0.131c-0.445,0.088-0.851,0.231-1.218,0.436
		c-0.368,0.203-0.672,0.479-0.914,0.827c-0.242,0.348-0.362,0.781-0.362,1.305c0,0.735,0.227,1.31,0.681,1.726
		s1.049,0.729,1.784,0.942c0.077,0.021,0.381,0.103,0.914,0.246c0.531,0.146,1.126,0.305,1.783,0.479
		c0.657,0.176,1.3,0.345,1.929,0.509c0.628,0.164,1.078,0.285,1.349,0.361c0.676,0.213,1.266,0.503,1.769,0.87
		c0.502,0.367,0.923,0.788,1.261,1.263c0.338,0.474,0.589,0.98,0.754,1.521c0.164,0.541,0.247,1.083,0.247,1.624
		c0,1.16-0.237,2.151-0.71,2.973c-0.474,0.821-1.098,1.493-1.871,2.017c-0.773,0.521-1.653,0.902-2.639,1.146
		c-0.986,0.241-1.992,0.362-3.016,0.362c-1.18,0-2.291-0.146-3.335-0.437c-1.044-0.289-1.953-0.733-2.726-1.334
		c-0.773-0.599-1.392-1.366-1.856-2.305c-0.464-0.938-0.706-2.045-0.725-3.321H66.308z"/>
	<path d="M94.815,140.012c0,0.406,0.053,0.696,0.16,0.87c0.106,0.174,0.314,0.261,0.624,0.261c0.097,0,0.212,0,0.348,0
		c0.135,0,0.29-0.019,0.464-0.058v2.291c-0.116,0.038-0.266,0.082-0.45,0.13c-0.184,0.049-0.373,0.092-0.565,0.131
		c-0.193,0.038-0.387,0.067-0.58,0.087c-0.193,0.021-0.358,0.029-0.493,0.029c-0.677,0-1.238-0.136-1.682-0.406
		c-0.445-0.271-0.735-0.744-0.87-1.421c-0.657,0.638-1.464,1.102-2.421,1.392s-1.88,0.437-2.77,0.437
		c-0.677,0-1.325-0.092-1.943-0.275c-0.619-0.184-1.165-0.454-1.639-0.812s-0.851-0.812-1.131-1.363
		c-0.281-0.551-0.42-1.193-0.42-1.928c0-0.929,0.169-1.684,0.507-2.264c0.338-0.579,0.783-1.032,1.334-1.361
		c0.551-0.329,1.169-0.565,1.856-0.711c0.686-0.146,1.377-0.256,2.074-0.333c0.599-0.116,1.169-0.198,1.711-0.247
		c0.541-0.048,1.02-0.13,1.436-0.246s0.744-0.295,0.986-0.537c0.242-0.241,0.362-0.604,0.362-1.087c0-0.425-0.102-0.773-0.304-1.044
		c-0.203-0.271-0.455-0.479-0.754-0.624c-0.3-0.146-0.634-0.241-1.001-0.29c-0.367-0.048-0.715-0.072-1.044-0.072
		c-0.928,0-1.692,0.193-2.291,0.58c-0.599,0.387-0.938,0.986-1.015,1.798h-3.306c0.058-0.967,0.29-1.769,0.696-2.406
		c0.406-0.639,0.923-1.149,1.552-1.537c0.628-0.387,1.338-0.656,2.131-0.812c0.792-0.154,1.604-0.231,2.436-0.231
		c0.734,0,1.459,0.077,2.175,0.231c0.715,0.155,1.358,0.406,1.928,0.754c0.57,0.349,1.029,0.798,1.377,1.35
		c0.348,0.551,0.522,1.223,0.522,2.016V140.012L94.815,140.012z M91.509,135.836c-0.503,0.329-1.122,0.525-1.856,0.595
		c-0.735,0.067-1.469,0.169-2.204,0.304c-0.348,0.06-0.687,0.142-1.015,0.247c-0.329,0.106-0.619,0.251-0.87,0.436
		s-0.449,0.426-0.594,0.726s-0.218,0.662-0.218,1.087c0,0.367,0.106,0.678,0.319,0.929c0.212,0.252,0.468,0.449,0.768,0.595
		c0.3,0.146,0.628,0.247,0.986,0.305c0.357,0.059,0.681,0.087,0.971,0.087c0.367,0,0.764-0.048,1.189-0.145
		c0.425-0.098,0.827-0.263,1.204-0.493c0.377-0.232,0.691-0.526,0.942-0.885c0.251-0.357,0.377-0.798,0.377-1.319L91.509,135.836
		L91.509,135.836z"/>
	<path d="M96.903,128.354h2.465v-1.247c0-0.946,0.116-1.715,0.349-2.306c0.231-0.589,0.541-1.044,0.928-1.362
		c0.388-0.318,0.826-0.531,1.318-0.639c0.494-0.105,1.01-0.159,1.553-0.159c1.062,0,1.836,0.068,2.32,0.203v2.581
		c-0.213-0.059-0.441-0.102-0.682-0.131c-0.242-0.028-0.527-0.043-0.855-0.043c-0.445,0-0.828,0.105-1.146,0.317
		c-0.317,0.214-0.479,0.63-0.479,1.247v1.537h2.812v2.465h-2.812v12.528h-3.306v-12.528h-2.465V128.354z"/>
	<path d="M110.098,136.706c0,0.58,0.082,1.141,0.246,1.682s0.411,1.015,0.739,1.421c0.329,0.406,0.744,0.73,1.247,0.973
		c0.503,0.241,1.104,0.361,1.798,0.361c0.968,0,1.745-0.207,2.335-0.623s1.029-1.039,1.319-1.871h3.132
		c-0.174,0.812-0.475,1.537-0.898,2.176c-0.426,0.639-0.938,1.175-1.537,1.609c-0.6,0.436-1.271,0.765-2.016,0.985
		c-0.744,0.223-1.521,0.334-2.335,0.334c-1.179,0-2.224-0.193-3.132-0.58c-0.909-0.387-1.678-0.928-2.307-1.624
		c-0.627-0.696-1.102-1.527-1.42-2.494s-0.479-2.03-0.479-3.189c0-1.062,0.169-2.073,0.508-3.03s0.821-1.798,1.45-2.522
		c0.628-0.726,1.387-1.301,2.275-1.726c0.89-0.425,1.896-0.639,3.017-0.639c1.181,0,2.237,0.246,3.176,0.739
		s1.716,1.146,2.335,1.957c0.618,0.812,1.067,1.745,1.348,2.799c0.281,1.055,0.354,2.143,0.219,3.264L110.098,136.706
		L110.098,136.706z M117.812,134.531c-0.039-0.521-0.15-1.024-0.334-1.509c-0.185-0.481-0.436-0.902-0.754-1.262
		c-0.318-0.357-0.707-0.646-1.16-0.869c-0.455-0.223-0.963-0.334-1.522-0.334c-0.58,0-1.106,0.103-1.58,0.305
		c-0.474,0.203-0.88,0.483-1.218,0.842c-0.34,0.357-0.609,0.777-0.812,1.262s-0.313,1.005-0.332,1.565H117.812z"/>
	<path d="M122.133,128.354h2.493v-4.495h3.308v4.495h2.985v2.465h-2.985v8.005c0,0.349,0.015,0.647,0.043,0.898
		c0.028,0.252,0.097,0.464,0.203,0.638c0.105,0.175,0.266,0.306,0.479,0.393s0.503,0.131,0.869,0.131
		c0.232,0,0.465-0.005,0.697-0.015c0.23-0.011,0.463-0.044,0.694-0.103v2.552c-0.367,0.039-0.726,0.077-1.071,0.116
		c-0.35,0.039-0.707,0.059-1.074,0.059c-0.869,0-1.57-0.082-2.103-0.246s-0.946-0.406-1.247-0.726
		c-0.3-0.318-0.503-0.721-0.609-1.204c-0.105-0.481-0.168-1.033-0.188-1.651v-8.847h-2.493L122.133,128.354L122.133,128.354z"/>
	<path d="M131.645,128.354h3.625l3.916,11.194h0.058l3.8-11.194h3.45l-5.828,15.806c-0.271,0.677-0.537,1.323-0.798,1.942
		c-0.262,0.618-0.58,1.165-0.957,1.64c-0.377,0.474-0.846,0.851-1.406,1.131c-0.562,0.279-1.275,0.421-2.146,0.421
		c-0.772,0-1.537-0.06-2.291-0.174v-2.784c0.271,0.038,0.531,0.082,0.783,0.13c0.252,0.049,0.512,0.073,0.783,0.073
		c0.387,0,0.705-0.049,0.957-0.146c0.251-0.097,0.459-0.236,0.623-0.421c0.164-0.184,0.305-0.401,0.421-0.652
		s0.222-0.541,0.318-0.869l0.378-1.159L131.645,128.354z"/>
	<path d="M156.874,122.641h9.135c1.47,0,2.668,0.213,3.597,0.638c0.929,0.427,1.644,0.957,2.146,1.597
		c0.503,0.638,0.847,1.334,1.028,2.088c0.184,0.754,0.275,1.45,0.275,2.088s-0.092,1.329-0.275,2.073
		c-0.182,0.744-0.525,1.436-1.028,2.072c-0.503,0.64-1.218,1.165-2.146,1.581c-0.929,0.416-2.127,0.623-3.597,0.623h-5.51v7.946
		h-3.625V122.641z M160.499,132.443h5.308c0.405,0,0.82-0.058,1.246-0.174s0.816-0.305,1.176-0.564
		c0.356-0.262,0.646-0.609,0.869-1.044c0.223-0.436,0.334-0.981,0.334-1.64c0-0.677-0.098-1.236-0.291-1.682
		c-0.192-0.445-0.453-0.798-0.781-1.06c-0.33-0.261-0.707-0.438-1.133-0.535c-0.425-0.098-0.879-0.146-1.361-0.146H160.5
		L160.499,132.443L160.499,132.443z"/>
	<path d="M175.84,122.641h3.307v3.132h-3.307V122.641z M175.84,128.354h3.307v14.993h-3.307V128.354z"/>
	<path d="M182.742,128.354h3.132v2.204l0.058,0.059c0.504-0.831,1.16-1.483,1.973-1.957c0.812-0.475,1.712-0.711,2.697-0.711
		c1.644,0,2.938,0.426,3.887,1.275c0.945,0.852,1.421,2.127,1.421,3.828v10.295h-3.308v-9.425c-0.039-1.18-0.289-2.035-0.754-2.566
		c-0.464-0.531-1.188-0.798-2.175-0.798c-0.562,0-1.063,0.103-1.508,0.305c-0.444,0.203-0.822,0.483-1.131,0.842
		c-0.31,0.357-0.552,0.777-0.726,1.262c-0.175,0.483-0.262,0.996-0.262,1.537v8.845h-3.306L182.742,128.354L182.742,128.354z"/>
</g>
</svg>
