<?xml version="1.0" encoding="utf-8"?>
<!-- Generator: Adobe Illustrator 25.2.3, SVG Export Plug-In . SVG Version: 6.00 Build 0)  -->
<svg version="1.1" id="Layer_1" xmlns="http://www.w3.org/2000/svg" xmlns:xlink="http://www.w3.org/1999/xlink" x="0px" y="0px"
	 viewBox="0 0 200 150.3" style="enable-background:new 0 0 200 150.3;" xml:space="preserve">
<style type="text/css">
	.st0{fill:#FFFFFF;}
</style>
<g>
	<g>
		<g>
			<path class="st0" d="M139.2,62.9c-1.2-0.9-2.7-2-3.3-2.6c0.4-0.6,1-1.5,1.5-2.3c3.2-4.7,9.3-13.6,9.3-26.3
				c0-7.3-2.7-15.2-9.1-21.3C131.2,4.2,121.1,0,106.2,0C92,0,76.1,4.6,62.4,12.8c-6.2,3.7-11.2,7.6-14.8,11.4
				C44,27.9,42,31.6,42,34.7c0,1.5,0.6,2.9,1.7,4c2,2,5.6,2.9,10.1,3.4c4.5,0.5,10.1,0.5,16.1,0.5h1.1c9.2,0,15.7,0.2,19.9,0.9
				c2.1,0.3,3.6,0.7,4.5,1.2c0.9,0.5,1.2,0.9,1.2,1.5c0,0.2-0.2,0.7-0.8,1.3c-2,2-7.2,4.9-11.9,8.2c-2.4,1.6-4.6,3.3-6.2,5.1
				c-1.6,1.7-2.8,3.5-2.8,5.4l0,0V66l0,0c0,2.3,1.3,4.2,3.1,5.7c5.7,4.4,17.5,5.5,23.7,6.6c3.8,0.7,5.8,2,6.9,3.5
				c1.1,1.5,1.3,3.1,1.3,4.5c0,5.3-2,10-5.5,13.2c-3.1,2.9-6.9,4.7-12.4,4.8c-0.2,0-0.4,0-0.7,0c0.1-1.1,0.2-2.1,0.2-3.1
				c0-6.2-2.5-11.4-6.6-15c-4.2-3.6-10-5.6-16.8-5.6c-8.4,0-15.1,3.5-19.7,8.6c-4.6,5.2-7.1,12-7.1,18.7c0,10.6,4.9,21.2,14.4,29.2
				c9.5,8,23.7,13.3,42.2,13.3c14.7,0,29.5-4.8,40.7-13.3c9.3-7,20.4-19.7,20.4-40.6C158.8,77.3,146,67.8,139.2,62.9L139.2,62.9z
				 M80.8,64.2c2-2,6.3-4.9,9.4-7c3.1-2,5.9-3.8,7.9-5.6c2-1.8,3.4-3.6,3.4-5.7c0-1.6-0.6-3.2-1.8-4.4c-2.2-2.1-6-3.1-10.8-3.7
				c-4.8-0.5-10.5-0.5-16.4-0.5c-0.5,0-1.1,0-1.6,0c-4.9,0-8.8-0.1-11.9-0.2c4.3-1.7,9.3-4.4,14.8-7.3c8.9-4.7,18.7-10,27.9-12.3
				c-2.1,2.4-3.5,5.2-3.5,7.5c0,0.6,0.2,1.2,0.6,1.7c0.5,0.5,1.2,0.8,2.1,0.8c1.6,0,3.5-0.6,5.6-1.3c2.9-0.9,6.2-2,9.9-2
				c3.2,0,6.7,0.8,10.4,3.3c-2.4,0.2-4.5,0.9-5.7,1.9c-1.4,1-1.7,2.2-1.7,3.1c0,1.4,1,2.4,2.1,3.7c1.9,2.1,4.4,4.9,4.4,9.5
				c0,3.3-1.3,6.8-3.1,9.5c0-0.2,0-0.4,0-0.6c0-2.3-0.5-4.9-1.8-6.4c-0.8-0.9-1.8-1.4-2.9-1.3c-1.9,0-3.6,1.5-6.1,3.5
				c-1.8,1.5-4,3.3-6.7,5.1c-11.7,7.3-17.9,10.2-22.3,10.6C81.2,66.3,78.8,66.2,80.8,64.2z M91.5,109.2c6.6,0,12-2,16.3-5.9
				c4.5-4.1,7.1-10.3,7.1-16.9c0-3.2-1-5.8-2.8-7.8c9.8,2.3,19.9,7.4,25.6,14.9c-2.5-0.8-4.3-1-6.1-1c-1.8,0-3.3,1.9-3.3,4.1
				c0,1.1,0.4,2.4,1,4c0.8,2.5,1.9,5.7,1.9,9.6c0,3.6-0.9,7.7-3.7,12.2c-0.1-3.7-1.1-6.6-2.4-8.2c-1-1.2-2.1-1.5-2.8-1.5
				c-1.2,0-2.1,0.6-2.8,1.5c-0.8,0.9-1.4,2.1-2.2,3.4c-2.7,4.8-6.9,12.5-20.2,16.5c1.2-2.1,1.8-4.2,1.8-5.9c0-0.7-0.1-1.3-0.3-1.8
				c-0.4-1-1.3-1.6-2.3-1.6c0,0,0,0,0,0c-1.4,0.1-3.1,0.5-5.1,1.1c-3.1,0.9-6.8,1.9-10.8,1.9c-4.2,0-8.8-1.1-13.6-4.7
				c1.6-0.3,3.1-0.8,4.2-1.7c0.9-0.8,1.4-1.7,1.4-2.7c0-1.6-1.2-2.6-2.6-3.9c-2-1.9-4.4-4.2-4.4-7.9c0-1.1,0.2-2.3,0.7-3.7
				c0.4,1.2,1.1,2.3,1.9,3.2c1.2,1.3,2.7,2.2,4.2,2.2c1.5,0,2.4-0.7,2.8-1.6c0.4-0.9,0.4-2,0.4-2.8c0-0.9,0.4-1.8,1.1-2.5
				c0.7-0.7,1.6-1.1,2.6-1.1c2.2,0,3.9,1.2,5.1,3.1c1.2,1.9,1.8,4.3,1.8,6.6c0,1.4-0.2,2.8-0.7,3.9l-0.5,1.2l1.1-0.8
				c2-1.5,3.6-3.7,4.3-5.3C90.4,109.2,91,109.2,91.5,109.2z M48.1,36.2c-0.7-0.4-1.1-0.8-1.1-1.5c0-1.8,1.7-4.7,4.9-7.8
				C61.4,17.3,83.4,5,106.2,5.1c11.5,0,20.9,2.9,27.1,8.2c5.4,4.6,8.4,11.1,8.4,18.4c0,11.1-5.2,18.8-8.4,23.5
				c-1.6,2.4-2.6,3.7-2.6,5.3c0,1.2,0.6,2.3,1.6,3.3c1,1,2.3,2,4,3.3c6.6,4.9,17.5,12.9,17.5,29.5c0,18.8-9.9,30.3-18.3,36.6
				c-10.3,7.8-24.1,12.3-37.7,12.3c-33.9,0-51.5-18.9-51.5-37.4c0-5.5,2.1-11.1,5.8-15.3c3.8-4.2,9.2-7.1,16-7.1h0
				c3.8,0,8.6,0.9,12.4,3.4c3.8,2.6,6.7,6.7,6.7,13.5c0,0.2,0,0.4,0,0.6c-0.3-0.8-0.8-1.6-1.5-2.4c-1.4-1.7-3.6-3.2-6.8-3.2
				c-3.6,0-6.7,3-6.8,6.6c0,0.7-0.1,1.1-0.2,1.3c0,0.1-0.1,0.1-0.1,0.1c-0.9,0-1.9-0.6-2.8-1.8c-0.9-1.2-1.5-3-1.5-5.4
				c0-0.5,0-0.9,0.1-1.4l0.1-1.1l-0.7,0.8c-3.4,3.8-4.7,7.3-4.7,10.2c0,4.9,3.3,8.3,5.2,10.2c0.4,0.3,0.8,0.7,1.1,1.1
				c0.2,0.2,0.3,0.3,0.4,0.5c0.1,0.1,0.1,0.1,0.1,0.2c0,0,0,0,0,0c0,0.2-0.4,0.6-1.3,1c-1,0.4-2.5,0.7-4.8,0.7c-0.8,0-1.6,0-2.6-0.1
				l-0.9-0.1l0.5,0.7c6.5,7.8,13.7,9.9,19.9,9.9c4.6,0,8.7-1.1,11.6-2c1.2-0.4,2.6-0.9,3.4-0.9c0.3,0,0.5,0.1,0.5,0.2
				c0.1,0.1,0.1,0.3,0.1,0.6c0,0.9-0.5,2.5-1.4,4.2c-0.9,1.7-2.1,3.4-3.5,4.7l-0.8,0.8l1.1-0.1c19-2.4,25.3-13.4,28.5-19.1
				c0.5-1,1-1.8,1.4-2.4c0.4-0.6,0.9-0.9,1-0.9c0.2,0,0.5,0.2,0.8,0.6c0.9,1.4,1.7,4.8,1.7,8.5c0,1.6-0.1,3.2-0.5,4.7l-0.2,1.1
				l0.8-0.8c7.2-6.6,9.1-13.6,9.1-19.4c0-4.5-1.1-8.2-1.9-10.7c-0.4-1.3-0.8-2.6-0.8-3.1c0-0.5,0.1-0.7,0.2-0.9
				c0.1-0.1,0.2-0.2,0.6-0.3c3,0,6.6,1.1,10.9,3.1l0.8,0.4l-0.4-0.9c-5.9-13.7-18.9-19.6-31.6-22.8c-6.4-1.6-12.6-2.6-17.9-3.5
				c-3.9-0.7-7.2-1.3-9.6-2.2c-0.4-0.2-0.8-0.4-1.2-0.5c7.3-0.9,16-6,23.8-11c2.9-1.9,5.2-3.8,7-5.3c0.9-0.8,1.8-1.5,2.6-2
				c0.7-0.5,1.4-0.8,1.6-0.8c0.3,0,0.5,0.1,0.7,0.4c0.7,0.8,1.1,2.9,1.1,5.2c0,1.9-0.2,3.9-0.7,5.5l-0.3,0.9l0.8-0.5
				c6.2-4,9.1-10,9.1-15.6c0-5.7-3.1-9.2-5.2-11.4c-0.3-0.4-0.7-0.8-1-1.1c-0.2-0.3-0.4-0.6-0.5-0.7c0-0.1,0.2-0.4,0.6-0.7
				c1.3-1,3.5-1.6,6.1-1.6c1.3,0,2.7,0.2,4.1,0.5l1,0.2l-0.6-0.8c-5.3-6.8-11.4-8.8-16.8-8.8c-4.3,0-8.2,1.2-11,2.1
				c-1.4,0.4-3.3,1-4.1,1c-0.1,0-0.2,0-0.2,0c0-1,0.7-2.7,2.1-4.4c1.4-1.8,3.4-3.8,6.1-5.4l1-0.6l-1.1-0.1c-0.5,0-1-0.1-1.5-0.1
				c-10.9,0-25,7.9-35.4,13.3C65.8,30.7,52.2,38.6,48.1,36.2z"/>
		</g>
	</g>
</g>
</svg>
