<?xml version="1.0" encoding="utf-8"?>
<!-- Generator: Adobe Illustrator 15.1.0, SVG Export Plug-In . SVG Version: 6.00 Build 0)  -->
<!DOCTYPE svg PUBLIC "-//W3C//DTD SVG 1.1//EN" "http://www.w3.org/Graphics/SVG/1.1/DTD/svg11.dtd">
<svg version="1.1" id="Layer_1" xmlns="http://www.w3.org/2000/svg" xmlns:xlink="http://www.w3.org/1999/xlink" x="0px" y="0px"
	 width="200px" height="150.311px" viewBox="0 0 200 150.311" enable-background="new 0 0 200 150.311" xml:space="preserve">
<text transform="matrix(1 0 0 1 16.416 247.8391)" fill="#FFFFFF" font-family="'Uni-Sans-Book'" font-size="41.8236">Table</text>
<text transform="matrix(1 0 0 1 16.416 288.0276)" fill="#FFFFFF" font-family="'Uni-Sans-Book'" font-size="41.8236">o</text>
<text transform="matrix(1 0 0 1 37.8291 288.0276)" fill="#FFFFFF" font-family="'Uni-Sans-Book'" font-size="41.8236">f </text>
<text transform="matrix(1 0 0 1 16.416 328.2161)" fill="#FFFFFF" font-family="'Uni-Sans-Book'" font-size="41.8236">Discussion</text>
<g>
	<g enable-background="new    ">
		<path d="M27.711,63.286v2.499h-9.994v27.526h-2.499V65.785H5.224v-2.499H27.711z"/>
		<path d="M28.304,75.567l-1.61-1.525c4.49-4.915,15.584-3.771,15.584,3.896c0,4.997,0,9.529,0,14.524
			c-2.88,0.975-5.927,1.441-8.978,1.398c-4.276-0.042-7.664-2.838-7.664-7.409c0.041-7.411,8.807-8.554,14.271-6.057v-2.457
			C39.908,72.559,31.015,72.094,28.304,75.567z M39.908,82.595c-3.896-1.523-11.858-2.413-11.9,3.857
			c0,3.345,2.329,5.251,5.42,5.293c2.16,0.042,4.404-0.085,6.479-0.593V82.595z"/>
		<path d="M49.815,63.243v9.061c1.865-0.846,3.897-1.312,5.971-1.312c4.193-0.042,8.343,2.5,8.343,7.115c0,2.71,0,5.927,0,8.639
			c0,4.742-4.108,7.027-8.216,7.113c-2.88,0-5.76-0.551-8.469-1.483c0-9.274,0-19.861,0-29.134L49.815,63.243L49.815,63.243z
			 M49.815,90.727c1.95,0.679,4.066,0.804,6.098,0.804c2.922,0,5.844-1.565,5.802-4.699v-0.084c0-2.71,0-5.929,0-8.639v-0.043
			c0.042-3.176-2.923-4.658-5.887-4.701c-2.032,0-4.15,0.423-6.014,1.228C49.815,79.716,49.815,85.604,49.815,90.727z"/>
		<path d="M75.902,93.479c-4.276,0-6.689-2.582-6.689-6.942v-23.25h2.371v23.25c0,2.923,1.355,4.573,4.32,4.573L75.902,93.479
			L75.902,93.479z"/>
		<path d="M81.536,86.747c-0.042,3.26,2.922,4.742,5.929,4.742c2.328,0,4.7-0.931,5.589-2.922l2.117,1.06
			c-1.313,2.836-4.533,4.234-7.706,4.234c-4.15,0-8.342-2.329-8.342-7.112c0-2.668,0-6.057,0-8.725c0-4.785,4.192-7.114,8.342-7.114
			c4.109,0,8.297,2.331,8.297,7.114v3.6v2.078H81.532v3.047h0.004V86.747z M87.464,73.28c-3.009,0-5.971,1.482-5.929,4.659v0.084
			v3.6h11.857v-3.6v-0.084C93.393,74.762,90.427,73.28,87.464,73.28z"/>
	</g>
	<g>
		<g enable-background="new    ">
			<path d="M115.717,71.097c4.15,0.043,8.301,2.373,8.301,7.156c0,2.67,0,6.014,0,8.682c0,4.787-4.15,7.114-8.301,7.156
				c-4.15-0.042-8.344-2.37-8.344-7.156c0-2.668,0-6.012,0-8.682C107.373,73.469,111.566,71.14,115.717,71.097z M109.746,78.253
				c0,2.672,0,6.015,0,8.682c0,3.349,3.092,4.788,5.971,4.788c2.838,0,5.928-1.439,5.928-4.788c0-2.667,0-6.012,0-8.682
				c0-3.344-3.09-4.742-5.928-4.742C112.838,73.511,109.746,74.909,109.746,78.253z"/>
		</g>
		<g enable-background="new    ">
			<path d="M131.766,70.591v4.912h4.746v2.372h-4.746V93.63h-2.371c0-7.369,0-15.671,0-23.038c0-4.746,3.262-7.073,7.414-7.116
				v2.373C133.883,65.846,131.766,67.541,131.766,70.591z"/>
		</g>
	</g>
</g>
<g enable-background="new    ">
	<path d="M10.845,132.293v-29.979c3.727,0,6.225,0,9.994,0c5.631,0,11.222,2.583,11.222,8.764v12.495
		c0,6.138-5.591,8.721-11.222,8.721H10.845z M20.839,129.795c4.362,0,8.723-1.779,8.723-6.223v-12.495
		c0-4.489-4.362-6.266-8.723-6.266h-7.495v24.985L20.839,129.795L20.839,129.795z"/>
	<path d="M38.244,103.074c1.058,0,1.906,0.847,1.906,1.905c0,1.06-0.848,1.906-1.906,1.906c-1.059,0-1.907-0.847-1.907-1.906
		C36.337,103.921,37.185,103.074,38.244,103.074z M37.142,132.293h2.372c0-9.736,0-12.194,0-21.936h-2.372V132.293z"/>
	<path d="M52.26,130.304c2.414-0.043,4.913-1.017,4.871-3.854c0-2.965-2.752-3.684-5.04-4.11c-3.558-0.636-7.622-1.693-7.622-6.182
		c0-4.445,4.277-6.098,7.791-6.098c2.245,0,4.575,0.72,6.14,2.204l-1.525,1.778c-1.229-1.27-2.88-1.693-4.616-1.693
		c-2.245,0-5.464,0.763-5.464,3.811c0.043,2.965,3.516,3.516,5.717,3.94c3.43,0.635,6.944,2.075,6.987,6.352
		c0,4.193-3.558,6.012-7.242,6.097c-3.431,0.084-6.563-1.483-8.47-4.533l1.822-1.143C47.263,129.118,49.718,130.389,52.26,130.304z"
		/>
	<path d="M71.274,112.349c-2.965,0-5.928,1.482-5.928,4.658v0.085c0,2.668,0,5.76,0,8.427v0.086c0,3.175,2.965,4.657,5.928,4.657
		c2.542,0,5.082-1.058,5.759-3.388l2.161,1.06c-1.145,3.176-4.532,4.7-7.92,4.7c-4.108,0-8.299-2.329-8.299-7.112
		c0-2.669,0-5.76,0-8.428c0-4.785,4.191-7.115,8.299-7.115c3.049,0,6.055,1.231,7.495,3.771l-1.991,1.271
		C75.805,113.197,73.562,112.349,71.274,112.349z"/>
	<path d="M99.182,130.982c-0.677,0.211-1.481,0.465-2.372,0.719c-1.948,0.552-4.065,0.975-6.055,0.975
		c-4.066-0.042-8.13-2.371-8.13-7.069v-15.292h2.372v15.292v0.084c0,3.091,2.879,4.616,5.759,4.659c2.372,0,4.744-0.764,6.055-1.313
		v-18.719h2.372V130.982z"/>
	<path d="M111.462,130.304c2.415-0.043,4.915-1.017,4.871-3.854c0-2.965-2.753-3.684-5.039-4.11
		c-3.56-0.636-7.625-1.693-7.625-6.182c0-4.445,4.279-6.098,7.793-6.098c2.243,0,4.575,0.72,6.143,2.204l-1.528,1.778
		c-1.227-1.27-2.879-1.693-4.615-1.693c-2.245,0-5.464,0.763-5.464,3.811c0.043,2.965,3.517,3.516,5.716,3.94
		c3.433,0.635,6.947,2.075,6.989,6.352c0,4.193-3.559,6.012-7.241,6.097c-3.431,0.084-6.563-1.483-8.47-4.533l1.822-1.143
		C106.466,129.118,108.922,130.389,111.462,130.304z"/>
	<path d="M129.544,130.304c2.414-0.043,4.913-1.017,4.87-3.854c0-2.965-2.752-3.684-5.039-4.11
		c-3.558-0.636-7.622-1.693-7.622-6.182c0-4.445,4.277-6.098,7.791-6.098c2.245,0,4.574,0.72,6.14,2.204l-1.525,1.778
		c-1.229-1.27-2.881-1.693-4.616-1.693c-2.246,0-5.464,0.763-5.464,3.811c0.043,2.965,3.515,3.516,5.718,3.94
		c3.43,0.635,6.943,2.075,6.984,6.352c0,4.193-3.556,6.012-7.24,6.097c-3.431,0.084-6.562-1.483-8.47-4.533l1.821-1.143
		C124.547,129.118,127.002,130.389,129.544,130.304z"/>
	<path d="M142.713,103.074c1.061,0,1.907,0.847,1.907,1.905c0,1.06-0.847,1.906-1.907,1.906c-1.059,0-1.905-0.847-1.905-1.906
		C140.808,103.921,141.654,103.074,142.713,103.074z M141.613,132.293h2.371c0-9.736,0-12.194,0-21.936h-2.371V132.293z"/>
	<path d="M158.003,109.764c4.148,0.043,8.299,2.374,8.299,7.157c0,2.669,0,6.014,0,8.683c0,4.785-4.15,7.111-8.299,7.154
		c-4.152-0.043-8.344-2.371-8.344-7.154c0-2.669,0-6.014,0-8.683C149.657,112.137,153.851,109.807,158.003,109.764z M152.03,116.922
		c0,2.669,0,6.014,0,8.683c0,3.346,3.093,4.785,5.971,4.785c2.839,0,5.928-1.439,5.928-4.785c0-2.669,0-6.014,0-8.683
		c0-3.346-3.095-4.742-5.928-4.742C155.123,112.18,152.03,113.576,152.03,116.922z"/>
	<path d="M171.934,112.095c2.71-0.932,5.589-1.738,8.425-1.738c4.067,0.085,8.132,2.372,8.132,7.071v14.865h-2.373v-14.865
		c0-3.219-2.964-4.7-5.759-4.7c-2.372,0-4.743,0.721-6.053,1.271v18.293h-2.374v-20.197L171.934,112.095L171.934,112.095z"/>
</g>
<g enable-background="new    ">
	<path d="M299.631,17.579v2.468h-9.869v27.186h-2.469V20.047h-9.869v-2.468H299.631z"/>
	<path d="M300.217,29.708l-1.588-1.506c4.434-4.854,15.391-3.724,15.391,3.848c0,4.936,0,9.411,0,14.346
		c-2.844,0.962-5.855,1.423-8.867,1.381c-4.224-0.042-7.57-2.803-7.57-7.317c0.043-7.319,8.699-8.448,14.096-5.981V32.05
		C311.678,26.738,302.895,26.278,300.217,29.708z M311.678,36.65c-3.848-1.505-11.711-2.384-11.754,3.809
		c0,3.304,2.301,5.187,5.354,5.228c2.134,0.042,4.351-0.083,6.399-0.585V36.65z"/>
	<path d="M321.463,17.537v8.948c1.841-0.836,3.849-1.296,5.896-1.296c4.141-0.042,8.239,2.469,8.239,7.026c0,2.677,0,5.854,0,8.532
		c0,4.684-4.058,6.94-8.114,7.024c-2.844,0-5.688-0.544-8.363-1.464c0-9.16,0-19.616,0-28.773L321.463,17.537L321.463,17.537z
		 M321.463,44.68c1.925,0.67,4.015,0.795,6.021,0.795c2.887,0,5.771-1.547,5.73-4.643V40.75c0-2.677,0-5.855,0-8.532v-0.042
		c0.041-3.137-2.887-4.601-5.813-4.643c-2.008,0-4.099,0.418-5.938,1.213C321.463,33.806,321.463,39.62,321.463,44.68z"/>
	<path d="M347.227,47.399c-4.225,0-6.607-2.551-6.607-6.856V17.579h2.342v22.962c0,2.886,1.338,4.517,4.268,4.517L347.227,47.399
		L347.227,47.399z"/>
	<path d="M352.789,40.75c-0.041,3.22,2.887,4.684,5.854,4.684c2.301,0,4.644-0.92,5.521-2.886l2.092,1.046
		c-1.297,2.802-4.477,4.183-7.611,4.183c-4.1,0-8.239-2.301-8.239-7.024c0-2.636,0-5.981,0-8.616c0-4.727,4.142-7.026,8.239-7.026
		c4.059,0,8.195,2.302,8.195,7.026v3.555v2.052h-14.053v3.01h0.002V40.75z M358.644,27.449c-2.97,0-5.896,1.464-5.854,4.601v0.084
		v3.555H364.5v-3.555V32.05C364.5,28.913,361.571,27.449,358.644,27.449z"/>
</g>
<g>
	<g enable-background="new    ">
		<path d="M315.838,67.17c4.099,0.042,8.197,2.343,8.197,7.066c0,2.638,0,5.939,0,8.574c0,4.729-4.1,7.026-8.197,7.068
			c-4.1-0.042-8.239-2.342-8.239-7.068c0-2.635,0-5.938,0-8.574C307.599,69.512,311.739,67.212,315.838,67.17z M309.94,74.238
			c0,2.638,0,5.939,0,8.574c0,3.307,3.054,4.729,5.897,4.729c2.802,0,5.854-1.422,5.854-4.729c0-2.635,0-5.938,0-8.574
			c0-3.304-3.054-4.684-5.854-4.684C312.994,69.554,309.94,70.934,309.94,74.238z"/>
	</g>
	<g enable-background="new    ">
		<path d="M331.688,66.669v4.852h4.685v2.342h-4.685v15.561h-2.343c0-7.277,0-15.477,0-22.752c0-4.687,3.221-6.985,7.32-7.027v2.343
			C333.779,61.984,331.688,63.657,331.688,66.669z"/>
	</g>
</g>
<g enable-background="new    ">
	<path d="M234.408,127.609V97.999c3.682,0,6.148,0,9.871,0c5.562,0,11.083,2.551,11.083,8.655v12.34
		c0,6.062-5.521,8.614-11.083,8.614H234.408z M244.279,125.141c4.309,0,8.615-1.757,8.615-6.146v-12.34
		c0-4.434-4.309-6.188-8.615-6.188h-7.402v24.676L244.279,125.141L244.279,125.141z"/>
	<path d="M261.469,98.751c1.045,0,1.882,0.836,1.882,1.882s-0.837,1.882-1.882,1.882c-1.047,0-1.883-0.836-1.883-1.882
		S260.422,98.751,261.469,98.751z M260.381,127.609h2.342c0-9.617,0-12.045,0-21.665h-2.342V127.609z"/>
	<path d="M275.312,125.643c2.384-0.042,4.853-1.004,4.81-3.806c0-2.928-2.718-3.639-4.977-4.06
		c-3.514-0.627-7.527-1.673-7.527-6.104c0-4.391,4.223-6.022,7.694-6.022c2.217,0,4.519,0.711,6.063,2.177l-1.506,1.757
		c-1.213-1.255-2.844-1.673-4.559-1.673c-2.217,0-5.396,0.753-5.396,3.764c0.043,2.928,3.473,3.472,5.646,3.891
		c3.388,0.627,6.859,2.051,6.9,6.273c0,4.141-3.514,5.938-7.151,6.021c-3.388,0.084-6.481-1.464-8.365-4.476l1.8-1.129
		C270.375,124.472,272.801,125.727,275.312,125.643z"/>
	<path d="M294.09,107.91c-2.928,0-5.855,1.464-5.855,4.601v0.084c0,2.635,0,5.688,0,8.323v0.083c0,3.137,2.928,4.601,5.855,4.601
		c2.51,0,5.019-1.045,5.688-3.346l2.135,1.046c-1.131,3.137-4.477,4.643-7.822,4.643c-4.057,0-8.196-2.301-8.196-7.024
		c0-2.636,0-5.688,0-8.323c0-4.727,4.14-7.026,8.196-7.026c3.012,0,5.98,1.215,7.402,3.724l-1.966,1.255
		C298.564,108.747,296.349,107.91,294.09,107.91z"/>
	<path d="M321.651,126.312c-0.669,0.209-1.463,0.46-2.342,0.711c-1.925,0.544-4.015,0.962-5.979,0.962
		c-4.017-0.041-8.031-2.342-8.031-6.982v-15.101h2.343v15.101v0.084c0,3.053,2.844,4.559,5.688,4.601
		c2.342,0,4.685-0.753,5.979-1.297v-18.486h2.342V126.312z"/>
	<path d="M333.78,125.643c2.384-0.042,4.853-1.004,4.81-3.806c0-2.928-2.719-3.639-4.978-4.06c-3.514-0.627-7.528-1.673-7.528-6.104
		c0-4.391,4.226-6.022,7.696-6.022c2.216,0,4.517,0.711,6.064,2.177l-1.507,1.757c-1.213-1.255-2.844-1.673-4.56-1.673
		c-2.217,0-5.396,0.753-5.396,3.764c0.043,2.928,3.474,3.472,5.646,3.891c3.39,0.627,6.859,2.051,6.901,6.273
		c0,4.141-3.514,5.938-7.151,6.021c-3.389,0.084-6.481-1.464-8.364-4.476l1.799-1.129
		C328.845,124.472,331.271,125.727,333.78,125.643z"/>
	<path d="M351.638,125.643c2.385-0.042,4.852-1.004,4.811-3.806c0-2.928-2.719-3.639-4.978-4.06
		c-3.514-0.627-7.528-1.673-7.528-6.104c0-4.391,4.226-6.022,7.695-6.022c2.217,0,4.518,0.711,6.063,2.177l-1.507,1.757
		c-1.213-1.255-2.844-1.673-4.559-1.673c-2.218,0-5.396,0.753-5.396,3.764c0.041,2.928,3.471,3.472,5.646,3.891
		c3.387,0.627,6.857,2.051,6.898,6.273c0,4.141-3.514,5.938-7.15,6.021c-3.389,0.084-6.482-1.464-8.365-4.476l1.799-1.129
		C346.703,124.472,349.127,125.727,351.638,125.643z"/>
	<path d="M364.645,98.751c1.046,0,1.882,0.836,1.882,1.882s-0.836,1.882-1.882,1.882s-1.882-0.836-1.882-1.882
		S363.599,98.751,364.645,98.751z M363.558,127.609h2.342c0-9.617,0-12.045,0-21.665h-2.342V127.609z"/>
	<path d="M379.744,105.358c4.098,0.042,8.196,2.345,8.196,7.068c0,2.636,0,5.939,0,8.574c0,4.727-4.099,7.024-8.196,7.066
		c-4.101-0.042-8.24-2.342-8.24-7.066c0-2.635,0-5.938,0-8.574C371.502,107.701,375.644,105.4,379.744,105.358z M373.846,112.427
		c0,2.636,0,5.939,0,8.574c0,3.305,3.054,4.727,5.896,4.727c2.803,0,5.854-1.422,5.854-4.727c0-2.635,0-5.938,0-8.574
		c0-3.304-3.056-4.684-5.854-4.684C376.899,107.743,373.846,109.123,373.846,112.427z"/>
	<path d="M393.502,107.659c2.677-0.92,5.521-1.717,8.321-1.717c4.017,0.084,8.03,2.344,8.03,6.984v14.681h-2.344v-14.681
		c0-3.179-2.928-4.643-5.688-4.643c-2.342,0-4.685,0.711-5.979,1.255v18.066H393.5v-19.947L393.502,107.659L393.502,107.659z"/>
</g>
</svg>
