<?xml version="1.0" encoding="utf-8"?>
<!-- Generator: Adobe Illustrator 15.1.0, SVG Export Plug-In . SVG Version: 6.00 Build 0)  -->
<!DOCTYPE svg PUBLIC "-//W3C//DTD SVG 1.1//EN" "http://www.w3.org/Graphics/SVG/1.1/DTD/svg11.dtd">
<svg version="1.1" id="Layer_1" xmlns="http://www.w3.org/2000/svg" xmlns:xlink="http://www.w3.org/1999/xlink" x="0px" y="0px"
	 width="200px" height="150.311px" viewBox="0 0 200 150.311" enable-background="new 0 0 200 150.311" xml:space="preserve">
<g>
	<defs>
		<rect id="SVGID_1_" x="364" y="-289.58" width="1190.55" height="841.89"/>
	</defs>
	<clipPath id="SVGID_2_">
		<use xlink:href="#SVGID_1_"  overflow="visible"/>
	</clipPath>
	<path clip-path="url(#SVGID_2_)" fill="#010101" d="M972.929,135.197c-8.677,0-15.577-0.309-15.645-0.312h-0.001
		c-3.35,0-6.102-2.752-6.102-6.135l0.12-4.346V92.812c0-1.191,0.463-2.311,1.306-3.154l5.688-5.687
		c1.062-1.063,2.478-1.649,3.981-1.649h12.505c0.414,0,0.75,0.336,0.75,0.75c0,0.415-0.336,0.75-0.75,0.75h-12.505
		c-1.104,0-2.141,0.43-2.921,1.21l-5.688,5.687c-0.559,0.559-0.866,1.302-0.866,2.093v31.614l-0.12,4.346
		c0,2.536,2.08,4.615,4.637,4.615c0.102,0.004,6.97,0.311,15.611,0.311c8.859,0,9.548-6.448,9.548-8.424l-0.005-20.545
		c-0.012-1.07-0.021-1.776,0.484-2.287c0.415-0.42,0.995-0.468,1.396-0.468h5.681c2.754,0,2.861,0,2.861-1.854V69.105
		c0-14.127-13.952-33.696-40.148-33.696c-25.136,0-42.692,15.244-42.692,37.07c0,17.476,8.656,30.885,13.815,37.322l0.167,0.209
		c1.715,2.159,1.708,7.188,1.702,7.755v11.296c0,2.556,2.079,4.636,4.636,4.636c2.556,0,4.636-2.08,4.636-4.636l-0.01-1.849V92.298
		c0-0.479-0.187-0.929-0.525-1.267l-9.79-9.79c-0.293-0.293-0.293-0.768,0-1.061c0.293-0.293,0.768-0.293,1.061,0l9.789,9.79
		c0.622,0.622,0.965,1.448,0.965,2.328l0.01,36.759c0,3.387-2.753,6.14-6.136,6.14c-3.383,0-6.136-2.753-6.136-6.136v-11.304
		c0.015-1.401-0.204-5.337-1.376-6.814l-0.163-0.204c-5.283-6.59-14.145-20.325-14.145-38.26c0-22.71,18.172-38.57,44.192-38.57
		c27.175,0,41.648,20.44,41.648,35.196v31.014c0,3.354-1.642,3.354-4.361,3.354h-5.681c-0.27,0-0.348,0.039-0.351,0.04
		c-0.042,0.104-0.035,0.685-0.029,1.198l0.005,0.616v19.946C983.977,130.071,981.074,135.197,972.929,135.197"/>
	<path clip-path="url(#SVGID_2_)" fill="#010101" d="M943.885,90.075c-0.192,0-0.384-0.073-0.53-0.22
		c-0.293-0.293-0.293-0.767,0-1.06l17.508-17.509c1.131-1.131,2.635-1.754,4.234-1.754h4.344c1.182,0,2.34-0.479,3.174-1.314
		l6.159-6.159c0.293-0.293,0.768-0.293,1.061,0s0.293,0.767,0,1.06l-6.159,6.159c-1.114,1.115-2.658,1.754-4.234,1.754h-4.344
		c-1.198,0-2.326,0.467-3.174,1.315l-17.509,17.508C944.269,90.002,944.077,90.075,943.885,90.075"/>
	<path clip-path="url(#SVGID_2_)" fill="#010101" d="M945.713,79.411c-1.489,0-2.7-1.211-2.7-2.7c0-1.489,1.211-2.7,2.7-2.7
		c1.489,0,2.7,1.211,2.7,2.7C948.413,78.2,947.202,79.411,945.713,79.411 M945.713,75.511c-0.662,0-1.2,0.539-1.2,1.2
		c0,0.662,0.538,1.2,1.2,1.2s1.2-0.538,1.2-1.2C946.913,76.05,946.375,75.511,945.713,75.511"/>
	<path clip-path="url(#SVGID_2_)" fill="#010101" d="M976.729,85.932c-1.488,0-2.699-1.212-2.699-2.7c0-1.489,1.211-2.7,2.699-2.7
		c1.489,0,2.7,1.211,2.7,2.7C979.43,84.72,978.219,85.932,976.729,85.932 M976.729,82.032c-0.661,0-1.199,0.538-1.199,1.2
		c0,0.661,0.538,1.2,1.199,1.2c0.662,0,1.2-0.539,1.2-1.2C977.93,82.57,977.392,82.032,976.729,82.032"/>
	<path clip-path="url(#SVGID_2_)" fill="#010101" d="M980.63,63.994c-1.489,0-2.7-1.211-2.7-2.7c0-1.489,1.211-2.7,2.7-2.7
		s2.7,1.211,2.7,2.7C983.33,62.783,982.119,63.994,980.63,63.994 M980.63,60.094c-0.662,0-1.2,0.539-1.2,1.2
		c0,0.662,0.538,1.2,1.2,1.2s1.2-0.538,1.2-1.2C981.83,60.633,981.292,60.094,980.63,60.094"/>
	<path clip-path="url(#SVGID_2_)" fill="#010101" d="M922.618,70.697c-1.489,0-2.7-1.211-2.7-2.7c0-1.489,1.211-2.7,2.7-2.7
		s2.7,1.211,2.7,2.7C925.317,69.486,924.106,70.697,922.618,70.697 M922.618,66.797c-0.662,0-1.2,0.539-1.2,1.2
		c0,0.662,0.538,1.2,1.2,1.2s1.2-0.538,1.2-1.2C923.817,67.336,923.28,66.797,922.618,66.797"/>
	<path clip-path="url(#SVGID_2_)" fill="#010101" d="M923.836,82.032c-1.489,0-2.7-1.212-2.7-2.7c0-1.489,1.211-2.7,2.7-2.7
		s2.7,1.211,2.7,2.7C926.536,80.82,925.325,82.032,923.836,82.032 M923.836,78.132c-0.662,0-1.2,0.538-1.2,1.2
		c0,0.661,0.538,1.2,1.2,1.2s1.2-0.539,1.2-1.2C925.036,78.67,924.499,78.132,923.836,78.132"/>
	<path clip-path="url(#SVGID_2_)" fill="#010101" d="M944.442,76.051c-0.192,0-0.384-0.073-0.53-0.22l-12.857-12.856
		c-0.629-0.629-1.725-0.629-2.354,0l-4.174,4.174c-0.293,0.293-0.768,0.293-1.061,0s-0.293-0.767,0-1.06l4.174-4.174
		c1.196-1.197,3.281-1.197,4.476,0l12.856,12.856c0.293,0.293,0.293,0.767,0,1.06C944.826,75.978,944.634,76.051,944.442,76.051"/>
	<path clip-path="url(#SVGID_2_)" fill="#010101" d="M961.116,62.227h-6.729c-0.688,0-1.302-0.41-1.565-1.045
		c-0.264-0.636-0.12-1.36,0.366-1.847l10.155-10.153c0.596-0.596,0.583-1.354,0.371-1.864c-0.211-0.511-0.737-1.056-1.58-1.056
		h-12.706c-1.097,0-2.129,0.427-2.905,1.203l-8.591,8.59c-0.969,0.97-2.259,1.505-3.631,1.505h-6.822
		c-0.747,0-1.415-0.447-1.701-1.137c-0.286-0.691-0.129-1.479,0.399-2.007l5.688-5.687c0.293-0.293,0.767-0.293,1.06,0
		s0.293,0.768,0,1.06l-5.687,5.688c-0.141,0.14-0.107,0.293-0.074,0.372c0.033,0.078,0.117,0.211,0.315,0.211h6.822
		c0.971,0,1.884-0.378,2.571-1.065l8.59-8.591c1.06-1.059,2.468-1.642,3.966-1.642h12.706c1.323,0,2.46,0.759,2.966,1.982
		c0.507,1.222,0.239,2.563-0.696,3.498l-10.154,10.154c-0.075,0.076-0.064,0.157-0.041,0.211c0.033,0.08,0.093,0.12,0.179,0.12
		h6.729c1.104,0,2.141-0.43,2.921-1.209l6.462-6.463c0.293-0.293,0.768-0.293,1.061,0s0.293,0.768,0,1.061l-6.462,6.462
		C964.034,61.642,962.62,62.227,961.116,62.227"/>
	<path clip-path="url(#SVGID_2_)" fill="#010101" d="M933.829,50.295c-1.489,0-2.7-1.211-2.7-2.7c0-1.489,1.211-2.7,2.7-2.7
		c1.489,0,2.7,1.211,2.7,2.7C936.529,49.083,935.318,50.295,933.829,50.295 M933.829,46.395c-0.662,0-1.2,0.539-1.2,1.2
		c0,0.662,0.538,1.2,1.2,1.2s1.2-0.538,1.2-1.2C935.029,46.934,934.491,46.395,933.829,46.395"/>
	<path clip-path="url(#SVGID_2_)" fill="#010101" d="M952.651,72.487c-1.489,0-2.7-1.212-2.7-2.7c0-1.489,1.211-2.7,2.7-2.7
		s2.7,1.211,2.7,2.7C955.351,71.275,954.14,72.487,952.651,72.487 M952.651,68.587c-0.662,0-1.2,0.538-1.2,1.2
		c0,0.661,0.538,1.2,1.2,1.2s1.2-0.539,1.2-1.2C953.851,69.125,953.313,68.587,952.651,68.587"/>
	<path clip-path="url(#SVGID_2_)" fill="#010101" d="M951.278,54.51c-1.489,0-2.7-1.211-2.7-2.7c0-1.489,1.211-2.7,2.7-2.7
		c1.489,0,2.7,1.211,2.7,2.7C953.978,53.299,952.767,54.51,951.278,54.51 M951.278,50.61c-0.662,0-1.2,0.539-1.2,1.2
		c0,0.662,0.538,1.2,1.2,1.2s1.2-0.538,1.2-1.2C952.478,51.149,951.94,50.61,951.278,50.61"/>
	<path clip-path="url(#SVGID_2_)" fill="#010101" d="M972.28,54.56c-1.489,0-2.7-1.211-2.7-2.7c0-1.489,1.211-2.7,2.7-2.7
		s2.7,1.211,2.7,2.7C974.98,53.349,973.77,54.56,972.28,54.56 M972.28,50.66c-0.662,0-1.2,0.539-1.2,1.2c0,0.662,0.538,1.2,1.2,1.2
		s1.2-0.538,1.2-1.2C973.48,51.199,972.942,50.66,972.28,50.66"/>
	<path clip-path="url(#SVGID_2_)" fill="#010101" d="M951.079,69.197c-0.193,0-0.386-0.074-0.532-0.222l-5.862-5.906
		c-1.503-1.521-1.496-3.988,0.016-5.499l4.792-4.811c0.293-0.293,0.768-0.293,1.061,0s0.293,0.768,0,1.061l-4.793,4.811
		c-0.93,0.929-0.934,2.447-0.01,3.383l5.86,5.905c0.292,0.294,0.29,0.769-0.004,1.06C951.461,69.125,951.27,69.197,951.079,69.197"
		/>
	<path clip-path="url(#SVGID_2_)" fill="#010101" d="M1004.035,145.732c-8.669,0-20.411-0.308-20.528-0.311
		c-0.414-0.01-0.741-0.354-0.73-0.769s0.357-0.728,0.77-0.731c0.117,0.003,11.84,0.311,20.489,0.311
		c8.859,0,9.548-6.447,9.548-8.425l-0.005-20.544c-0.012-1.07-0.021-1.776,0.484-2.287c0.415-0.42,0.995-0.468,1.396-0.468h5.681
		c2.754,0,2.861,0,2.861-1.854V79.64c0-14.127-13.952-33.696-40.147-33.696c-0.634,0-1.263,0.009-1.884,0.027
		c-0.008,0.001-0.016,0.001-0.022,0.001c-0.404,0-0.737-0.322-0.75-0.728c-0.012-0.414,0.313-0.76,0.728-0.772
		c0.637-0.019,1.279-0.028,1.929-0.028c27.175,0,41.647,20.44,41.647,35.196v31.014c0,3.354-1.642,3.354-4.361,3.354h-5.681
		c-0.27,0-0.348,0.039-0.351,0.04c-0.042,0.104-0.035,0.685-0.029,1.198l0.005,0.616v19.945
		C1015.083,140.606,1012.182,145.732,1004.035,145.732"/>
	<path clip-path="url(#SVGID_2_)" fill="#010101" d="M1031.467,158.156c-8.676,0-15.576-0.307-15.645-0.31l-60.737,0.262h-0.053
		c-3.168,0-6.147-1.229-8.394-3.467c-2.259-2.25-3.503-5.245-3.503-8.433V89.575l-19.668-19.668c-0.293-0.293-0.293-0.768,0-1.061
		c0.292-0.293,0.767-0.293,1.06,0l20.108,20.108v57.255c0,2.787,1.087,5.404,3.062,7.371c1.963,1.954,4.567,3.028,7.335,3.028h0.046
		l60.775-0.261c0.104,0.004,6.974,0.309,15.614,0.309c8.86,0,9.549-6.447,9.549-8.425l-0.005-20.544
		c-0.012-1.07-0.021-1.777,0.484-2.287c0.415-0.42,0.993-0.468,1.395-0.468h5.681c2.754,0,2.861,0,2.861-1.854V92.064
		c0-12.482-11.598-31.782-36.49-33.567c-0.413-0.029-0.724-0.388-0.694-0.801c0.029-0.415,0.4-0.727,0.802-0.695
		c25.843,1.853,37.883,22.018,37.883,35.063v31.014c0,3.354-1.642,3.354-4.361,3.354h-5.681c-0.27,0-0.347,0.038-0.351,0.04
		c-0.041,0.103-0.034,0.684-0.028,1.198l0.005,0.616v19.946C1042.516,153.03,1039.613,158.156,1031.467,158.156"/>
	<polygon clip-path="url(#SVGID_2_)" fill="#010101" points="873.692,188.966 865.503,188.966 865.503,186.656 884.788,186.656 
		884.788,188.966 876.598,188.966 876.598,210.176 873.692,210.176 	"/>
	<path clip-path="url(#SVGID_2_)" fill="#010101" d="M883.282,201.672c0-1.564,0.158-2.911,0.473-4.043s0.799-2.06,1.452-2.783
		c0.653-0.723,1.488-1.254,2.503-1.592c1.014-0.339,2.234-0.508,3.657-0.508c2.59,0,4.463,0.683,5.618,2.047
		c1.154,1.365,1.733,3.564,1.733,6.598v0.561c0,0.187-0.013,0.361-0.036,0.524h-12.634c0.069,2.124,0.612,3.641,1.627,4.55
		c1.015,0.91,2.666,1.365,4.953,1.365c1.796,0,3.604-0.28,5.425-0.84v2.24c-0.864,0.279-1.756,0.483-2.678,0.612
		c-0.922,0.128-1.907,0.192-2.957,0.192c-3.197,0-5.519-0.7-6.966-2.1C884.006,207.096,883.282,204.82,883.282,201.672
		 M891.367,194.775c-1.819,0-3.149,0.45-3.989,1.348c-0.841,0.898-1.284,2.375-1.33,4.428h9.974
		c-0.047-2.053-0.426-3.529-1.137-4.428C894.173,195.226,893,194.775,891.367,194.775"/>
	<path clip-path="url(#SVGID_2_)" fill="#010101" d="M913.873,208.426c-1.028,1.448-2.94,2.17-5.74,2.17
		c-2.24,0-3.879-0.402-4.917-1.207c-1.04-0.805-1.558-2.071-1.558-3.798s0.542-2.986,1.628-3.78
		c1.085-0.793,2.828-1.189,5.232-1.189c1.866,0,3.523,0.245,4.97,0.734v-2.345c0-1.469-0.392-2.513-1.173-3.132
		c-0.782-0.618-2.082-0.928-3.902-0.928c-1.75,0-3.5,0.279-5.25,0.841v-2.241c0.887-0.256,1.785-0.455,2.695-0.594
		c0.91-0.142,1.866-0.211,2.87-0.211c2.636,0,4.538,0.507,5.705,1.522c1.166,1.015,1.75,2.666,1.75,4.952v8.575
		c0,0.14,0.017,0.246,0.052,0.314c0.035,0.07,0.11,0.129,0.228,0.176l1.049,0.455l-0.279,1.435h-2.905
		c-0.117,0-0.193-0.011-0.228-0.035c-0.035-0.022-0.064-0.104-0.088-0.245L913.873,208.426z M913.487,203.315
		c-1.308-0.513-2.823-0.77-4.55-0.77c-1.61,0-2.765,0.228-3.465,0.683c-0.7,0.455-1.05,1.231-1.05,2.327
		c0,1.05,0.337,1.814,1.015,2.293c0.676,0.479,1.75,0.717,3.22,0.717c1.68,0,2.905-0.297,3.675-0.893
		c0.77-0.595,1.155-1.533,1.155-2.817V203.315z"/>
	<path clip-path="url(#SVGID_2_)" fill="#010101" d="M934.522,195.056c0.746-0.7,1.627-1.26,2.642-1.68s2.153-0.63,3.413-0.63
		c2.192,0,3.78,0.497,4.759,1.487c0.981,0.992,1.47,2.607,1.47,4.848v8.715c0,0.14,0.018,0.245,0.053,0.314
		c0.035,0.07,0.11,0.13,0.227,0.176l1.05,0.456l-0.279,1.434h-3.535c-0.21,0-0.316-0.116-0.316-0.349v-10.642
		c0-1.47-0.303-2.525-0.91-3.167c-0.606-0.642-1.609-0.963-3.01-0.963c-1.073,0-2.036,0.123-2.887,0.367
		c-0.852,0.245-1.534,0.578-2.047,0.998c0.116,0.396,0.192,0.793,0.227,1.189c0.035,0.397,0.052,0.853,0.052,1.365v11.2h-2.8v-10.99
		c0-1.47-0.303-2.525-0.91-3.167c-0.606-0.642-1.609-0.963-3.01-0.963c-0.513,0-1.009,0.041-1.487,0.123s-0.922,0.188-1.33,0.314
		c-0.408,0.129-0.776,0.263-1.102,0.402c-0.328,0.141-0.573,0.28-0.736,0.42v13.86h-2.8v-14.63c0-0.139-0.017-0.245-0.052-0.315
		c-0.035-0.069-0.111-0.128-0.228-0.175l-1.05-0.455l0.281-1.435h3.535c0.21,0,0.314,0.118,0.314,0.35v1.05
		c0.607-0.536,1.33-0.974,2.17-1.312c0.841-0.338,1.867-0.507,3.08-0.507c1.401,0,2.491,0.192,3.273,0.578
		C933.361,193.708,934.009,194.286,934.522,195.056"/>
	<path clip-path="url(#SVGID_2_)" fill="#010101" d="M967.771,189.315c-0.327,0.888-0.805,2.118-1.435,3.692
		c-0.629,1.576-1.354,3.273-2.169,5.093c-0.375,0.84-0.801,1.768-1.278,2.782c-0.479,1.016-0.98,2.054-1.505,3.116
		c-0.525,1.062-1.062,2.124-1.61,3.185c-0.549,1.062-1.067,2.06-1.558,2.992h-2.134c-0.281-1.61-0.561-3.418-0.84-5.424
		c-0.281-2.008-0.537-4.066-0.771-6.179c-0.233-2.111-0.437-4.194-0.612-6.247c-0.175-2.054-0.31-3.943-0.402-5.67h1.679
		c0.093,1.493,0.222,3.139,0.385,4.935c0.163,1.797,0.315,3.57,0.455,5.32c0.093,1.097,0.204,2.193,0.333,3.29
		c0.128,1.097,0.256,2.146,0.385,3.149c0.128,1.004,0.263,1.943,0.402,2.818c0.141,0.875,0.269,1.639,0.385,2.293h0.035
		c0.351-0.654,0.74-1.418,1.173-2.293c0.432-0.875,0.887-1.814,1.365-2.818c0.478-1.003,0.968-2.053,1.47-3.149
		c0.501-1.097,0.997-2.193,1.487-3.29c0.747-1.657,1.493-3.343,2.24-5.058s1.423-3.308,2.03-4.777h1.819
		c0.093,1.47,0.21,3.062,0.351,4.777c0.14,1.715,0.279,3.4,0.421,5.058c0.092,1.097,0.203,2.193,0.332,3.29
		c0.128,1.097,0.256,2.146,0.384,3.149c0.129,1.004,0.257,1.943,0.386,2.818c0.128,0.875,0.25,1.639,0.367,2.293h0.035
		c0.35-0.654,0.747-1.418,1.189-2.293c0.443-0.875,0.904-1.814,1.383-2.818c0.479-1.003,0.974-2.053,1.487-3.149
		s1.016-2.193,1.505-3.29c0.771-1.75,1.559-3.523,2.363-5.32c0.805-1.796,1.51-3.441,2.117-4.935h1.715
		c-0.7,1.727-1.505,3.616-2.415,5.67c-0.91,2.053-1.854,4.136-2.835,6.247c-0.979,2.112-1.96,4.171-2.939,6.179
		c-0.98,2.006-1.902,3.813-2.766,5.424h-2.17c-0.163-0.933-0.332-1.931-0.508-2.992c-0.174-1.061-0.337-2.123-0.489-3.185
		c-0.152-1.062-0.286-2.101-0.402-3.116c-0.116-1.015-0.211-1.942-0.279-2.782c-0.188-1.819-0.311-3.517-0.369-5.093
		c-0.058-1.574-0.11-2.805-0.157-3.692H967.771z"/>
	<path clip-path="url(#SVGID_2_)" fill="#010101" d="M986.322,195.057c0.046-0.188,0.053-0.31,0.018-0.368s-0.111-0.11-0.227-0.157
		l-1.051-0.421l0.314-0.84h2.45c0.187,0,0.314,0.023,0.385,0.07c0.07,0.048,0.082,0.163,0.035,0.35l-2.905,16.485h-1.68
		L986.322,195.057z M987.092,188.161c0-1.003,0.479-1.505,1.437-1.505c0.699,0,1.049,0.315,1.049,0.944
		c0,1.004-0.479,1.505-1.436,1.505C987.443,189.105,987.092,188.791,987.092,188.161"/>
	<path clip-path="url(#SVGID_2_)" fill="#010101" d="M993.182,208.391c-0.047,0.188-0.052,0.311-0.018,0.367
		c0.036,0.059,0.111,0.112,0.228,0.158l1.051,0.42l-0.315,0.84h-2.45c-0.186,0-0.313-0.023-0.385-0.07
		c-0.07-0.046-0.082-0.163-0.035-0.35l3.955-22.436c0.047-0.186,0.053-0.309,0.018-0.366c-0.035-0.059-0.11-0.111-0.228-0.158
		l-1.049-0.42l0.313-0.839h2.45c0.188,0,0.316,0.022,0.385,0.068c0.07,0.047,0.082,0.164,0.035,0.351L993.182,208.391z"/>
	<path clip-path="url(#SVGID_2_)" fill="#010101" d="M1000.847,208.391c-0.047,0.188-0.052,0.311-0.018,0.367
		c0.036,0.059,0.111,0.112,0.228,0.158l1.051,0.42l-0.315,0.84h-2.45c-0.186,0-0.314-0.023-0.385-0.07
		c-0.07-0.046-0.082-0.163-0.035-0.35l3.955-22.436c0.047-0.186,0.053-0.309,0.018-0.366c-0.035-0.059-0.11-0.111-0.228-0.158
		l-1.049-0.42l0.313-0.839h2.45c0.187,0,0.315,0.022,0.385,0.068c0.07,0.047,0.082,0.164,0.035,0.351L1000.847,208.391z"/>
	<path clip-path="url(#SVGID_2_)" fill="#010101" d="M1009.807,186.656h9.205c2.475,0,4.293,0.432,5.46,1.295s1.75,2.182,1.75,3.955
		c0,5.786-2.998,8.68-8.995,8.68h-6.965l-1.715,9.59h-1.644l3.849-21.91c0.024-0.14,0.029-0.227,0.018-0.263
		c-0.012-0.034-0.064-0.075-0.157-0.122l-1.084-0.42L1009.807,186.656z M1010.507,199.186h6.755c2.475,0,4.307-0.577,5.495-1.731
		c1.19-1.156,1.785-2.935,1.785-5.338c0-1.4-0.461-2.421-1.383-3.062c-0.922-0.641-2.374-0.963-4.357-0.963h-6.37L1010.507,199.186z
		"/>
	<path clip-path="url(#SVGID_2_)" fill="#010101" d="M1027.377,204.471c0-1.797,0.204-3.411,0.612-4.848
		c0.408-1.435,0.999-2.653,1.768-3.657c0.771-1.003,1.709-1.773,2.817-2.31c1.108-0.537,2.362-0.805,3.763-0.805
		c2.217,0,3.885,0.519,5.005,1.557c1.12,1.039,1.68,2.562,1.68,4.568c0,1.796-0.203,3.412-0.612,4.847
		c-0.408,1.435-0.997,2.654-1.768,3.657c-0.77,1.004-1.703,1.773-2.8,2.311c-1.097,0.536-2.345,0.805-3.745,0.805
		c-2.217,0-3.891-0.519-5.022-1.558C1027.943,208,1027.377,206.478,1027.377,204.471 M1029.092,204.331
		c0,3.243,1.691,4.864,5.075,4.864c1.12,0,2.123-0.232,3.01-0.699s1.64-1.138,2.258-2.013s1.091-1.937,1.417-3.186
		c0.327-1.247,0.49-2.642,0.49-4.182c0-3.243-1.691-4.865-5.075-4.865c-1.12,0-2.123,0.233-3.01,0.7s-1.64,1.137-2.258,2.012
		s-1.091,1.938-1.417,3.186C1029.255,201.396,1029.092,202.791,1029.092,204.331"/>
	<path clip-path="url(#SVGID_2_)" fill="#010101" d="M1057.722,195.546c-0.49,1.145-1.033,2.351-1.628,3.622
		c-0.595,1.273-1.202,2.55-1.82,3.833c-0.617,1.283-1.248,2.537-1.89,3.763c-0.642,1.225-1.255,2.362-1.838,3.412h-1.889
		c-0.351-1.68-0.654-3.261-0.911-4.742c-0.256-1.481-0.49-2.905-0.7-4.271s-0.39-2.694-0.542-3.99
		c-0.152-1.295-0.298-2.595-0.438-3.902h1.575c0.256,2.684,0.565,5.273,0.927,7.771c0.362,2.497,0.788,5.005,1.278,7.525h0.034
		c0.607-1.121,1.213-2.292,1.82-3.519c0.606-1.225,1.236-2.502,1.89-3.832c0.631-1.307,1.261-2.643,1.891-4.008
		c0.63-1.364,1.179-2.572,1.645-3.622h1.715c0.28,2.613,0.583,5.157,0.91,7.63c0.327,2.475,0.7,4.924,1.12,7.351h0.036
		c0.605-1.051,1.241-2.206,1.906-3.466s1.324-2.555,1.978-3.885c0.677-1.377,1.348-2.771,2.013-4.183
		c0.665-1.411,1.242-2.665,1.732-3.763h1.61c-0.584,1.308-1.179,2.607-1.785,3.902c-0.607,1.296-1.255,2.625-1.942,3.99
		c-0.688,1.365-1.429,2.789-2.222,4.271c-0.795,1.481-1.658,3.062-2.591,4.742h-1.855c-0.21-1.05-0.42-2.188-0.63-3.412
		c-0.21-1.226-0.402-2.479-0.577-3.763s-0.333-2.56-0.472-3.833C1057.932,197.896,1057.814,196.69,1057.722,195.546"/>
	<path clip-path="url(#SVGID_2_)" fill="#010101" d="M1070.917,204.471c0-1.82,0.199-3.447,0.595-4.883
		c0.397-1.435,0.968-2.653,1.715-3.657c0.747-1.003,1.663-1.767,2.748-2.292s2.315-0.788,3.692-0.788c2.1,0,3.651,0.479,4.655,1.437
		s1.505,2.438,1.505,4.443c0,1.237-0.152,2.394-0.455,3.465h-12.705c-0.047,0.305-0.076,0.654-0.088,1.052
		c-0.012,0.396-0.018,0.804-0.018,1.224c0.07,3.174,2.077,4.76,6.021,4.76c1.656,0,3.36-0.231,5.11-0.699l-0.245,1.435
		c-1.61,0.42-3.289,0.63-5.039,0.63c-2.451,0-4.312-0.518-5.583-1.557C1071.553,208,1070.917,206.478,1070.917,204.471
		 M1079.597,194.146c-1.819,0-3.308,0.59-4.462,1.769c-1.155,1.178-1.908,2.863-2.258,5.057h11.13
		c0.07-0.326,0.123-0.688,0.157-1.085c0.036-0.396,0.053-0.793,0.053-1.19c0-1.586-0.367-2.74-1.102-3.465
		C1082.38,194.508,1081.207,194.146,1079.597,194.146"/>
	<path clip-path="url(#SVGID_2_)" fill="#010101" d="M1098.672,192.851c0.35,0,0.711,0.019,1.085,0.053
		c0.373,0.035,0.652,0.088,0.84,0.157l-0.525,1.437c-0.233-0.071-0.507-0.124-0.822-0.159c-0.315-0.034-0.636-0.051-0.963-0.051
		c-0.63,0-1.218,0.086-1.768,0.261c-0.548,0.176-1.05,0.392-1.505,0.647c-0.455,0.259-0.857,0.531-1.207,0.823
		c-0.351,0.292-0.643,0.542-0.875,0.752l-2.38,13.405h-1.681l2.66-15.12c0.047-0.186,0.053-0.309,0.018-0.367
		s-0.109-0.109-0.228-0.157l-1.05-0.421l0.315-0.84h2.415c0.188,0,0.315,0.023,0.385,0.07s0.081,0.163,0.035,0.35l-0.28,1.682
		c0.606-0.725,1.359-1.325,2.259-1.804C1096.297,193.09,1097.388,192.851,1098.672,192.851"/>
</g>
<g>
	<path fill="#010101" d="M91.389,86.167c-7.382,0-13.252-0.262-13.31-0.265h-0.001c-2.85,0-5.191-2.341-5.191-5.219l0.102-3.697
		V50.11c0-1.013,0.394-1.966,1.111-2.684l4.838-4.837c0.904-0.904,2.107-1.403,3.387-1.403h10.638c0.352,0,0.638,0.286,0.638,0.638
		c0,0.353-0.286,0.638-0.638,0.638H82.326c-0.939,0-1.821,0.366-2.485,1.029l-4.839,4.838c-0.476,0.476-0.736,1.107-0.736,1.781
		v26.895l-0.102,3.697c0,2.157,1.77,3.926,3.944,3.926c0.088,0.003,5.931,0.264,13.281,0.264c7.537,0,8.123-5.485,8.123-7.167
		l-0.004-17.478c-0.01-0.91-0.018-1.511,0.412-1.945c0.353-0.358,0.847-0.399,1.187-0.399h4.833c2.343,0,2.434,0,2.434-1.577V29.941
		c0-12.018-11.869-28.666-34.154-28.666c-21.383,0-36.319,12.968-36.319,31.537c0,14.867,7.364,26.274,11.752,31.75l0.143,0.178
		c1.459,1.837,1.453,6.115,1.448,6.598v9.609c0,2.175,1.768,3.944,3.944,3.944c2.174,0,3.943-1.769,3.943-3.944l-0.008-1.572V49.672
		c0-0.407-0.159-0.79-0.447-1.078l-8.328-8.328c-0.25-0.249-0.25-0.653,0-0.902c0.249-0.25,0.653-0.25,0.902,0l8.328,8.328
		c0.529,0.529,0.82,1.232,0.82,1.98l0.009,31.272c0,2.881-2.342,5.223-5.22,5.223c-2.878,0-5.22-2.342-5.22-5.22v-9.616
		c0.013-1.192-0.174-4.54-1.17-5.797l-0.14-0.173c-4.494-5.606-12.033-17.291-12.033-32.548C36.624,13.492,52.083,0,74.218,0
		c23.119,0,35.431,17.389,35.431,29.941v26.385c0,2.853-1.396,2.853-3.71,2.853h-4.833c-0.229,0-0.296,0.033-0.298,0.034
		c-0.036,0.089-0.03,0.583-0.025,1.02l0.004,0.524v16.968C100.787,81.807,98.318,86.167,91.389,86.167"/>
	<path fill="#010101" d="M66.68,47.782c-0.163,0-0.327-0.062-0.451-0.187c-0.25-0.25-0.25-0.653,0-0.901l14.895-14.896
		c0.962-0.962,2.242-1.492,3.603-1.492h3.695c1.005,0,1.991-0.408,2.7-1.118l5.24-5.239c0.249-0.249,0.653-0.249,0.902,0
		c0.249,0.25,0.249,0.652,0,0.901l-5.24,5.24c-0.948,0.948-2.262,1.492-3.602,1.492h-3.695c-1.02,0-1.979,0.397-2.7,1.119
		L67.131,47.595C67.007,47.72,66.844,47.782,66.68,47.782"/>
	<path fill="#010101" d="M68.235,38.709c-1.267,0-2.297-1.03-2.297-2.297s1.03-2.297,2.297-2.297s2.297,1.03,2.297,2.297
		S69.502,38.709,68.235,38.709 M68.235,35.392c-0.563,0-1.021,0.459-1.021,1.021c0,0.564,0.458,1.021,1.021,1.021
		c0.563,0,1.021-0.457,1.021-1.021C69.256,35.851,68.799,35.392,68.235,35.392"/>
	<path fill="#010101" d="M94.622,44.257c-1.267,0-2.296-1.031-2.296-2.297c0-1.267,1.03-2.297,2.296-2.297
		c1.267,0,2.297,1.031,2.297,2.297C96.919,43.226,95.889,44.257,94.622,44.257 M94.622,40.938c-0.563,0-1.021,0.458-1.021,1.021
		c0,0.562,0.458,1.021,1.021,1.021s1.021-0.458,1.021-1.021C95.643,41.396,95.185,40.938,94.622,40.938"/>
	<path fill="#010101" d="M97.939,25.594c-1.267,0-2.297-1.03-2.297-2.297c0-1.267,1.03-2.297,2.297-2.297
		c1.268,0,2.297,1.03,2.297,2.297C100.237,24.564,99.207,25.594,97.939,25.594 M97.939,22.276c-0.563,0-1.021,0.458-1.021,1.021
		c0,0.563,0.458,1.021,1.021,1.021c0.564,0,1.021-0.458,1.021-1.021C98.96,22.735,98.503,22.276,97.939,22.276"/>
	<path fill="#010101" d="M48.588,31.296c-1.267,0-2.297-1.03-2.297-2.296c0-1.267,1.031-2.297,2.297-2.297s2.296,1.03,2.296,2.297
		C50.884,30.266,49.854,31.296,48.588,31.296 M48.588,27.979c-0.563,0-1.021,0.458-1.021,1.021s0.458,1.021,1.021,1.021
		c0.563,0,1.021-0.458,1.021-1.021S49.151,27.979,48.588,27.979"/>
	<path fill="#010101" d="M49.625,40.939c-1.267,0-2.297-1.031-2.297-2.297c0-1.267,1.03-2.297,2.297-2.297
		c1.266,0,2.296,1.03,2.296,2.297C51.921,39.908,50.891,40.939,49.625,40.939 M49.625,37.621c-0.563,0-1.021,0.458-1.021,1.021
		c0,0.562,0.458,1.021,1.021,1.021s1.02-0.459,1.02-1.021C50.645,38.079,50.188,37.621,49.625,37.621"/>
	<path fill="#010101" d="M67.154,35.851c-0.164,0-0.327-0.062-0.451-0.187L55.766,24.727c-0.535-0.535-1.467-0.535-2.002,0
		l-3.551,3.551c-0.249,0.249-0.654,0.249-0.903,0s-0.249-0.653,0-0.902l3.551-3.55c1.018-1.019,2.791-1.019,3.808,0l10.937,10.937
		c0.25,0.249,0.25,0.652,0,0.902C67.48,35.789,67.317,35.851,67.154,35.851"/>
	<path fill="#010101" d="M81.339,24.09h-5.725c-0.585,0-1.108-0.348-1.332-0.889c-0.225-0.541-0.102-1.157,0.312-1.571l8.639-8.637
		c0.506-0.507,0.496-1.152,0.316-1.585c-0.18-0.435-0.627-0.898-1.344-0.898H71.396c-0.934,0-1.812,0.363-2.471,1.024l-7.309,7.307
		c-0.824,0.825-1.921,1.281-3.088,1.281h-5.804c-0.635,0-1.203-0.38-1.447-0.967c-0.244-0.588-0.109-1.258,0.339-1.708l4.838-4.838
		c0.25-0.249,0.653-0.249,0.902,0s0.249,0.653,0,0.901l-4.838,4.839c-0.12,0.119-0.091,0.25-0.063,0.316
		c0.028,0.066,0.1,0.179,0.268,0.179h5.804c0.826,0,1.602-0.321,2.187-0.906l7.308-7.309c0.901-0.901,2.1-1.396,3.374-1.396h10.809
		c1.125,0,2.093,0.645,2.523,1.686c0.431,1.039,0.204,2.18-0.592,2.976l-8.639,8.638c-0.063,0.064-0.055,0.133-0.035,0.179
		c0.028,0.068,0.08,0.103,0.152,0.103h5.725c0.938,0,1.821-0.366,2.484-1.029l5.498-5.498c0.249-0.25,0.653-0.25,0.902,0
		c0.25,0.249,0.25,0.653,0,0.902l-5.497,5.497C83.822,23.593,82.619,24.09,81.339,24.09"/>
	<path fill="#010101" d="M58.126,13.939c-1.267,0-2.297-1.03-2.297-2.297c0-1.267,1.03-2.297,2.297-2.297
		c1.266,0,2.296,1.03,2.296,2.297C60.422,12.91,59.392,13.939,58.126,13.939 M58.126,10.622c-0.563,0-1.021,0.458-1.021,1.021
		c0,0.563,0.458,1.021,1.021,1.021c0.563,0,1.021-0.458,1.021-1.021C59.146,11.08,58.689,10.622,58.126,10.622"/>
	<path fill="#010101" d="M74.138,32.819c-1.266,0-2.297-1.032-2.297-2.297c0-1.267,1.031-2.297,2.297-2.297
		c1.267,0,2.297,1.03,2.297,2.297C76.435,31.788,75.404,32.819,74.138,32.819 M74.138,29.501c-0.563,0-1.021,0.458-1.021,1.021
		s0.458,1.021,1.021,1.021c0.563,0,1.021-0.458,1.021-1.021S74.701,29.501,74.138,29.501"/>
	<path fill="#010101" d="M72.97,17.526c-1.267,0-2.297-1.03-2.297-2.296c0-1.267,1.03-2.298,2.297-2.298
		c1.267,0,2.297,1.031,2.297,2.298C75.267,16.496,74.236,17.526,72.97,17.526 M72.97,14.208c-0.563,0-1.021,0.459-1.021,1.021
		c0,0.563,0.458,1.021,1.021,1.021s1.021-0.457,1.021-1.021C73.99,14.667,73.533,14.208,72.97,14.208"/>
	<path fill="#010101" d="M90.836,17.568c-1.267,0-2.297-1.03-2.297-2.297c0-1.267,1.03-2.297,2.297-2.297
		c1.267,0,2.297,1.03,2.297,2.297C93.134,16.538,92.104,17.568,90.836,17.568 M90.836,14.25c-0.563,0-1.021,0.458-1.021,1.021
		c0,0.563,0.458,1.021,1.021,1.021c0.564,0,1.021-0.458,1.021-1.021C91.857,14.709,91.4,14.25,90.836,14.25"/>
	<path fill="#010101" d="M72.8,30.021c-0.164,0-0.328-0.062-0.452-0.189l-4.987-5.024c-1.279-1.294-1.272-3.393,0.014-4.678
		l4.077-4.093c0.25-0.25,0.653-0.25,0.903,0c0.249,0.249,0.249,0.653,0,0.903l-4.077,4.092c-0.792,0.791-0.795,2.082-0.009,2.877
		l4.985,5.024c0.249,0.25,0.247,0.654-0.004,0.901C73.125,29.959,72.963,30.021,72.8,30.021"/>
	<path fill="#010101" d="M117.851,95.13c-7.375,0-17.364-0.262-17.463-0.265c-0.353-0.008-0.631-0.301-0.622-0.654
		c0.009-0.353,0.304-0.619,0.655-0.622c0.1,0.002,10.072,0.264,17.43,0.264c7.537,0,8.122-5.485,8.122-7.167l-0.004-17.477
		c-0.01-0.911-0.017-1.511,0.412-1.946c0.354-0.357,0.847-0.397,1.188-0.397h4.832c2.343,0,2.435,0,2.435-1.577V38.904
		c0-12.018-11.87-28.666-34.154-28.666c-0.539,0-1.074,0.008-1.603,0.023c-0.007,0-0.014,0-0.019,0c-0.344,0-0.627-0.274-0.638-0.62
		c-0.01-0.352,0.267-0.646,0.619-0.656c0.542-0.016,1.088-0.024,1.641-0.024c23.118,0,35.43,17.389,35.43,29.942v26.384
		c0,2.853-1.396,2.853-3.71,2.853h-4.832c-0.23,0-0.296,0.033-0.299,0.034c-0.036,0.088-0.03,0.583-0.025,1.02l0.004,0.524v16.967
		C127.25,90.769,124.781,95.13,117.851,95.13"/>
	<path fill="#010101" d="M141.188,105.699c-7.38,0-13.251-0.261-13.309-0.264l-51.67,0.223h-0.045c-2.695,0-5.229-1.045-7.141-2.949
		c-1.922-1.915-2.98-4.463-2.98-7.175v-48.18L49.31,30.624c-0.249-0.249-0.249-0.653,0-0.903c0.249-0.249,0.653-0.249,0.902,0
		l17.105,17.107v48.707c0,2.371,0.925,4.597,2.605,6.271c1.67,1.662,3.885,2.576,6.24,2.576h0.04l51.702-0.222
		c0.088,0.003,5.933,0.262,13.283,0.262c7.538,0,8.124-5.484,8.124-7.167l-0.004-17.478c-0.01-0.911-0.018-1.512,0.412-1.946
		c0.354-0.357,0.845-0.398,1.187-0.398h4.833c2.343,0,2.434,0,2.434-1.577V49.473c0-10.618-9.867-27.038-31.043-28.556
		c-0.352-0.024-0.615-0.331-0.591-0.682c0.025-0.353,0.341-0.619,0.682-0.591c21.985,1.576,32.228,18.731,32.228,29.828v26.385
		c0,2.853-1.397,2.853-3.71,2.853h-4.833c-0.229,0-0.295,0.033-0.298,0.034c-0.035,0.088-0.029,0.582-0.024,1.02l0.004,0.523v16.969
		C150.587,101.338,148.118,105.699,141.188,105.699"/>
	<polygon fill="#010101" points="6.966,131.91 0,131.91 0,129.945 16.405,129.945 16.405,131.91 9.438,131.91 9.438,149.953 
		6.966,149.953 	"/>
	<path fill="#010101" d="M15.125,142.72c0-1.331,0.135-2.479,0.402-3.44s0.68-1.751,1.235-2.367
		c0.556-0.615,1.266-1.066,2.129-1.354c0.863-0.288,1.901-0.433,3.111-0.433c2.204,0,3.797,0.58,4.78,1.74
		c0.981,1.163,1.474,3.033,1.474,5.613v0.478c0,0.157-0.011,0.308-0.031,0.445H17.478c0.059,1.809,0.521,3.097,1.384,3.872
		c0.864,0.774,2.268,1.16,4.214,1.16c1.527,0,3.065-0.238,4.615-0.713v1.904c-0.735,0.237-1.494,0.412-2.278,0.521
		c-0.785,0.108-1.623,0.163-2.516,0.163c-2.719,0-4.694-0.596-5.926-1.787C15.741,147.333,15.125,145.398,15.125,142.72
		 M22.002,136.852c-1.547,0-2.679,0.384-3.393,1.147c-0.715,0.764-1.092,2.021-1.131,3.767h8.485
		c-0.041-1.746-0.363-3.003-0.968-3.767S23.392,136.852,22.002,136.852"/>
	<path fill="#010101" d="M41.148,148.465c-0.875,1.233-2.501,1.846-4.883,1.846c-1.906,0-3.3-0.342-4.183-1.027
		c-0.884-0.686-1.326-1.763-1.326-3.23s0.462-2.539,1.385-3.216c0.923-0.674,2.406-1.013,4.451-1.013
		c1.588,0,2.998,0.21,4.228,0.625v-1.994c0-1.25-0.333-2.138-0.998-2.663c-0.666-0.526-1.771-0.79-3.319-0.79
		c-1.489,0-2.977,0.237-4.466,0.716v-1.906c0.754-0.219,1.519-0.389,2.292-0.506c0.774-0.12,1.588-0.18,2.442-0.18
		c2.242,0,3.861,0.43,4.853,1.296c0.992,0.861,1.489,2.267,1.489,4.212v7.295c0,0.12,0.014,0.209,0.044,0.268
		c0.03,0.06,0.093,0.109,0.194,0.148l0.892,0.389l-0.237,1.22h-2.472c-0.099,0-0.164-0.009-0.194-0.028s-0.055-0.09-0.075-0.21
		L41.148,148.465z M40.821,144.117c-1.113-0.436-2.401-0.654-3.871-0.654c-1.37,0-2.352,0.192-2.947,0.58
		c-0.596,0.387-0.894,1.048-0.894,1.979c0,0.896,0.286,1.545,0.863,1.953c0.575,0.405,1.489,0.608,2.739,0.608
		c1.429,0,2.472-0.253,3.126-0.759c0.655-0.506,0.983-1.306,0.983-2.397V144.117z"/>
	<path fill="#010101" d="M58.716,137.091c0.635-0.598,1.384-1.072,2.248-1.431c0.864-0.354,1.832-0.534,2.903-0.534
		c1.866,0,3.216,0.424,4.049,1.265c0.834,0.845,1.25,2.219,1.25,4.123v7.415c0,0.12,0.016,0.209,0.045,0.268
		c0.03,0.06,0.094,0.109,0.193,0.148l0.894,0.389l-0.237,1.22h-3.007c-0.18,0-0.27-0.099-0.27-0.297v-9.053
		c0-1.25-0.257-2.148-0.774-2.694c-0.515-0.546-1.369-0.818-2.561-0.818c-0.912,0-1.731,0.104-2.456,0.312
		c-0.725,0.209-1.305,0.492-1.742,0.85c0.1,0.338,0.164,0.674,0.194,1.012s0.044,0.725,0.044,1.161v9.528h-2.382v-9.35
		c0-1.25-0.258-2.148-0.775-2.694c-0.515-0.546-1.369-0.818-2.56-0.818c-0.437,0-0.858,0.035-1.265,0.104
		c-0.407,0.07-0.785,0.16-1.132,0.268c-0.347,0.108-0.66,0.225-0.938,0.342c-0.279,0.12-0.487,0.238-0.626,0.358v11.79H47.43
		v-12.444c0-0.118-0.014-0.211-0.044-0.27s-0.095-0.109-0.194-0.148l-0.893-0.388l0.239-1.219h3.007c0.178,0,0.266,0.1,0.266,0.296
		v0.892c0.517-0.455,1.132-0.826,1.847-1.116c0.715-0.285,1.588-0.43,2.62-0.43c1.191,0,2.119,0.164,2.785,0.491
		C57.728,135.944,58.279,136.435,58.716,137.091"/>
	<path fill="#010101" d="M87.001,132.207c-0.279,0.755-0.685,1.802-1.221,3.142c-0.535,1.341-1.152,2.785-1.845,4.332
		c-0.319,0.716-0.681,1.503-1.087,2.366c-0.407,0.864-0.834,1.748-1.28,2.651c-0.447,0.902-0.904,1.808-1.37,2.709
		c-0.467,0.903-0.908,1.754-1.325,2.546h-1.816c-0.239-1.37-0.478-2.907-0.715-4.614c-0.238-1.708-0.457-3.46-0.655-5.257
		c-0.199-1.795-0.372-3.566-0.521-5.314c-0.148-1.746-0.263-3.354-0.342-4.822h1.429c0.079,1.27,0.189,2.669,0.327,4.196
		c0.139,1.53,0.268,3.039,0.388,4.527c0.079,0.933,0.173,1.867,0.283,2.798c0.109,0.935,0.218,1.826,0.328,2.679
		c0.109,0.855,0.224,1.654,0.342,2.399c0.12,0.745,0.229,1.395,0.328,1.95h0.029c0.299-0.556,0.63-1.205,0.998-1.95
		s0.754-1.544,1.162-2.399c0.406-0.853,0.823-1.744,1.25-2.679c0.426-0.931,0.848-1.865,1.266-2.798
		c0.635-1.41,1.27-2.843,1.905-4.303c0.636-1.458,1.21-2.813,1.728-4.063h1.547c0.079,1.25,0.179,2.605,0.298,4.063
		c0.119,1.46,0.237,2.893,0.358,4.303c0.078,0.933,0.173,1.867,0.282,2.798c0.109,0.935,0.218,1.826,0.327,2.679
		c0.11,0.855,0.218,1.654,0.328,2.399s0.213,1.395,0.313,1.95h0.03c0.297-0.556,0.635-1.205,1.012-1.95
		c0.377-0.745,0.769-1.544,1.177-2.399c0.407-0.853,0.828-1.744,1.265-2.679c0.437-0.931,0.864-1.865,1.28-2.798
		c0.655-1.488,1.326-2.997,2.01-4.527c0.685-1.527,1.284-2.927,1.801-4.196h1.459c-0.596,1.468-1.281,3.076-2.055,4.822
		c-0.774,1.748-1.578,3.52-2.412,5.314c-0.833,1.797-1.667,3.549-2.5,5.257c-0.833,1.707-1.618,3.244-2.353,4.614h-1.846
		c-0.138-0.792-0.283-1.643-0.432-2.546c-0.147-0.901-0.286-1.807-0.416-2.709c-0.129-0.903-0.243-1.787-0.342-2.651
		c-0.099-0.863-0.179-1.65-0.237-2.366c-0.161-1.547-0.265-2.991-0.314-4.332c-0.049-1.34-0.094-2.387-0.134-3.142H87.001z"/>
	<path fill="#010101" d="M102.782,137.091c0.04-0.159,0.045-0.264,0.015-0.313c-0.03-0.051-0.095-0.094-0.193-0.134l-0.894-0.357
		l0.267-0.715h2.085c0.159,0,0.268,0.02,0.327,0.061c0.06,0.04,0.07,0.138,0.03,0.297l-2.472,14.024h-1.429L102.782,137.091z
		 M103.437,131.226c0-0.853,0.408-1.28,1.222-1.28c0.595,0,0.892,0.268,0.892,0.803c0,0.854-0.407,1.28-1.221,1.28
		C103.736,132.028,103.437,131.76,103.437,131.226"/>
	<path fill="#010101" d="M108.618,148.435c-0.041,0.159-0.044,0.264-0.015,0.312c0.031,0.05,0.095,0.096,0.194,0.136l0.894,0.358
		l-0.269,0.713h-2.084c-0.158,0-0.266-0.02-0.327-0.059c-0.06-0.04-0.07-0.14-0.03-0.299l3.364-19.085
		c0.041-0.159,0.045-0.265,0.016-0.312c-0.03-0.051-0.094-0.096-0.194-0.136l-0.892-0.356l0.267-0.714h2.084
		c0.159,0,0.269,0.02,0.327,0.059c0.06,0.039,0.069,0.14,0.03,0.299L108.618,148.435z"/>
	<path fill="#010101" d="M115.139,148.435c-0.04,0.159-0.044,0.264-0.015,0.312c0.031,0.05,0.095,0.096,0.194,0.136l0.894,0.358
		l-0.269,0.713h-2.084c-0.158,0-0.268-0.02-0.327-0.059c-0.06-0.04-0.07-0.14-0.03-0.299l3.365-19.085
		c0.04-0.159,0.045-0.265,0.015-0.312c-0.03-0.051-0.094-0.096-0.194-0.136l-0.892-0.356l0.267-0.714h2.084
		c0.159,0,0.269,0.02,0.327,0.059c0.06,0.039,0.07,0.14,0.03,0.299L115.139,148.435z"/>
	<path fill="#010101" d="M122.762,129.945h7.83c2.105,0,3.652,0.367,4.645,1.102c0.993,0.735,1.488,1.856,1.488,3.363
		c0,4.924-2.55,7.384-7.652,7.384h-5.925l-1.459,8.159h-1.399l3.274-18.638c0.021-0.12,0.025-0.194,0.016-0.225
		c-0.011-0.028-0.055-0.063-0.134-0.104l-0.922-0.355L122.762,129.945z M123.357,140.604h5.746c2.105,0,3.664-0.49,4.675-1.473
		c1.013-0.983,1.519-2.498,1.519-4.542c0-1.19-0.392-2.06-1.176-2.604c-0.784-0.545-2.02-0.819-3.707-0.819h-5.42L123.357,140.604z"
		/>
	<path fill="#010101" d="M137.708,145.1c0-1.527,0.174-2.901,0.521-4.123c0.347-1.223,0.85-2.258,1.503-3.112
		c0.656-0.854,1.454-1.508,2.397-1.964c0.943-0.458,2.01-0.685,3.201-0.685c1.886,0,3.305,0.44,4.257,1.323
		c0.953,0.885,1.429,2.18,1.429,3.888c0,1.526-0.173,2.901-0.521,4.123c-0.347,1.219-0.848,2.257-1.503,3.11
		c-0.655,0.854-1.449,1.51-2.382,1.966c-0.933,0.456-1.994,0.685-3.186,0.685c-1.885,0-3.31-0.44-4.272-1.324
		C138.19,148.103,137.708,146.807,137.708,145.1 M139.168,144.981c0,2.76,1.438,4.138,4.317,4.138c0.953,0,1.806-0.198,2.561-0.596
		c0.754-0.396,1.395-0.968,1.921-1.711c0.525-0.745,0.928-1.647,1.205-2.711c0.278-1.06,0.417-2.246,0.417-3.557
		c0-2.76-1.439-4.139-4.317-4.139c-0.953,0-1.806,0.198-2.56,0.596c-0.754,0.396-1.396,0.967-1.921,1.71
		c-0.526,0.746-0.928,1.649-1.206,2.712C139.306,142.484,139.168,143.67,139.168,144.981"/>
	<path fill="#010101" d="M163.523,137.509c-0.417,0.973-0.878,1.997-1.385,3.079c-0.505,1.084-1.023,2.171-1.548,3.261
		c-0.525,1.094-1.062,2.16-1.608,3.203c-0.545,1.04-1.068,2.009-1.563,2.901h-1.606c-0.298-1.43-0.557-2.772-0.775-4.034
		c-0.218-1.26-0.417-2.471-0.595-3.633c-0.179-1.161-0.332-2.291-0.461-3.396c-0.129-1.101-0.253-2.207-0.372-3.319h1.34
		c0.218,2.284,0.481,4.487,0.789,6.612c0.308,2.123,0.67,4.257,1.087,6.401h0.03c0.516-0.955,1.031-1.95,1.548-2.995
		c0.516-1.04,1.052-2.127,1.607-3.259c0.537-1.112,1.073-2.249,1.609-3.409c0.536-1.16,1.002-2.188,1.399-3.082h1.459
		c0.238,2.225,0.495,4.389,0.774,6.491c0.278,2.104,0.596,4.188,0.953,6.254h0.031c0.515-0.895,1.055-1.879,1.622-2.949
		c0.565-1.07,1.126-2.173,1.682-3.305c0.576-1.172,1.146-2.357,1.712-3.558c0.566-1.202,1.057-2.269,1.474-3.202h1.37
		c-0.497,1.112-1.003,2.219-1.519,3.319c-0.517,1.104-1.067,2.234-1.652,3.396c-0.586,1.162-1.215,2.373-1.891,3.633
		c-0.676,1.262-1.41,2.604-2.204,4.034h-1.579c-0.178-0.893-0.357-1.861-0.536-2.901c-0.179-1.043-0.343-2.109-0.491-3.203
		c-0.149-1.09-0.284-2.177-0.402-3.261C163.701,139.506,163.602,138.481,163.523,137.509"/>
	<path fill="#010101" d="M174.749,145.1c0-1.549,0.17-2.932,0.506-4.153c0.338-1.22,0.823-2.258,1.459-3.11
		c0.636-0.854,1.415-1.504,2.338-1.951c0.923-0.446,1.97-0.669,3.141-0.669c1.787,0,3.106,0.408,3.961,1.221
		c0.854,0.813,1.28,2.073,1.28,3.781c0,1.051-0.129,2.035-0.388,2.946h-10.808c-0.04,0.26-0.065,0.557-0.075,0.895
		c-0.01,0.336-0.015,0.686-0.015,1.041c0.06,2.7,1.768,4.051,5.122,4.051c1.41,0,2.859-0.199,4.348-0.596l-0.208,1.22
		c-1.37,0.357-2.798,0.536-4.287,0.536c-2.085,0-3.668-0.44-4.75-1.324C175.29,148.103,174.749,146.807,174.749,145.1
		 M182.133,136.317c-1.548,0-2.814,0.501-3.796,1.503c-0.983,1.003-1.624,2.437-1.921,4.302h9.469
		c0.06-0.278,0.105-0.585,0.134-0.923c0.031-0.336,0.045-0.674,0.045-1.012c0-1.352-0.312-2.332-0.937-2.948
		C184.5,136.624,183.502,136.317,182.133,136.317"/>
	<path fill="#010101" d="M198.36,135.216c0.298,0,0.604,0.016,0.923,0.044c0.317,0.03,0.555,0.074,0.714,0.133l-0.447,1.223
		c-0.198-0.061-0.43-0.106-0.699-0.135c-0.268-0.03-0.541-0.044-0.819-0.044c-0.536,0-1.036,0.072-1.504,0.223
		c-0.465,0.148-0.892,0.331-1.28,0.55c-0.387,0.221-0.729,0.452-1.027,0.7c-0.298,0.249-0.547,0.461-0.744,0.64l-2.025,11.404
		h-1.429l2.263-12.862c0.04-0.159,0.045-0.264,0.015-0.313c-0.03-0.051-0.093-0.092-0.193-0.134l-0.894-0.357l0.268-0.715h2.055
		c0.159,0,0.268,0.02,0.327,0.061c0.059,0.04,0.068,0.138,0.03,0.297l-0.239,1.431c0.516-0.617,1.157-1.128,1.922-1.533
		C196.339,135.419,197.268,135.216,198.36,135.216"/>
</g>
</svg>
