<?xml version="1.0" encoding="utf-8"?>
<!-- Generator: Adobe Illustrator 15.1.0, SVG Export Plug-In . SVG Version: 6.00 Build 0)  -->
<!DOCTYPE svg PUBLIC "-//W3C//DTD SVG 1.1//EN" "http://www.w3.org/Graphics/SVG/1.1/DTD/svg11.dtd">
<svg version="1.1" id="Layer_1" xmlns="http://www.w3.org/2000/svg" xmlns:xlink="http://www.w3.org/1999/xlink" x="0px" y="0px"
	 width="200px" height="150.311px" viewBox="0 0 200 150.311" enable-background="new 0 0 200 150.311" xml:space="preserve">
<g>
	<path fill="#010101" d="M91.389,86.168c-7.382,0-13.252-0.263-13.31-0.266h-0.001c-2.85,0-5.191-2.342-5.191-5.219l0.102-3.697
		V50.11c0-1.013,0.394-1.966,1.111-2.684l4.838-4.837c0.904-0.904,2.107-1.403,3.387-1.403h10.638c0.352,0,0.638,0.286,0.638,0.638
		c0,0.353-0.286,0.638-0.638,0.638H82.326c-0.939,0-1.821,0.366-2.485,1.029l-4.839,4.838c-0.476,0.476-0.736,1.107-0.736,1.781
		v26.894l-0.102,3.697c0,2.158,1.77,3.926,3.944,3.926c0.088,0.004,5.931,0.264,13.281,0.264c7.537,0,8.123-5.484,8.123-7.166
		l-0.004-17.478c-0.01-0.909-0.018-1.511,0.412-1.945c0.353-0.358,0.847-0.399,1.187-0.399h4.833c2.343,0,2.435,0,2.435-1.576
		V29.941c0-12.018-11.87-28.666-34.155-28.666c-21.383,0-36.319,12.968-36.319,31.537c0,14.867,7.364,26.273,11.752,31.75
		l0.143,0.178c1.459,1.837,1.453,6.115,1.448,6.598v9.609c0,2.176,1.768,3.943,3.944,3.943c2.174,0,3.943-1.768,3.943-3.943
		l-0.008-1.572V49.672c0-0.407-0.159-0.79-0.447-1.078l-8.328-8.328c-0.25-0.249-0.25-0.653,0-0.902c0.249-0.25,0.653-0.25,0.902,0
		l8.328,8.328c0.529,0.529,0.82,1.232,0.82,1.98l0.009,31.272c0,2.882-2.342,5.224-5.22,5.224c-2.878,0-5.22-2.342-5.22-5.221
		v-9.616c0.013-1.192-0.174-4.54-1.17-5.798l-0.14-0.173c-4.494-5.606-12.033-17.291-12.033-32.548C36.624,13.492,52.083,0,74.218,0
		c23.119,0,35.43,17.389,35.43,29.941v26.385c0,2.854-1.396,2.854-3.71,2.854h-4.833c-0.229,0-0.295,0.032-0.297,0.033
		c-0.036,0.089-0.03,0.582-0.025,1.02l0.004,0.524v16.968C100.787,81.807,98.318,86.168,91.389,86.168"/>
	<path fill="#010101" d="M66.68,47.782c-0.163,0-0.327-0.062-0.451-0.187c-0.25-0.25-0.25-0.653,0-0.901l14.895-14.896
		c0.962-0.962,2.242-1.492,3.603-1.492h3.695c1.005,0,1.991-0.408,2.7-1.118l5.24-5.239c0.249-0.249,0.653-0.249,0.902,0
		c0.249,0.25,0.249,0.652,0,0.901l-5.24,5.24c-0.948,0.948-2.262,1.492-3.602,1.492h-3.695c-1.02,0-1.979,0.397-2.7,1.119
		L67.131,47.595C67.007,47.72,66.844,47.782,66.68,47.782"/>
	<path fill="#010101" d="M68.235,38.709c-1.267,0-2.297-1.03-2.297-2.297s1.03-2.297,2.297-2.297s2.297,1.03,2.297,2.297
		S69.502,38.709,68.235,38.709 M68.235,35.392c-0.563,0-1.021,0.459-1.021,1.021c0,0.564,0.458,1.021,1.021,1.021
		c0.563,0,1.021-0.457,1.021-1.021C69.256,35.851,68.799,35.392,68.235,35.392"/>
	<path fill="#010101" d="M94.622,44.257c-1.267,0-2.296-1.031-2.296-2.297c0-1.267,1.03-2.297,2.296-2.297
		c1.267,0,2.297,1.031,2.297,2.297C96.919,43.226,95.889,44.257,94.622,44.257 M94.622,40.938c-0.563,0-1.021,0.458-1.021,1.021
		c0,0.562,0.458,1.021,1.021,1.021s1.021-0.458,1.021-1.021C95.643,41.396,95.185,40.938,94.622,40.938"/>
	<path fill="#010101" d="M97.939,25.594c-1.267,0-2.297-1.03-2.297-2.297c0-1.267,1.03-2.297,2.297-2.297
		c1.268,0,2.297,1.03,2.297,2.297C100.237,24.564,99.207,25.594,97.939,25.594 M97.939,22.276c-0.563,0-1.021,0.458-1.021,1.021
		c0,0.563,0.458,1.021,1.021,1.021c0.564,0,1.021-0.458,1.021-1.021C98.96,22.735,98.503,22.276,97.939,22.276"/>
	<path fill="#010101" d="M48.588,31.296c-1.267,0-2.297-1.03-2.297-2.296c0-1.267,1.031-2.297,2.297-2.297s2.296,1.03,2.296,2.297
		C50.884,30.266,49.854,31.296,48.588,31.296 M48.588,27.979c-0.563,0-1.021,0.458-1.021,1.021s0.458,1.021,1.021,1.021
		c0.563,0,1.021-0.458,1.021-1.021S49.151,27.979,48.588,27.979"/>
	<path fill="#010101" d="M49.625,40.939c-1.267,0-2.297-1.031-2.297-2.297c0-1.267,1.03-2.297,2.297-2.297
		c1.266,0,2.296,1.03,2.296,2.297C51.921,39.908,50.891,40.939,49.625,40.939 M49.625,37.621c-0.563,0-1.021,0.458-1.021,1.021
		c0,0.562,0.458,1.021,1.021,1.021s1.02-0.459,1.02-1.021C50.645,38.079,50.188,37.621,49.625,37.621"/>
	<path fill="#010101" d="M67.154,35.851c-0.164,0-0.327-0.062-0.451-0.187L55.766,24.727c-0.535-0.535-1.467-0.535-2.002,0
		l-3.551,3.551c-0.249,0.249-0.654,0.249-0.903,0s-0.249-0.653,0-0.902l3.551-3.55c1.018-1.019,2.791-1.019,3.808,0l10.937,10.937
		c0.25,0.249,0.25,0.652,0,0.902C67.48,35.789,67.317,35.851,67.154,35.851"/>
	<path fill="#010101" d="M81.339,24.09h-5.725c-0.585,0-1.108-0.348-1.332-0.889c-0.225-0.541-0.102-1.157,0.312-1.571l8.639-8.637
		c0.506-0.507,0.496-1.152,0.316-1.585c-0.18-0.435-0.627-0.898-1.344-0.898H71.396c-0.934,0-1.812,0.363-2.471,1.024l-7.309,7.307
		c-0.824,0.825-1.921,1.281-3.088,1.281h-5.804c-0.635,0-1.203-0.38-1.447-0.967c-0.244-0.588-0.109-1.258,0.339-1.708l4.838-4.838
		c0.25-0.249,0.653-0.249,0.902,0s0.249,0.653,0,0.901l-4.838,4.839c-0.12,0.119-0.091,0.25-0.063,0.316
		c0.028,0.066,0.1,0.179,0.268,0.179h5.804c0.826,0,1.602-0.321,2.187-0.906l7.308-7.309c0.901-0.901,2.1-1.396,3.374-1.396h10.809
		c1.125,0,2.093,0.645,2.523,1.686c0.431,1.039,0.204,2.18-0.592,2.976l-8.639,8.638c-0.063,0.064-0.055,0.133-0.035,0.179
		c0.028,0.068,0.08,0.103,0.152,0.103h5.725c0.938,0,1.821-0.366,2.484-1.029l5.498-5.498c0.249-0.25,0.653-0.25,0.902,0
		c0.25,0.249,0.25,0.653,0,0.902l-5.497,5.497C83.822,23.593,82.619,24.09,81.339,24.09"/>
	<path fill="#010101" d="M58.126,13.939c-1.267,0-2.297-1.03-2.297-2.297c0-1.267,1.03-2.297,2.297-2.297
		c1.266,0,2.296,1.03,2.296,2.297C60.422,12.91,59.392,13.939,58.126,13.939 M58.126,10.622c-0.563,0-1.021,0.458-1.021,1.021
		c0,0.563,0.458,1.021,1.021,1.021c0.563,0,1.021-0.458,1.021-1.021C59.146,11.08,58.689,10.622,58.126,10.622"/>
	<path fill="#010101" d="M74.138,32.819c-1.266,0-2.297-1.032-2.297-2.297c0-1.267,1.031-2.297,2.297-2.297
		c1.267,0,2.297,1.03,2.297,2.297C76.435,31.788,75.404,32.819,74.138,32.819 M74.138,29.501c-0.563,0-1.021,0.458-1.021,1.021
		s0.458,1.021,1.021,1.021c0.563,0,1.021-0.458,1.021-1.021S74.701,29.501,74.138,29.501"/>
	<path fill="#010101" d="M72.97,17.526c-1.267,0-2.297-1.03-2.297-2.296c0-1.267,1.03-2.298,2.297-2.298
		c1.267,0,2.297,1.031,2.297,2.298C75.267,16.496,74.236,17.526,72.97,17.526 M72.97,14.208c-0.563,0-1.021,0.459-1.021,1.021
		c0,0.563,0.458,1.021,1.021,1.021s1.021-0.457,1.021-1.021C73.99,14.667,73.533,14.208,72.97,14.208"/>
	<path fill="#010101" d="M90.836,17.568c-1.267,0-2.297-1.03-2.297-2.297c0-1.267,1.03-2.297,2.297-2.297
		c1.267,0,2.297,1.03,2.297,2.297C93.134,16.538,92.104,17.568,90.836,17.568 M90.836,14.25c-0.563,0-1.021,0.458-1.021,1.021
		c0,0.563,0.458,1.021,1.021,1.021c0.564,0,1.021-0.458,1.021-1.021C91.857,14.709,91.4,14.25,90.836,14.25"/>
	<path fill="#010101" d="M72.8,30.021c-0.164,0-0.328-0.062-0.452-0.189l-4.987-5.024c-1.279-1.294-1.272-3.393,0.014-4.678
		l4.077-4.093c0.25-0.25,0.653-0.25,0.903,0c0.249,0.249,0.249,0.653,0,0.903l-4.077,4.092c-0.792,0.791-0.795,2.082-0.009,2.877
		l4.985,5.024c0.249,0.25,0.247,0.654-0.004,0.901C73.125,29.959,72.963,30.021,72.8,30.021"/>
	<path fill="#010101" d="M117.852,95.131c-7.375,0-17.364-0.262-17.464-0.266c-0.353-0.008-0.631-0.301-0.622-0.653
		c0.009-0.353,0.304-0.618,0.655-0.622c0.1,0.002,10.072,0.264,17.431,0.264c7.537,0,8.121-5.484,8.121-7.167l-0.004-17.478
		c-0.01-0.91-0.017-1.51,0.412-1.945c0.354-0.357,0.848-0.398,1.188-0.398h4.832c2.343,0,2.435,0,2.435-1.576V38.904
		c0-12.018-11.869-28.666-34.154-28.666c-0.539,0-1.074,0.008-1.603,0.023c-0.007,0-0.014,0-0.019,0
		c-0.344,0-0.627-0.274-0.638-0.62c-0.01-0.352,0.267-0.646,0.619-0.656c0.542-0.016,1.088-0.024,1.641-0.024
		c23.117,0,35.43,17.389,35.43,29.942v26.385c0,2.853-1.396,2.853-3.71,2.853h-4.832c-0.229,0-0.296,0.033-0.299,0.034
		c-0.036,0.088-0.03,0.583-0.024,1.02l0.004,0.523v16.968C127.25,90.77,124.781,95.131,117.852,95.131"/>
	<path fill="#010101" d="M141.188,105.699c-7.381,0-13.251-0.261-13.309-0.264l-51.67,0.223h-0.045
		c-2.695,0-5.229-1.045-7.141-2.948c-1.922-1.915-2.98-4.463-2.98-7.175v-48.18L49.31,30.624c-0.249-0.249-0.249-0.653,0-0.903
		c0.249-0.249,0.653-0.249,0.902,0l17.105,17.107v48.707c0,2.371,0.925,4.598,2.605,6.271c1.67,1.662,3.885,2.576,6.24,2.576h0.04
		l51.702-0.223c0.089,0.004,5.934,0.263,13.283,0.263c7.538,0,8.123-5.484,8.123-7.167l-0.004-17.477
		c-0.01-0.912-0.018-1.513,0.412-1.946c0.354-0.357,0.846-0.398,1.187-0.398h4.833c2.343,0,2.434,0,2.434-1.577V49.473
		c0-10.618-9.866-27.038-31.043-28.556c-0.352-0.024-0.615-0.331-0.59-0.682c0.024-0.353,0.34-0.619,0.682-0.591
		c21.984,1.576,32.229,18.731,32.229,29.828v26.384c0,2.854-1.397,2.854-3.711,2.854h-4.833c-0.229,0-0.295,0.032-0.298,0.033
		c-0.035,0.088-0.029,0.582-0.025,1.02l0.005,0.523v16.969C150.587,101.338,148.118,105.699,141.188,105.699"/>
	<polygon fill="#010101" points="6.966,131.91 0,131.91 0,129.945 16.405,129.945 16.405,131.91 9.438,131.91 9.438,149.953 
		6.966,149.953 	"/>
	<path fill="#010101" d="M15.125,142.72c0-1.331,0.135-2.479,0.402-3.44s0.68-1.751,1.235-2.367
		c0.556-0.615,1.266-1.066,2.129-1.354c0.863-0.288,1.901-0.433,3.111-0.433c2.204,0,3.797,0.58,4.78,1.74
		c0.981,1.163,1.474,3.033,1.474,5.613v0.478c0,0.157-0.011,0.308-0.031,0.445H17.478c0.059,1.809,0.521,3.097,1.384,3.872
		c0.864,0.774,2.268,1.16,4.214,1.16c1.527,0,3.065-0.238,4.615-0.713v1.904c-0.735,0.237-1.494,0.412-2.278,0.521
		c-0.785,0.108-1.623,0.163-2.516,0.163c-2.719,0-4.694-0.596-5.926-1.787C15.741,147.333,15.125,145.398,15.125,142.72
		 M22.002,136.852c-1.547,0-2.679,0.384-3.393,1.147c-0.715,0.764-1.092,2.021-1.131,3.767h8.485
		c-0.041-1.746-0.363-3.003-0.968-3.767S23.392,136.852,22.002,136.852"/>
	<path fill="#010101" d="M41.148,148.465c-0.875,1.233-2.501,1.846-4.883,1.846c-1.906,0-3.3-0.342-4.183-1.027
		c-0.884-0.686-1.326-1.763-1.326-3.23s0.462-2.539,1.385-3.216c0.923-0.674,2.406-1.013,4.451-1.013
		c1.588,0,2.998,0.21,4.228,0.625v-1.994c0-1.25-0.333-2.138-0.998-2.663c-0.666-0.526-1.771-0.79-3.319-0.79
		c-1.489,0-2.977,0.237-4.466,0.716v-1.906c0.754-0.219,1.519-0.389,2.292-0.506c0.774-0.12,1.588-0.18,2.442-0.18
		c2.242,0,3.861,0.43,4.853,1.296c0.992,0.861,1.489,2.267,1.489,4.212v7.295c0,0.12,0.014,0.209,0.044,0.268
		c0.03,0.06,0.093,0.109,0.194,0.148l0.892,0.389l-0.237,1.22h-2.472c-0.099,0-0.164-0.009-0.194-0.028s-0.055-0.09-0.075-0.21
		L41.148,148.465z M40.821,144.117c-1.113-0.436-2.401-0.654-3.871-0.654c-1.37,0-2.352,0.192-2.947,0.58
		c-0.596,0.387-0.894,1.048-0.894,1.979c0,0.896,0.286,1.545,0.863,1.953c0.575,0.405,1.489,0.608,2.739,0.608
		c1.429,0,2.472-0.253,3.126-0.759c0.655-0.506,0.983-1.306,0.983-2.397V144.117z"/>
	<path fill="#010101" d="M58.716,137.091c0.635-0.598,1.384-1.072,2.248-1.431c0.864-0.354,1.832-0.534,2.903-0.534
		c1.866,0,3.216,0.424,4.049,1.265c0.834,0.845,1.25,2.219,1.25,4.123v7.415c0,0.12,0.016,0.209,0.045,0.268
		c0.03,0.06,0.094,0.109,0.193,0.148l0.894,0.389l-0.237,1.22h-3.007c-0.18,0-0.27-0.099-0.27-0.297v-9.053
		c0-1.25-0.257-2.148-0.774-2.694c-0.515-0.546-1.369-0.818-2.561-0.818c-0.912,0-1.731,0.104-2.456,0.312
		c-0.725,0.209-1.305,0.492-1.742,0.85c0.1,0.338,0.164,0.674,0.194,1.012s0.044,0.725,0.044,1.161v9.528h-2.382v-9.35
		c0-1.25-0.258-2.148-0.775-2.694c-0.515-0.546-1.369-0.818-2.56-0.818c-0.437,0-0.858,0.035-1.265,0.104
		c-0.407,0.07-0.785,0.16-1.132,0.268c-0.347,0.108-0.66,0.225-0.938,0.342c-0.279,0.12-0.487,0.238-0.626,0.358v11.79H47.43
		v-12.444c0-0.118-0.014-0.211-0.044-0.27s-0.095-0.109-0.194-0.148l-0.893-0.388l0.239-1.219h3.007c0.178,0,0.266,0.1,0.266,0.296
		v0.892c0.517-0.455,1.132-0.826,1.847-1.116c0.715-0.285,1.588-0.43,2.62-0.43c1.191,0,2.119,0.164,2.785,0.491
		C57.728,135.944,58.279,136.435,58.716,137.091"/>
	<path fill="#010101" d="M87.001,132.207c-0.279,0.755-0.685,1.802-1.221,3.142c-0.535,1.341-1.152,2.785-1.845,4.332
		c-0.319,0.716-0.681,1.503-1.087,2.366c-0.407,0.864-0.834,1.748-1.28,2.651c-0.447,0.902-0.904,1.808-1.37,2.709
		c-0.467,0.903-0.908,1.754-1.325,2.546h-1.816c-0.239-1.37-0.478-2.907-0.715-4.614c-0.238-1.708-0.457-3.46-0.655-5.257
		c-0.199-1.795-0.372-3.566-0.521-5.314c-0.148-1.746-0.263-3.354-0.342-4.822h1.429c0.079,1.27,0.189,2.669,0.327,4.196
		c0.139,1.53,0.268,3.039,0.388,4.527c0.079,0.933,0.173,1.867,0.283,2.798c0.109,0.935,0.218,1.826,0.328,2.679
		c0.109,0.855,0.224,1.654,0.342,2.399c0.12,0.745,0.229,1.395,0.328,1.95h0.029c0.299-0.556,0.63-1.205,0.998-1.95
		s0.754-1.544,1.162-2.399c0.406-0.853,0.823-1.744,1.25-2.679c0.426-0.931,0.848-1.865,1.266-2.798
		c0.635-1.41,1.27-2.843,1.905-4.303c0.636-1.458,1.21-2.813,1.728-4.063h1.547c0.079,1.25,0.179,2.605,0.298,4.063
		c0.119,1.46,0.237,2.893,0.358,4.303c0.078,0.933,0.173,1.867,0.282,2.798c0.109,0.935,0.218,1.826,0.327,2.679
		c0.11,0.855,0.218,1.654,0.328,2.399s0.213,1.395,0.313,1.95h0.03c0.297-0.556,0.635-1.205,1.012-1.95
		c0.377-0.745,0.769-1.544,1.177-2.399c0.407-0.853,0.828-1.744,1.265-2.679c0.437-0.931,0.864-1.865,1.28-2.798
		c0.655-1.488,1.326-2.997,2.01-4.527c0.685-1.527,1.284-2.927,1.801-4.196h1.459c-0.596,1.468-1.281,3.076-2.055,4.822
		c-0.774,1.748-1.578,3.52-2.412,5.314c-0.833,1.797-1.667,3.549-2.5,5.257c-0.833,1.707-1.618,3.244-2.353,4.614h-1.846
		c-0.138-0.792-0.283-1.643-0.432-2.546c-0.147-0.901-0.286-1.807-0.416-2.709c-0.129-0.903-0.243-1.787-0.342-2.651
		c-0.099-0.863-0.179-1.65-0.237-2.366c-0.161-1.547-0.265-2.991-0.314-4.332c-0.049-1.34-0.094-2.387-0.134-3.142H87.001z"/>
	<path fill="#010101" d="M102.782,137.091c0.04-0.159,0.046-0.264,0.015-0.313c-0.029-0.051-0.094-0.094-0.192-0.134l-0.894-0.357
		l0.268-0.715h2.084c0.159,0,0.268,0.02,0.328,0.061c0.059,0.04,0.069,0.138,0.029,0.297l-2.471,14.024h-1.43L102.782,137.091z
		 M103.438,131.226c0-0.853,0.407-1.28,1.222-1.28c0.595,0,0.892,0.268,0.892,0.803c0,0.854-0.406,1.28-1.221,1.28
		C103.736,132.028,103.438,131.76,103.438,131.226"/>
	<path fill="#010101" d="M108.618,148.435c-0.04,0.159-0.044,0.264-0.015,0.312c0.03,0.05,0.095,0.096,0.193,0.136l0.894,0.358
		l-0.269,0.713h-2.084c-0.158,0-0.267-0.02-0.327-0.059c-0.06-0.04-0.069-0.14-0.03-0.299l3.364-19.085
		c0.04-0.159,0.046-0.265,0.016-0.312c-0.03-0.051-0.094-0.096-0.194-0.136l-0.892-0.356l0.267-0.714h2.084
		c0.16,0,0.27,0.02,0.328,0.059s0.068,0.14,0.029,0.299L108.618,148.435z"/>
	<path fill="#010101" d="M115.139,148.435c-0.04,0.159-0.044,0.264-0.016,0.312c0.031,0.05,0.096,0.096,0.194,0.136l0.894,0.358
		l-0.268,0.713h-2.085c-0.157,0-0.268-0.02-0.327-0.059c-0.06-0.04-0.069-0.14-0.029-0.299l3.364-19.085
		c0.04-0.159,0.045-0.265,0.015-0.312c-0.03-0.051-0.094-0.096-0.193-0.136l-0.893-0.356l0.268-0.714h2.084
		c0.158,0,0.268,0.02,0.326,0.059c0.061,0.039,0.07,0.14,0.031,0.299L115.139,148.435z"/>
	<path fill="#010101" d="M122.762,129.945h7.83c2.105,0,3.652,0.367,4.645,1.102c0.993,0.735,1.488,1.856,1.488,3.363
		c0,4.924-2.549,7.384-7.651,7.384h-5.925l-1.459,8.159h-1.398l3.273-18.638c0.021-0.12,0.025-0.194,0.016-0.225
		c-0.01-0.028-0.055-0.063-0.134-0.104l-0.923-0.355L122.762,129.945z M123.357,140.604h5.746c2.105,0,3.663-0.49,4.674-1.473
		c1.014-0.983,1.52-2.498,1.52-4.542c0-1.19-0.393-2.06-1.177-2.604s-2.02-0.819-3.706-0.819h-5.42L123.357,140.604z"/>
	<path fill="#010101" d="M137.708,145.1c0-1.527,0.174-2.901,0.521-4.123c0.347-1.223,0.85-2.258,1.503-3.112
		c0.656-0.854,1.455-1.508,2.397-1.964c0.942-0.458,2.01-0.685,3.201-0.685c1.886,0,3.306,0.44,4.257,1.323
		c0.953,0.885,1.43,2.18,1.43,3.888c0,1.526-0.174,2.901-0.521,4.123c-0.347,1.219-0.848,2.257-1.503,3.11
		c-0.655,0.854-1.448,1.51-2.382,1.966s-1.994,0.685-3.187,0.685c-1.886,0-3.31-0.44-4.272-1.324
		C138.19,148.103,137.708,146.807,137.708,145.1 M139.168,144.981c0,2.76,1.438,4.138,4.316,4.138c0.953,0,1.807-0.198,2.561-0.596
		c0.755-0.396,1.396-0.968,1.922-1.711c0.525-0.745,0.928-1.647,1.205-2.711c0.277-1.06,0.416-2.246,0.416-3.557
		c0-2.76-1.438-4.139-4.316-4.139c-0.953,0-1.807,0.198-2.561,0.596c-0.754,0.396-1.396,0.967-1.921,1.71
		c-0.526,0.746-0.929,1.649-1.206,2.712C139.307,142.484,139.168,143.67,139.168,144.981"/>
	<path fill="#010101" d="M163.523,137.509c-0.418,0.973-0.879,1.997-1.385,3.079c-0.506,1.084-1.023,2.171-1.549,3.261
		c-0.525,1.094-1.062,2.16-1.607,3.203c-0.546,1.04-1.068,2.009-1.564,2.901h-1.605c-0.299-1.43-0.557-2.772-0.775-4.034
		c-0.219-1.26-0.417-2.471-0.596-3.633c-0.179-1.161-0.332-2.291-0.461-3.396c-0.13-1.101-0.254-2.207-0.373-3.319h1.34
		c0.219,2.284,0.481,4.487,0.789,6.612c0.309,2.123,0.67,4.257,1.088,6.401h0.029c0.516-0.955,1.031-1.95,1.548-2.995
		c0.516-1.04,1.052-2.127,1.607-3.259c0.537-1.112,1.073-2.249,1.608-3.409c0.536-1.16,1.003-2.188,1.399-3.082h1.459
		c0.238,2.225,0.495,4.389,0.774,6.491c0.277,2.104,0.596,4.188,0.953,6.254h0.03c0.515-0.895,1.056-1.879,1.622-2.949
		c0.564-1.07,1.126-2.173,1.682-3.305c0.576-1.172,1.146-2.357,1.712-3.558c0.565-1.202,1.058-2.269,1.474-3.202h1.371
		c-0.497,1.112-1.004,2.219-1.52,3.319c-0.517,1.104-1.066,2.234-1.652,3.396c-0.586,1.162-1.215,2.373-1.891,3.633
		c-0.676,1.262-1.41,2.604-2.203,4.034h-1.578c-0.179-0.893-0.357-1.861-0.536-2.901c-0.179-1.043-0.343-2.109-0.491-3.203
		c-0.148-1.09-0.283-2.177-0.401-3.261C163.701,139.506,163.602,138.481,163.523,137.509"/>
	<path fill="#010101" d="M174.748,145.1c0-1.549,0.17-2.932,0.506-4.153c0.339-1.22,0.824-2.258,1.459-3.11
		c0.637-0.854,1.416-1.504,2.338-1.951c0.924-0.446,1.971-0.669,3.142-0.669c1.786,0,3.106,0.408,3.961,1.221
		c0.854,0.813,1.28,2.073,1.28,3.781c0,1.051-0.13,2.035-0.389,2.946h-10.808c-0.04,0.26-0.065,0.557-0.075,0.895
		c-0.01,0.336-0.015,0.686-0.015,1.041c0.06,2.7,1.768,4.051,5.122,4.051c1.409,0,2.859-0.199,4.348-0.596l-0.209,1.22
		c-1.369,0.357-2.798,0.536-4.287,0.536c-2.085,0-3.668-0.44-4.749-1.324C175.289,148.103,174.748,146.807,174.748,145.1
		 M182.133,136.317c-1.548,0-2.814,0.501-3.796,1.503c-0.983,1.003-1.624,2.437-1.921,4.302h9.469
		c0.059-0.278,0.104-0.585,0.133-0.923c0.031-0.336,0.045-0.674,0.045-1.012c0-1.352-0.312-2.332-0.936-2.948
		C184.5,136.624,183.502,136.317,182.133,136.317"/>
	<path fill="#010101" d="M198.359,135.216c0.299,0,0.605,0.016,0.924,0.044c0.317,0.03,0.555,0.074,0.715,0.133l-0.447,1.223
		c-0.199-0.061-0.431-0.106-0.699-0.135c-0.269-0.03-0.541-0.044-0.819-0.044c-0.536,0-1.036,0.072-1.505,0.223
		c-0.465,0.148-0.892,0.331-1.279,0.55c-0.387,0.221-0.729,0.452-1.027,0.7c-0.298,0.249-0.547,0.461-0.744,0.64l-2.024,11.404
		h-1.429l2.262-12.862c0.04-0.159,0.045-0.264,0.016-0.313c-0.029-0.051-0.094-0.092-0.193-0.134l-0.894-0.357l0.269-0.715h2.055
		c0.159,0,0.268,0.02,0.327,0.061c0.059,0.04,0.068,0.138,0.03,0.297l-0.239,1.431c0.516-0.617,1.157-1.128,1.922-1.533
		C196.34,135.419,197.268,135.216,198.359,135.216"/>
</g>
</svg>
