<?xml version="1.0" encoding="utf-8"?>
<!-- Generator: Adobe Illustrator 15.1.0, SVG Export Plug-In . SVG Version: 6.00 Build 0)  -->
<!DOCTYPE svg PUBLIC "-//W3C//DTD SVG 1.1//EN" "http://www.w3.org/Graphics/SVG/1.1/DTD/svg11.dtd">
<svg version="1.1" id="Layer_1" xmlns="http://www.w3.org/2000/svg" xmlns:xlink="http://www.w3.org/1999/xlink" x="0px" y="0px"
	 width="200px" height="150.311px" viewBox="0 0 200 150.311" enable-background="new 0 0 200 150.311" xml:space="preserve">
<path fill="#FFFFFF" d="M197.645,85.995c-0.736,1.224-2.263,2.329-3.95,4.201c-7.2,7.986-13.678,16.413-17.829,26.49
	c-0.982,2.379-2.772,4.551-4.611,6.389c-0.723,0.722-3.377,1.106-3.974,0.332c-0.596-0.775,0.389-2.417,0.929-3.44
	c1.359-2.598,3.021-5.037,4.371-7.652c0.965-1.867,1.332-4.092,2.476-5.81c2.413-3.608,1.421-6.695-0.567-10.02
	c-2.177-3.633-4.124-7.416-5.959-11.232c-0.406-0.846-0.334-2.638,0.216-3.065c1.091-0.765,2.429-1.091,3.749-0.918
	c0.666,0.11,1.226,1.634,1.624,2.609c1.996,4.827,3.893,9.682,6.185,15.411c3.479-4.325,6.187-7.652,8.881-11.019
	c1.061-1.332,2.057-2.706,3.137-4.009c2.568-3.099,5.039-2.789,5.528-0.829C198.338,85.392,198.38,84.771,197.645,85.995z"/>
<path fill="#FFFFFF" d="M27.835,100.296c-1.736,0.062-1.964,0.391-3.517,0.175c-0.938-0.129-1.91-0.333-1.793-1.616
	c0.117-1.285,0.625-1.211,1.48-1.425c1.617-0.401,1.92-0.562,3.689-0.791c-0.016-2.067-0.092-3.973-0.036-5.873
	c0.15-5.146,4.521-7.828,8.688-5.321c0.496,0.298,1.623,1.026,1.111,1.532c-0.525,0.479-1.231,0.706-1.936,0.626
	c-3.347-0.452-4.455,0.438-4.528,3.895c-0.023,1.152,0.073,2.31,0,3.462c-0.074,1.149,0.219,1.56,0.219,1.56s5.254-0.156,7.16,0
	c0.792,0.066,2.812,0.16,2.289,1.298c-0.522,1.137-1.484,1.331-2.329,1.476c-1.731,0.333-5.294,0.413-5.294,0.413l-1.87,0.333
	c0,0,1.035,11.099,1.498,15.776c0.103,1.049,0.628,2.479-0.915,2.556c-0.775,0.04-2.16-1.038-2.329-1.819
	c-0.593-2.938-1.013-5.91-1.258-8.897C27.964,105.298,27.954,102.933,27.835,100.296z"/>
<path fill="#FFFFFF" d="M29.365,65.168c0,0,0.203-22.661-0.492-33.85c-0.05-1.218-0.795-2.552-0.489-3.62
	c0.405-1.417,1.297-3.327,2.429-3.703c0.897-0.31,3.19,1.061,3.593,2.156c0.986,2.588,1.504,5.332,1.527,8.102
	c-0.112,11.884-0.462,23.768-0.812,35.648c-0.1,4.162-2.761,6.082-6.578,6.361c-0.894,0.07-2.751-1.188-2.694-1.663
	c0.703-5.723-3.661-9.099-6.345-12.879C13.545,53.36,10.012,49.062,3.541,41.05c-0.579-0.715-1.407-1.271-1.843-2.052
	c-1.091-1.94-3.074-4.372-0.239-5.962c1.091-0.612,4.062,0.566,5.18,1.819C15.109,44.353,29.365,65.168,29.365,65.168z"/>
<path fill="#FFFFFF" d="M158.523,93.766c3.697,0.373,5.847,0.665,9.185,0.999c1.472,0.149,2.798,0.479,2.729,2.396
	c-0.072,2.103-1.556,2.282-3.131,2.249c-3.246-0.068-5.301-0.134-9.314-0.248c0.307,5.099,0.577,9.68,0.854,14.265
	c0.061,0.982,0.427,2.051,0.153,2.918c-0.332,1.074-0.711,2.615-1.829,2.965c-1.118,0.348-2.33-1.484-2.662-2.502
	c-0.544-1.634-0.515-3.504-0.503-5.273c0.031-3.938-0.432-8.651-0.314-12.793c-2.192-0.062-2.996-0.366-4.416-0.604
	c-1.029-0.177-2.735,0.115-2.977-1.239c-0.243-1.354,1.479-1.996,2.74-2.784c1.184-0.725,3.046-0.333,4.869-0.446
	c0.292-3.519,0.569-6.859,0.854-10.196c0.074-0.885-0.05-1.883,0.332-2.622c0.332-0.665,1.224-1.468,1.886-1.483
	c0.522,0,1.505,1.047,1.538,1.662c0.169,3.059,0.101,6.13,0.097,9.197C158.62,91.322,158.564,92.401,158.523,93.766z"/>
<path fill="#FFFFFF" d="M129.276,40.571c-1.226,10.191-2.249,19.324-3.478,28.434c-0.269,1.996-0.585,3.992-1.773,4.248
	c-1.187,0.257-2.924-1.996-2.892-3.76c0.15-7.984,0.626-15.996,1.404-23.954c0.293-2.994-2.059-6.454,1.088-9
	c1.046-0.845,2.796-1.93,3.755-1.587c13.253,4.712,16.87,11.818,16.929,25.046c0.023,5.323-1.534,10.667-2.625,15.95
	c-0.196,0.95-0.803,2.891-2.473,2.462c-1.672-0.43-1.866-2.189-1.851-3.268c0.123-7.08,1.084-14.199,0.575-21.22
	c-0.264-3.626-2.812-7.17-4.68-10.556C132.63,42.224,130.927,41.683,129.276,40.571z"/>
<path fill="#FFFFFF" d="M68.894,98.468c6.139,4.505,12.107,8.673,17.806,13.181c2.06,1.631,3.633,3.974,5.11,6.205
	c0.542,0.818,0.682,2.479,0.2,3.404s-2.685,0.379-3.843,0c-0.998-0.332-1.81-1.397-2.565-2.26
	c-6.092-6.958-13.475-12.192-21.626-16.424c-1.248-0.651-2.412-1.462-3.596-2.228c-2.662-1.723-1.836-2.949,0.585-3.915
	c1.304-0.52,2.698-0.868,3.916-1.54c3.677-2.026,3.776-4.026,0.16-5.989c-2.685-1.47-5.656-2.441-8.384-3.817
	c-1.726-0.822-3.327-1.887-4.754-3.158c-0.632-0.593-0.902-2.137-0.596-2.996c0.206-0.571,1.927-1.189,2.585-0.904
	c5.626,2.449,11.461,4.615,16.635,7.836c4.401,2.741,4.089,7.581,0.187,11.078C70.048,97.532,69.356,98.078,68.894,98.468z"/>
<path fill="#FFFFFF" d="M19.887,92.885c0,0-0.576-1.732-1.112-3.276c0.482,0.127,0.665,0.232,1.141-0.374
	c0.536-0.694-0.356-1.663-0.802-1.854c-0.457-0.174-0.922-0.326-1.394-0.455c-0.303-0.475-0.58-0.519-0.869-0.765
	c-0.373-0.333-1.045,0.073-1.045,0.073c-0.086,0.056-0.166,0.118-0.239,0.189c-1.331-0.26-2.445-0.373-2.478-0.263
	c-3.102,0.137-5.71,1.2-6.654,4.325c-1.49,4.934-0.503,9.552,3.081,13.262c1.663,1.723,4.345,2.279,6.83,0.564
	C20.186,101.668,21.333,97.942,19.887,92.885z M16.39,100.641c-2.18,2.994-3.66,1.977-5.357-0.19
	c-0.578-0.871-1.062-1.801-1.443-2.774c-1.93-5.766,0.219-9.028,5.918-9.003c0.056,0,0.113,0,0.17,0
	c0.249,0.485,0.535,0.969,0.728,1.291c0.396,0.666,0.998,3.51,0.998,3.51C18.086,96.056,17.997,98.458,16.39,100.641z"/>
<path fill="#FFFFFF" d="M81.294,43.076c0.766,0.393,2.295,2.536,1.167,3.393c-1.127,0.859-2.814,0.356-3.546-0.266
	c-3.5-2.958-7.585-2.329-11.471-1.954c-1.491,0.14-4.265,1.022-4.765,2.409c-2.421,6.761-1.664,13.345,2.223,19.49
	c1.218,1.926,3.204,3.021,5.29,1.747c4.824-2.954,7.05-8.374,6.168-14.532c-0.279-1.957,0.409-5.809,0.792-5.825
	c3.377-0.166,3.028,2.828,3.45,5.066c1.663,8.797-1.201,15.478-8.281,19.297c-4.241,2.296-7.947,1.648-11.119-1.942
	c-5.183-5.859-6.72-17.428-3.25-24.474c2.195-4.461,5.656-6.255,11.957-6.185C70.055,38.97,77.757,41.26,81.294,43.076z"/>
<path fill="#FFFFFF" d="M97.636,91.074c0.426-2.841-0.289-4.208-2.492-5.266c-2.611-1.251-6.212-0.149-7.881,2.722
	c-1.019,1.754-1.567,3.837-2.03,5.839c-0.231,1.138-0.403,2.288-0.516,3.444c-1.025,0.213-2.078,0.257-3.117,0.128
	c-0.726-0.068-1.361-0.444-2.066-0.489c-0.849-0.049-1.854-0.907-2.568,0.29c-0.715,1.197,0.808,2.062,1.494,2.313
	c2.299,0.838,3.396,0.647,6.071,1.33c-0.042-0.104,0.137,0.162,0.184,0.453c0.845,5.069,5.742,8.982,10.939,8.357
	c1.174-0.142,3.051-1.438,3.138-2.329c0.223-2.329-1.853-1.181-2.994-1.219c-4.063-0.132-6.655-1.39-6.544-5.713
	C94.831,100.398,96.904,95.946,97.636,91.074z M92.952,88.673c2.289,0.952,0.292,8.271-3.7,8.271
	c-0.869-3.497,1.414-9.225,3.703-8.271H92.952z"/>
<path fill="#FFFFFF" d="M127.562,87.159c0.041-1.786-0.116-3.606,0.194-5.344c0.159-0.9,0.845-2.508,1.757-2.471
	c0.911,0.035,2.068,1.662,2.169,2.575c0.373,3.438,0.245,6.93,0.485,10.39c0.666,9.647-0.275,19.403,2.096,28.945
	c0.179,0.715-1.031,2.379-1.88,2.629c-1.92,0.565-2.908-0.839-3.073-2.642c-0.469-5.018-0.998-10.038-1.237-15.072
	C127.766,99.842,127.723,93.496,127.562,87.159z"/>
<path fill="#FFFFFF" d="M174.649,47.704c-1.996-0.332-3.992-0.775-5.988-0.975c-7.185-0.715-11.483,3.201-14.202,9.649
	c-1.745,4.128-0.868,9.368,3.326,10.493c3.179,0.852,6.451,1.364,9.575,2.362c1.431,0.456,4.239,1.079,3.901,2.62
	c-0.336,1.539-3.226,1.33-4.721,1.14c-3.243-0.438-6.414-1.423-9.601-2.231c-7.986-2.026-10.091-9.785-6.594-17.551
	c4.392-9.751,16.767-13.924,25.794-8.62c1.078,0.631,2.428,1.623,1.521,2.279C176.753,47.525,175.914,47.91,174.649,47.704z"/>
<path fill="#FFFFFF" d="M57.821,124.363c0.043,1.856,0.951,4.455-2.136,4.897c-3.154,0.452-3.597-2.26-3.8-4.253
	c-0.895-8.782-1.454-17.6-2.226-26.399c-0.355-4.048-0.998-8.075-1.331-12.127c-0.079-1.065,0.081-2.741,0.999-3.284
	c0.918-0.542,2.835,0.529,3.214,1.304c1.435,2.936,2.994,5.989,3.46,9.17C56.737,98.851,57.708,119.365,57.821,124.363z"/>
<path fill="#FFFFFF" d="M42.71,50.346c-0.1-1.716-0.585-3.526-0.176-5.12c0.333-1.268-0.572-3.194,2.662-3.391
	c3.233-0.197,2.329,2.126,2.548,3.36c1.305,6.837,1.996,10.567,3.194,17.424c0.333,1.89,1.484,3.68,1.6,5.556
	c0.08,1.288-0.609,3.267-1.607,3.839c-1.786,1.024-3.377-0.053-3.902-2.085c-1.171-4.521-2.1-5.87-3.111-10.428
	C43.259,56.497,42.613,50.366,42.71,50.346z"/>
<path fill="#FFFFFF" d="M137.653,98.718c0.073-1.221-0.183-2.555,0.332-3.63c0.396-0.839,1.277-2.079,2.662-2.017
	c1.384,0.063,1.621,1.624,1.697,2.469c0.452,5.038,0.635,10.081,1.022,15.12c0.098,1.285,0.705,2.55,0.894,3.84
	c0.19,1.291,0.196,2.56-1.853,2.792c-1.856,0.209-2.707-0.665-3.062-2.053c-0.224-0.878-0.618-1.743-0.715-2.626
	C138.119,107.983,137.515,98.72,137.653,98.718z"/>
<path fill="#FFFFFF" d="M144.241,88.797c-0.633,1.853-3.53,1.182-5.106,1.194c-0.775,0-2.177-1.145-2.253-1.871
	c-0.091-0.868,0.746-2.209,1.515-2.693C140.059,84.374,144.874,86.944,144.241,88.797z"/>
<path fill="#FFFFFF" d="M49.876,37.929c-1.038,2.662-3.776,0.718-5.406,0.582c-0.689-0.057-1.9-1.457-1.827-2.06
	c0.124-1.038,0.931-2.509,1.687-2.771C46.875,32.796,50.914,35.278,49.876,37.929z"/>
<path fill="#FFFFFF" d="M117.01,49.075c1.563-3.829-0.037-9.505-4.087-10.164c-3.579-0.583-6.653,0.682-8.579,3.686
	c-1.389,2.166-3.704,9.981-3.704,9.981c-1.646,0.018-3.291-0.104-4.917-0.362c-3.327-0.526-3.413-2.362-3.57-4.891
	c-0.359-5.799-1.058-13.441-1.331-19.247c-0.096-2.169-0.638-5.167-3.593-5.24c-3.123-0.077-2.538,2.489-2.485,4.325
	c0.203,7.382,0.379,10.573,0.842,17.943c0.603,9.595,1.464,19.173,2.222,28.762c0.2,2.538,1.208,4.545,4.113,4.096
	c3.044-0.474,2.742-2.479,2.302-5.077c-1.284-7.599-1.047-8.65-2.08-16.582l7.516,1.082c0.147,0.425,0.258,0.862,0.332,1.307
	c0.417,6.371,7.035,12.34,13.285,11.614c1.396-0.163,3.816-0.805,3.933-2.662c0.118-1.856-2.328-1.606-3.565-1.75
	c-5.367-0.625-8.521-3.417-7.763-8.813C114.913,57.472,114.943,54.129,117.01,49.075z M112.342,43.379
	c1.833,0.999,0.532,10.291-5.894,8.93C107.19,44.979,110.509,42.407,112.342,43.379z"/>
<path fill="#FFFFFF" d="M118.929,113.336c1.57-6.037,3.087-12.093,4.435-18.185c0.19-0.853-0.332-2.355-1.037-2.815
	c-1.743-1.161-3.735-1.97-5.686-2.788c-5.142-2.162-10.588-0.535-14.091,4.136c-2.601,3.474-2.06,7.426,1.394,12.113
	c1.878,2.546,4.204,3.354,7.157,2.637c1.703-0.413,3.387-0.902,5.323-1.419c-0.272,2.103-0.689,3.993-0.666,5.87
	c0,0.664,0.37,1.426,1.613,2.032C118.616,115.522,118.766,113.959,118.929,113.336z M113.383,103.885
	c-2.111,0.642-4.517,2.329-6.587,0c-2.163-2.448-2.499-4.991-1.225-7.015c2.087-3.326,5.036-4.89,8.132-4.102
	c1.686,0.429,3.303,1.134,5.27,1.826c-0.71,2.502-0.998,4.768-1.996,6.654c-0.658,1.185-2.23,2.219-3.594,2.632V103.885z"/>
<path fill="#FFFFFF" d="M198.314,54.445c2.566-3.553,1.238-7.516-2.942-9.029c-3.362-1.214-6.568-0.619-9.087,1.793
	c-1.864,1.753-3.393,3.829-4.515,6.128c-0.693,1.524-2.023,3.683-2.023,3.683s-4.412-1.729-5.379-2.119
	c-1.097-0.439-2.853-2.113-3.554-0.646s0.332,2.838,1.137,3.454c2.506,1.953,3.138,1.973,6.132,3.304
	c-0.944,7.372,2.825,14.183,9.738,15.863c1.541,0.375,4.658,0.355,5.283-1.598c0.627-1.953-2.045-2.09-3.287-2.562
	c-4.95-1.889-7.509-4.301-5.746-9.708C192.058,65.005,195.032,58.993,198.314,54.445z M193.786,49.068
	c4.326,1.664-5.059,11.312-8.43,9.812C185.755,55.939,190.147,47.704,193.786,49.068z"/>
</svg>
