<?xml version="1.0" encoding="utf-8"?>
<!-- Generator: Adobe Illustrator 15.1.0, SVG Export Plug-In . SVG Version: 6.00 Build 0)  -->
<!DOCTYPE svg PUBLIC "-//W3C//DTD SVG 1.1//EN" "http://www.w3.org/Graphics/SVG/1.1/DTD/svg11.dtd">
<svg version="1.1" id="Layer_1" xmlns="http://www.w3.org/2000/svg" xmlns:xlink="http://www.w3.org/1999/xlink" x="0px" y="0px"
	 width="200px" height="150.311px" viewBox="0 0 200 150.311" enable-background="new 0 0 200 150.311" xml:space="preserve">
<g>
	<g>
		<path fill="#484848" d="M91.209,138.635l-4.739,11.09h-1.912l-2.843-6.453l-2.915,6.453h-1.928l-4.645-11.09h3.42l2.275,6.066
			l2.606-6.066h2.362l2.559,6.066l2.378-6.066H91.209z"/>
		<path fill="#484848" d="M96.043,149.582h-3.302v-10.947h3.302V149.582z"/>
		<path fill="#484848" d="M108.61,148.761c-0.453,0.237-0.916,0.427-1.391,0.568c-0.474,0.143-0.951,0.244-1.434,0.305
			c-0.481,0.061-0.98,0.091-1.496,0.091c-0.954,0-1.808-0.132-2.563-0.396c-0.756-0.263-1.412-0.651-1.967-1.165
			c-0.556-0.513-0.972-1.113-1.248-1.801c-0.276-0.687-0.415-1.441-0.415-2.263c0-0.942,0.164-1.768,0.49-2.477
			c0.326-0.708,0.783-1.297,1.37-1.766c0.587-0.469,1.256-0.814,2.007-1.038c0.75-0.224,1.541-0.336,2.373-0.336
			c1.243,0,2.651,0.276,4.226,0.829v2.907c-0.542-0.337-1.078-0.617-1.606-0.842c-0.53-0.224-1.152-0.335-1.869-0.335
			c-0.637,0-1.231,0.126-1.785,0.379c-0.553,0.253-0.997,0.613-1.335,1.082c-0.337,0.469-0.505,1.017-0.505,1.643
			c0,0.554,0.147,1.061,0.442,1.521c0.295,0.461,0.704,0.827,1.229,1.099c0.523,0.271,1.114,0.406,1.772,0.406
			c0.532,0,1.035-0.064,1.509-0.193c0.475-0.129,0.873-0.272,1.197-0.431c0.323-0.158,0.656-0.345,0.999-0.561V148.761z"/>
		<path fill="#484848" d="M122.347,149.582h-4.028l-4.187-5.126v5.126h-3.302v-10.947h3.302v4.897l3.965-4.897h3.586l-4.075,5.126
			L122.347,149.582z"/>
		<path fill="#484848" d="M127.102,149.582H123.8v-10.947h3.302V149.582z"/>
	</g>
</g>
<g>
	<g>
		<path fill="#339966" d="M58.47,63.697l-14.574-2.035c1.947-13.946,8.993-26.627,19.838-35.708l9.447,11.283
			C65.136,43.972,59.912,53.369,58.47,63.697z"/>
	</g>
	<g>
		<path fill="#339966" d="M100.238,126.482c-7.143-0.001-14.111-1.309-20.711-3.89l5.358-13.704
			c4.886,1.91,10.052,2.879,15.354,2.879c5.151,0,10.179-0.917,14.946-2.724l5.216,13.76
			C113.962,125.245,107.178,126.482,100.238,126.482z"/>
	</g>
	<g>
		<path fill="#339966" d="M142.079,64.24c-1.428-11.284-7.51-21.674-16.686-28.506l8.787-11.804
			c12.372,9.21,20.571,23.23,22.497,38.465L142.079,64.24z"/>
	</g>
	<g>
		<path fill="#006699" d="M88.985,76.172C84.03,67.698,74.847,62.435,65.02,62.435c-4.894,0-9.727,1.313-13.975,3.798
			c-6.395,3.74-10.95,9.745-12.827,16.912c-1.877,7.166-0.852,14.634,2.888,21.028c4.956,8.473,14.138,13.737,23.966,13.737
			c4.893,0,9.726-1.314,13.974-3.798c6.395-3.742,10.95-9.747,12.828-16.912C93.751,90.033,92.725,82.566,88.985,76.172z
			 M71.433,101.093c-1.938,1.134-4.143,1.733-6.375,1.733c-4.483,0-8.673-2.401-10.933-6.268c-1.706-2.917-2.174-6.324-1.317-9.593
			s2.935-6.009,5.852-7.715c1.938-1.134,4.142-1.732,6.375-1.732c4.483,0,8.672,2.4,10.933,6.267
			C79.488,89.807,77.454,97.572,71.433,101.093z"/>
		<circle fill="#990000" cx="65.045" cy="90.172" r="5.921"/>
	</g>
	<g>
		<path fill="#006699" d="M122.961,14.04c-4.956-8.473-14.139-13.737-23.966-13.737c-4.894,0-9.727,1.313-13.975,3.798
			c-6.395,3.74-10.95,9.746-12.827,16.912c-1.877,7.167-0.852,14.635,2.888,21.029c4.956,8.473,14.139,13.737,23.965,13.737
			c4.893,0,9.727-1.313,13.975-3.798c6.395-3.74,10.95-9.746,12.827-16.911C127.726,27.903,126.7,20.435,122.961,14.04z
			 M105.407,38.962c-1.938,1.134-4.142,1.732-6.374,1.732c-4.483,0-8.673-2.401-10.934-6.267c-1.706-2.917-2.174-6.324-1.317-9.593
			s2.935-6.009,5.852-7.715c1.938-1.133,4.143-1.732,6.375-1.732c4.482,0,8.672,2.401,10.934,6.267
			C113.464,27.676,111.429,35.44,105.407,38.962z"/>
		<circle fill="#990000" cx="99.021" cy="28.041" r="5.92"/>
	</g>
	<g>
		<path fill="#006699" d="M158.699,76.172c-4.956-8.474-14.139-13.737-23.965-13.737c-4.895,0-9.727,1.313-13.976,3.798
			c-6.395,3.739-10.95,9.745-12.826,16.911c-1.878,7.167-0.853,14.635,2.887,21.029c4.956,8.473,14.139,13.737,23.967,13.737
			c4.894,0,9.726-1.314,13.974-3.798c6.395-3.742,10.95-9.747,12.827-16.912C163.465,90.033,162.438,82.566,158.699,76.172z
			 M141.146,101.093c-1.938,1.134-4.143,1.733-6.375,1.733c-4.482,0-8.673-2.401-10.933-6.268c-1.707-2.917-2.174-6.324-1.318-9.593
			c0.856-3.269,2.936-6.009,5.854-7.715c1.937-1.134,4.141-1.732,6.374-1.732c4.482,0,8.672,2.401,10.934,6.267
			C149.202,89.807,147.167,97.572,141.146,101.093z"/>
		<circle fill="#990000" cx="134.76" cy="90.172" r="5.92"/>
	</g>
</g>
</svg>
